# Blender 5.1.2
# www.blender.org
mtllib candycanedef1.mtl
o cane1
v 0.022810 -0.005790 -0.010614
v 0.007856 -0.024195 -0.018263
v 0.014585 -0.027691 -0.002087
v 0.004015 -0.046832 -0.011731
v 0.002390 -0.046720 0.006050
v 0.001810 -0.059037 -0.003031
v -0.008404 -0.057602 0.011548
v -0.001799 -0.070235 0.005559
v 0.021238 -0.005569 0.007182
v 0.024362 0.018329 0.013692
v 0.033784 0.014338 -0.000936
v 0.040084 0.038020 0.007673
v 0.041548 0.037814 -0.008912
v 0.052928 0.063794 0.000109
v 0.047387 0.066660 -0.013192
v 0.062429 0.094671 -0.005237
v 0.110515 -0.098998 -0.001939
v 0.096719 -0.109574 -0.009848
v 0.102126 -0.115317 0.006184
v 0.086851 -0.127075 -0.004269
v 0.085175 -0.127186 0.013511
v 0.069617 -0.138558 0.003040
v 0.006127 -0.091626 0.006218
v 0.007804 -0.091516 -0.011562
v 0.003840 -0.080530 -0.002928
v -0.000120 -0.070121 -0.012232
v 0.061415 0.094814 0.006250
v 0.066889 0.120698 0.008136
v 0.071476 0.118893 0.001034
v 0.077450 0.140767 0.004314
v 0.077981 0.140693 -0.001697
v 0.082389 0.152588 0.001569
v 0.080690 0.153520 -0.002529
v 0.089043 0.172973 0.000722
v 0.108838 -0.099109 0.015841
v 0.104517 -0.085524 0.016625
v 0.110448 -0.088674 0.006903
v -0.018971 -0.109536 0.003801
v -0.002156 -0.118852 0.011902
v -0.006374 -0.125675 -0.004057
v 0.010832 -0.134235 0.006499
v 0.012494 -0.134236 -0.011281
v 0.029902 -0.142361 -0.000711
v 0.032826 -0.133504 -0.015932
v 0.050622 -0.140637 -0.007726
v 0.085175 -0.127186 0.013511
v 0.069617 -0.138558 0.003040
v 0.065064 -0.130269 0.018175
v 0.048944 -0.140752 0.010065
v 0.022810 -0.005790 -0.010614
v 0.009598 0.000587 -0.020821
v 0.027079 0.017947 -0.017087
v 0.007856 -0.024195 -0.018263
v 0.032826 -0.133504 -0.015932
v 0.050622 -0.140637 -0.007726
v 0.049994 -0.125255 -0.016699
v 0.067966 -0.130097 -0.012619
v 0.061760 -0.113350 -0.013141
v 0.078755 -0.114465 -0.013947
v 0.068984 -0.101967 -0.005857
v 0.083002 -0.098258 -0.011093
v 0.047387 0.066660 -0.013192
v 0.062429 0.094671 -0.005237
v 0.053899 0.098766 -0.011832
v 0.068207 0.120512 -0.006791
v 0.060383 0.124162 -0.007525
v 0.073519 0.142826 -0.005139
v 0.068528 0.145034 -0.002580
v 0.076587 0.155373 -0.002919
v 0.096743 0.194835 0.002287
v 0.034081 0.072816 -0.014454
v 0.015436 0.049826 -0.011377
v 0.029225 0.043719 -0.018437
v 0.010920 0.025318 -0.018612
v 0.096465 -0.079176 -0.004653
v 0.106431 -0.085446 -0.003736
v 0.098294 -0.090792 -0.012024
v 0.110515 -0.098998 -0.001939
v 0.096719 -0.109574 -0.009848
v 0.007804 -0.091516 -0.011562
v -0.000120 -0.070121 -0.012232
v -0.003051 -0.083614 -0.019118
v -0.014620 -0.071560 -0.022560
v -0.005517 -0.057544 -0.019258
v -0.023043 -0.054501 -0.020894
v -0.009558 -0.041332 -0.021971
v -0.024773 -0.035834 -0.014429
v -0.008308 -0.016711 -0.019778
v 0.080690 0.153520 -0.002529
v 0.089043 0.172973 0.000722
v 0.087323 0.173795 -0.000600
v 0.035791 -0.115843 -0.015591
v 0.025314 -0.106028 -0.009972
v 0.019743 -0.120076 -0.019522
v 0.012067 -0.104976 -0.017779
v 0.000745 -0.118680 -0.018892
v -0.003906 -0.100415 -0.021671
v -0.017293 -0.109426 -0.013990
v -0.019717 -0.089847 -0.020705
v 0.068984 -0.101967 -0.005857
v 0.083002 -0.098258 -0.011093
v -0.026400 -0.035722 0.003364
v -0.025946 -0.054673 0.009911
v 0.068528 0.145034 -0.002580
v 0.076587 0.155373 -0.002919
v 0.074198 0.156402 0.000790
v 0.085397 0.174646 0.000386
v 0.085194 0.174674 0.002695
v 0.096743 0.194835 0.002287
v 0.067999 0.145108 0.003420
v 0.059067 0.124347 0.007391
v 0.055812 0.126077 -0.000433
v 0.043342 0.103150 0.004548
v 0.044356 0.103007 -0.006939
v 0.026301 0.075995 -0.002392
v 0.034081 0.072816 -0.014454
v 0.015436 0.049826 -0.011377
v 0.074707 -0.092573 0.003693
v 0.084411 -0.082581 -0.004331
v 0.082751 -0.082581 0.013449
v 0.090516 -0.076140 0.005081
v -0.024773 -0.035834 -0.014429
v -0.008308 -0.016711 -0.019778
v -0.017757 -0.012833 -0.005139
v -0.005200 0.007072 -0.013244
v -0.006771 0.007293 0.004541
v 0.001480 0.029190 -0.003984
v 0.008201 0.025700 0.012168
v 0.013971 0.050032 0.005218
v 0.046028 -0.109979 0.009898
v 0.057207 -0.105061 0.001995
v 0.047705 -0.109868 -0.007882
v -0.017293 -0.109426 -0.013990
v -0.019717 -0.089847 -0.020705
v -0.029492 -0.092993 -0.006101
v -0.030795 -0.073113 -0.015119
v -0.032456 -0.073109 0.002661
v -0.033276 -0.053180 -0.006303
v 0.082751 -0.082581 0.013449
v 0.090516 -0.076140 0.005081
v 0.094550 -0.079257 0.015721
v 0.102766 -0.077399 0.006123
v 0.096465 -0.079176 -0.004653
v 0.106431 -0.085446 -0.003736
v 0.023638 -0.106139 0.007808
v 0.009180 -0.105034 0.013026
v 0.016285 -0.098153 -0.001819
v 0.006127 -0.091626 0.006218
v 0.007804 -0.091516 -0.011562
v 0.104517 -0.085524 0.016625
v 0.110448 -0.088674 0.006903
v 0.067322 -0.101963 0.011933
v 0.046028 -0.109979 0.009898
v 0.057207 -0.105061 0.001995
v 0.047705 -0.109868 -0.007882
v 0.035814 -0.107154 -0.000018
v 0.035791 -0.115843 -0.015591
v 0.025314 -0.106028 -0.009972
v -0.008404 -0.057602 0.011548
v -0.001799 -0.070235 0.005559
v -0.017958 -0.071670 0.013000
v -0.005936 -0.083672 0.011688
v -0.022602 -0.089905 0.010089
v -0.007261 -0.100637 0.013898
v -0.018971 -0.109536 0.003801
v -0.002156 -0.118852 0.011902
v -0.012811 -0.041108 0.013603
v -0.026400 -0.035722 0.003364
v -0.025946 -0.054673 0.009911
v -0.011028 -0.016329 0.011037
v 0.005151 -0.023702 0.012563
v 0.006457 0.001028 0.014760
v 0.021238 -0.005569 0.007182
v 0.024362 0.018329 0.013692
v 0.096743 0.194835 0.002287
v 0.086914 0.173853 0.004029
v 0.088839 0.173002 0.003043
v 0.080001 0.153617 0.005277
v 0.075897 0.155470 0.004899
v 0.072460 0.142975 0.006862
v 0.067999 0.145108 0.003420
v 0.059067 0.124347 0.007391
v 0.065064 -0.130269 0.018175
v 0.048944 -0.140752 0.010065
v 0.046656 -0.125365 0.018871
v 0.029941 -0.133561 0.014862
v 0.032890 -0.116015 0.015214
v 0.016404 -0.120187 0.016049
v 0.023638 -0.106139 0.007808
v 0.009180 -0.105034 0.013026
v 0.008201 0.025700 0.012168
v 0.013971 0.050032 0.005218
v 0.026295 0.044131 0.014743
v 0.031842 0.073130 0.010920
v 0.045148 0.066974 0.012171
v 0.051871 0.099051 0.011142
v 0.061415 0.094814 0.006250
v 0.066889 0.120698 0.008136
v 0.094956 -0.090899 0.023535
v 0.108838 -0.099109 0.015841
v 0.104517 -0.085524 0.016625
v 0.093817 -0.109743 0.020958
v 0.080116 -0.098315 0.019713
v 0.075417 -0.114576 0.021612
v 0.067322 -0.101963 0.011933
v 0.058857 -0.113522 0.017665
v 0.046028 -0.109979 0.009898
vn 0.874200 -0.376800 -0.306200
vn 0.775900 -0.340400 -0.531100
vn 0.613800 -0.261900 -0.744800
vn 0.922200 -0.383500 -0.049500
vn 0.911200 -0.302500 0.279600
vn 0.882700 -0.251700 0.396800
vn 0.667800 -0.077900 0.740200
vn 0.585900 -0.034700 0.809600
vn 0.680500 -0.310400 0.663800
vn 0.474100 -0.233300 0.849000
vn 0.807100 -0.345100 0.479100
vn 0.910300 -0.365800 0.193600
vn 0.935000 -0.354700 -0.001900
vn 0.889200 -0.308000 -0.338400
vn 0.839100 -0.276700 -0.468300
vn 0.622500 -0.151200 -0.767900
vn 0.691800 -0.652000 -0.310400
vn 0.707400 -0.424900 -0.564800
vn 0.677100 -0.230600 -0.698800
vn 0.631500 -0.770700 -0.085700
vn 0.504100 -0.842900 0.188300
vn 0.355400 -0.843000 0.403700
vn 0.704900 0.643100 0.299200
vn 0.863500 0.483200 -0.144600
vn 0.872500 0.435000 -0.222500
vn 0.709700 0.153400 -0.687600
vn 0.463200 -0.120600 0.878000
vn 0.805900 -0.257100 0.533300
vn 0.742400 -0.231700 0.628600
vn 0.940100 -0.306800 0.148300
vn 0.950800 -0.308300 0.030800
vn 0.893500 -0.276500 -0.353700
vn 0.861100 -0.263800 -0.434600
vn 0.593400 -0.139000 -0.792800
vn 0.625700 0.103300 0.773200
vn 0.831200 0.401600 0.384400
vn 0.736900 0.246200 0.629600
vn -0.565400 -0.762100 0.315400
vn -0.585300 -0.583500 0.563000
vn -0.538000 -0.417100 0.732500
vn -0.481900 -0.871000 0.095400
vn -0.338200 -0.924400 -0.176400
vn -0.195400 -0.897800 -0.394600
vn -0.037700 -0.776900 -0.628500
vn 0.061700 -0.619000 -0.782900
vn 0.180800 -0.747200 0.639500
vn 0.355300 -0.843100 0.403700
vn 0.504000 -0.842900 0.188400
vn 0.052200 -0.613000 0.788300
vn 0.613700 -0.261800 -0.744900
vn 0.436200 -0.172400 -0.883200
vn 0.200100 -0.044100 -0.978800
vn 0.775800 -0.340300 -0.531300
vn 0.120700 -0.351800 -0.928300
vn 0.061700 -0.618900 -0.783000
vn -0.037500 -0.776900 -0.628500
vn 0.111100 -0.167200 -0.979600
vn -0.011700 0.144700 -0.989400
vn -0.100600 0.268000 -0.958200
vn -0.383000 0.476100 -0.791600
vn -0.476600 0.509900 -0.716100
vn 0.839100 -0.276700 -0.468400
vn 0.529700 -0.098200 -0.842500
vn 0.622400 -0.151200 -0.768000
vn 0.198400 0.059500 -0.978300
vn 0.094400 0.106100 -0.989900
vn -0.271400 0.277100 -0.921700
vn -0.371100 0.321600 -0.871200
vn -0.650700 0.433600 -0.623300
vn -0.256400 0.203600 -0.944900
vn -0.417800 0.289100 -0.861300
vn -0.651900 0.409500 -0.638200
vn 0.001200 0.063600 -0.998000
vn 0.606200 0.185600 -0.773400
vn 0.465700 0.654300 -0.595800
vn 0.566400 0.397200 -0.722100
vn 0.677100 -0.230600 -0.698900
vn 0.707400 -0.424800 -0.564900
vn 0.767400 0.209400 -0.606000
vn 0.709800 0.153400 -0.687500
vn 0.863500 0.483300 -0.144500
vn 0.412000 0.037200 -0.910400
vn 0.263300 0.018500 -0.964500
vn -0.070500 0.065600 -0.995400
vn -0.246900 0.129700 -0.960300
vn -0.485000 0.227400 -0.844400
vn -0.678100 0.317700 -0.662700
vn 0.861100 -0.263700 -0.434600
vn 0.566700 -0.127500 -0.814000
vn 0.593300 -0.139000 -0.792900
vn 0.412600 0.910600 0.024700
vn 0.220500 0.303600 -0.926900
vn 0.257500 0.633100 -0.730000
vn 0.238500 0.720600 -0.651000
vn 0.164200 0.159400 -0.973500
vn -0.046000 -0.097300 -0.994200
vn -0.207400 -0.201700 -0.957200
vn -0.472400 -0.299900 -0.828800
vn -0.660800 -0.304800 -0.685900
vn -0.650900 0.433600 -0.623200
vn -0.371100 0.321600 -0.871100
vn -0.701100 0.456100 -0.548100
vn -0.853000 0.509800 -0.111700
vn -0.859900 0.504100 -0.080600
vn 0.412800 0.910500 0.024700
vn -0.523200 0.343800 0.779800
vn -0.801600 0.478000 0.359000
vn -0.758400 0.456100 0.465700
vn -0.859600 0.510300 -0.025400
vn -0.847900 0.508200 -0.150700
vn -0.729900 0.444600 -0.519300
vn -0.417800 0.289200 -0.861300
vn -0.684500 0.620500 -0.382800
vn -0.476700 0.510100 -0.715900
vn -0.383100 0.476300 -0.791400
vn -0.706300 0.655800 -0.266700
vn -0.546100 0.834200 0.077200
vn -0.400300 0.899400 0.175700
vn -0.799700 0.374700 -0.469000
vn -0.678200 0.317700 -0.662700
vn -0.485000 0.227500 -0.844400
vn -0.887800 0.410400 -0.208100
vn -0.906500 0.420700 0.034500
vn -0.857100 0.406800 0.316100
vn -0.768500 0.370500 0.521700
vn -0.583200 0.304800 0.753000
vn 0.028800 0.974400 -0.222900
vn -0.212400 0.954900 0.207700
vn -0.253700 0.925100 0.282400
vn -0.853300 -0.252200 -0.456400
vn -0.472600 -0.299800 -0.828700
vn -0.960800 -0.151900 -0.231900
vn -0.998200 -0.034500 0.048200
vn -0.954600 0.078600 0.287200
vn -0.821500 0.155000 0.548700
vn -0.663700 0.181000 0.725800
vn -0.127600 0.937400 0.324100
vn -0.400100 0.899500 0.175800
vn -0.545800 0.834300 0.077400
vn 0.492900 0.868800 0.047900
vn 0.465700 0.654400 -0.595700
vn 0.492800 0.868800 0.047900
vn 0.566400 0.397300 -0.722100
vn 0.659800 0.656300 0.366000
vn 0.364700 0.600500 0.711600
vn 0.279900 0.556000 0.782600
vn 0.863400 0.483400 -0.144700
vn 0.831200 0.401800 0.384300
vn 0.492900 0.868700 0.047900
vn 0.736900 0.246100 0.629600
vn -0.212400 0.954800 0.207700
vn -0.372700 0.585400 0.720000
vn -0.212300 0.954900 0.207800
vn 0.028900 0.974400 -0.222900
vn 0.071900 0.954100 -0.290600
vn 0.238500 0.720800 -0.650800
vn 0.257500 0.633200 -0.729900
vn 0.238400 0.030200 0.970700
vn 0.585800 -0.034700 0.809700
vn 0.667700 -0.078000 0.740300
vn 0.081600 0.012500 0.996600
vn -0.227500 -0.103000 0.968300
vn -0.380000 -0.208600 0.901200
vn -0.538000 -0.417000 0.732600
vn -0.585200 -0.583500 0.563100
vn -0.447000 0.150100 0.881900
vn -0.663600 0.181000 0.725900
vn -0.821400 0.155100 0.548800
vn -0.199000 0.051800 0.978600
vn 0.018800 -0.034500 0.999200
vn 0.270500 -0.149400 0.951100
vn 0.474000 -0.233400 0.849000
vn 0.680400 -0.310500 0.663800
vn 0.412600 0.910600 0.024600
vn 0.394900 -0.087400 0.914500
vn 0.414400 -0.105800 0.903900
vn -0.024800 0.107000 0.993900
vn -0.106700 0.142200 0.984100
vn -0.429900 0.306100 0.849400
vn -0.523100 0.343700 0.779900
vn -0.758300 0.456100 0.465700
vn -0.052900 -0.358200 0.932100
vn 0.052200 -0.613000 0.788400
vn 0.180800 -0.747100 0.639700
vn -0.079000 -0.171600 0.982000
vn -0.017600 0.154100 0.987900
vn 0.044700 0.295100 0.954400
vn 0.279800 0.555800 0.782800
vn 0.364600 0.600400 0.711700
vn -0.439600 0.244000 0.864400
vn -0.583100 0.304900 0.753000
vn -0.768400 0.370400 0.521900
vn -0.133600 0.122200 0.983500
vn 0.001900 0.071500 0.997400
vn 0.354100 -0.073600 0.932300
vn 0.742400 -0.231600 0.628700
vn 0.285900 -0.032200 0.957700
vn 0.625600 0.103100 0.773300
vn 0.736800 0.246100 0.629700
vn 0.100200 -0.022100 0.994700
vn -0.194200 0.138800 0.971100
vn -0.277000 0.262300 0.924400
vn -0.371200 0.665000 0.648100
vt 1.622990 -0.827527
vt 1.606120 -0.827802
vt 1.613250 -0.852765
vt 1.613260 -0.803623
vt 1.632710 -0.803453
vt 1.622750 -0.790574
vt 1.639550 -0.788030
vt 1.632260 -0.778093
vt 1.639800 -0.878162
vt 1.632710 -0.852766
vt 1.622990 -0.877885
vt 1.632050 -0.904523
vt 1.613910 -0.904522
vt 1.622980 -0.935551
vt 1.609090 -0.935778
vt 1.616690 -0.970474
vt 1.622570 -0.776950
vt 1.605770 -0.780027
vt 1.613190 -0.796728
vt 1.612510 -0.758402
vt 1.631970 -0.758062
vt 1.621910 -0.739793
vt 1.631950 -0.760032
vt 1.612500 -0.760372
vt 1.622390 -0.769899
vt 1.612810 -0.778433
vt 1.629250 -0.970474
vt 1.622970 -0.998682
vt 1.631120 -0.998816
vt 1.626240 -1.023290
vt 1.619680 -1.023290
vt 1.622960 -1.037210
vt 1.618680 -1.037280
vt 1.621690 -1.060390
vt 1.632640 -0.796389
vt 1.622920 -0.807298
vt 1.634080 -0.808124
vt 1.645470 -0.901518
vt 1.642690 -0.918530
vt 1.664190 -0.911432
vt 1.623670 -0.911241
vt 1.623660 -0.891786
vt 1.601840 -0.901518
vt 1.604080 -0.884834
vt 1.582510 -0.891977
vt 1.570130 -0.918867
vt 1.563440 -0.901899
vt 1.551770 -0.911954
vt 1.582520 -0.911432
vt 1.576890 -0.852765
vt 1.560070 -0.853243
vt 1.570490 -0.878160
vt 1.569070 -0.827802
vt 1.654260 -0.744354
vt 1.662270 -0.729360
vt 1.640690 -0.728814
vt 1.674660 -0.747158
vt 1.661300 -0.761299
vt 1.678670 -0.767406
vt 1.664320 -0.776072
vt 1.676270 -0.785594
vt 1.570410 -0.935778
vt 1.563390 -0.970782
vt 1.574250 -0.970474
vt 1.568890 -0.998815
vt 1.559480 -0.999083
vt 1.564880 -1.023450
vt 1.559190 -1.023610
vt 1.562800 -1.037420
vt 1.561530 -0.904968
vt 1.545810 -0.905414
vt 1.554400 -0.936233
vt 1.551060 -0.878712
vt 1.688270 -0.799570
vt 1.682210 -0.810554
vt 1.694910 -0.808513
vt 1.704910 -0.796728
vt 1.694910 -0.780027
vt 1.583370 -0.763513
vt 1.581200 -0.778433
vt 1.598260 -0.760372
vt 1.566380 -0.770596
vt 1.569810 -0.788618
vt 1.550880 -0.784119
vt 1.558630 -0.803084
vt 1.541780 -0.802375
vt 1.549620 -0.828355
vt 1.567730 -1.037280
vt 1.565920 -1.060460
vt 1.568110 -1.060390
vt 1.566640 -1.085690
vt 1.621600 -0.736591
vt 1.622080 -0.753262
vt 1.636190 -0.747741
vt 1.607670 -0.748551
vt 1.602100 -0.729910
vt 1.589430 -0.746196
vt 1.580590 -0.731680
vt 1.569230 -0.750153
vt 1.626100 -1.037420
vt 1.625120 -1.023610
vt 1.621830 -1.037490
vt 1.623090 -1.060520
vt 1.620560 -1.060520
vt 1.621820 -1.085690
vt 1.618550 -1.023610
vt 1.621840 -0.999217
vt 1.613670 -0.999084
vt 1.615560 -0.971092
vt 1.628120 -0.971091
vt 1.621850 -0.936461
vt 1.635710 -0.936233
vt 1.630920 -0.905414
vt 1.622030 -0.788083
vt 1.638920 -0.785594
vt 1.631970 -0.776072
vt 1.631510 -0.802073
vt 1.612060 -0.801734
vt 1.621790 -0.811380
vt 1.621860 -0.828632
vt 1.638690 -0.828355
vt 1.631590 -0.802375
vt 1.631580 -0.853722
vt 1.612120 -0.853723
vt 1.621860 -0.878989
vt 1.605010 -0.878714
vt 1.612780 -0.905415
vt 1.632280 -0.759008
vt 1.612820 -0.758669
vt 1.622380 -0.768076
vt 1.622860 -0.743179
vt 1.639590 -0.750153
vt 1.632790 -0.731680
vt 1.632260 -0.762420
vt 1.612810 -0.762081
vt 1.622200 -0.781575
vt 1.605310 -0.783531
vt 1.612130 -0.802205
vt 1.682200 -0.914095
vt 1.675850 -0.902969
vt 1.671620 -0.912705
vt 1.688720 -0.902940
vt 1.682210 -0.891813
vt 1.694910 -0.891784
vt 1.610440 -0.902174
vt 1.607650 -0.918858
vt 1.622070 -0.911829
vt 1.598250 -0.911941
vt 1.598260 -0.892487
vt 1.701260 -0.902910
vt 1.694900 -0.914066
vt 1.646240 -0.911941
vt 1.664310 -0.912248
vt 1.654610 -0.902379
vt 1.646250 -0.892487
vt 1.633930 -0.902174
vt 1.636190 -0.885162
vt 1.622080 -0.892375
vt 1.678420 -0.769917
vt 1.663590 -0.778093
vt 1.674980 -0.788030
vt 1.661420 -0.762925
vt 1.675570 -0.749565
vt 1.655360 -0.745517
vt 1.664190 -0.731341
vt 1.642690 -0.729322
vt 1.686210 -0.802744
vt 1.703030 -0.802205
vt 1.693910 -0.783531
vt 1.695210 -0.828356
vt 1.675760 -0.827804
vt 1.684780 -0.853245
vt 1.667920 -0.852766
vt 1.674340 -0.878162
vt 1.678140 -1.085690
vt 1.678860 -1.060460
vt 1.676670 -1.060390
vt 1.677060 -1.037280
vt 1.681990 -1.037420
vt 1.679920 -1.023450
vt 1.685600 -1.023610
vt 1.685330 -0.999084
vt 1.590530 -0.743675
vt 1.582520 -0.729021
vt 1.570130 -0.746570
vt 1.604100 -0.728226
vt 1.608600 -0.747153
vt 1.623190 -0.735912
vt 1.622710 -0.752923
vt 1.637120 -0.747963
vt 1.683310 -0.904969
vt 1.698990 -0.905415
vt 1.693770 -0.878714
vt 1.690420 -0.936234
vt 1.674410 -0.935779
vt 1.681430 -0.970783
vt 1.670540 -0.970474
vt 1.675910 -0.998816
vt 1.556520 -0.798891
vt 1.539880 -0.796389
vt 1.549880 -0.808124
vt 1.549880 -0.779439
vt 1.568530 -0.785006
vt 1.566130 -0.766727
vt 1.580470 -0.775732
vt 1.583490 -0.760711
vt 1.598530 -0.758669
s 1
usemtl Meshpart1Mtl
f 3/1/1 2/2/2 1/3/3
f 2/2/2 3/1/1 4/4/4
f 5/5/5 4/4/4 3/1/1
f 4/4/4 5/5/5 6/6/6
f 6/6/6 5/5/5 7/7/7
f 6/6/6 7/7/7 8/8/8
f 10/9/9 9/10/10 11/11/11
f 11/11/11 12/12/12 10/9/9
f 13/13/13 12/12/12 11/11/11
f 12/12/12 13/13/13 14/14/14
f 15/15/15 14/14/14 13/13/13
f 14/14/14 15/15/15 16/16/16
f 19/17/17 18/18/18 17/19/19
f 18/18/18 19/17/17 20/20/20
f 19/17/17 21/21/21 20/20/20
f 22/22/22 20/20/20 21/21/21
f 23/23/23 24/24/24 25/25/25
f 26/26/26 25/25/25 24/24/24
f 27/27/27 29/28/28 28/29/29
f 29/28/28 30/30/30 28/29/29
f 31/31/31 30/30/30 29/28/28
f 30/30/30 31/31/31 32/32/32
f 33/33/33 32/32/32 31/31/31
f 32/32/32 33/33/33 34/34/34
f 35/35/35 37/36/36 36/37/37
f 40/38/38 39/39/39 38/40/40
f 39/39/39 40/38/38 41/41/41
f 40/38/38 42/42/42 41/41/41
f 43/43/43 41/41/41 42/42/42
f 44/44/44 43/43/43 42/42/42
f 43/43/43 44/44/44 45/45/45
f 48/46/46 47/47/47 46/48/48
f 47/47/47 48/46/46 49/49/49
f 50/50/50 51/51/51 52/52/52
f 51/51/51 50/50/50 53/53/53
f 56/54/54 55/55/55 54/56/56
f 55/55/55 56/54/54 57/57/57
f 58/58/58 57/57/57 56/54/54
f 57/57/57 58/58/58 59/59/59
f 60/60/60 59/59/59 58/58/58
f 59/59/59 60/60/60 61/61/61
f 62/62/62 64/63/63 63/64/64
f 65/65/65 63/64/64 64/63/63
f 64/63/63 66/66/66 65/65/65
f 67/67/67 65/65/65 66/66/66
f 66/66/66 68/68/68 67/67/67
f 68/68/68 69/69/69 67/67/67
f 73/70/70 72/71/71 71/72/72
f 72/71/71 73/70/70 74/73/73
f 52/52/52 74/73/73 73/70/70
f 74/73/73 52/52/52 51/51/51
f 77/74/74 75/75/75 76/76/76
f 78/77/77 77/74/74 76/76/76
f 77/74/74 78/77/77 79/78/78
f 82/79/79 81/80/80 80/81/81
f 83/82/82 81/80/80 82/79/79
f 81/80/80 83/82/82 84/83/83
f 85/84/84 84/83/83 83/82/82
f 84/83/83 85/84/84 86/85/85
f 87/86/86 86/85/85 85/84/84
f 86/85/85 87/86/86 88/87/87
f 89/88/88 91/89/89 90/90/90
f 70/91/91 90/90/90 91/89/89
f 94/92/92 93/93/93 92/94/94
f 93/93/93 94/92/92 95/95/95
f 96/96/96 95/95/95 94/92/92
f 95/95/95 96/96/96 97/97/97
f 98/98/98 97/97/97 96/96/96
f 97/97/97 98/98/98 99/99/99
f 105/100/100 104/101/101 106/102/102
f 106/102/102 107/103/103 105/100/100
f 107/103/103 106/102/102 108/104/104
f 109/105/105 107/103/103 108/104/104
f 110/106/106 112/107/107 111/108/108
f 113/109/109 111/108/108 112/107/107
f 112/107/107 114/110/110 113/109/109
f 115/111/111 113/109/109 114/110/110
f 114/110/110 116/112/72 115/111/111
f 117/113/112 115/111/111 116/112/72
f 118/114/113 101/115/114 100/116/115
f 101/115/114 118/114/113 119/117/116
f 120/118/117 119/117/116 118/114/113
f 119/117/116 120/118/117 121/119/118
f 124/120/119 123/121/120 122/122/121
f 123/121/120 124/120/119 125/123/122
f 125/123/122 124/120/119 126/124/123
f 127/125/124 125/123/122 126/124/123
f 128/126/125 127/125/124 126/124/123
f 127/125/124 128/126/125 129/127/126
f 132/128/127 130/129/128 131/130/129
f 135/131/130 134/132/99 133/133/131
f 134/132/99 135/131/130 136/134/132
f 136/134/132 135/131/130 137/135/133
f 138/136/134 136/134/132 137/135/133
f 103/137/135 138/136/134 137/135/133
f 138/136/134 103/137/135 102/138/136
f 141/139/137 140/140/138 139/141/139
f 140/140/138 141/139/137 142/142/140
f 143/143/141 142/142/142 144/144/143
f 147/145/144 146/146/145 145/147/146
f 147/145/144 148/148/23 146/146/145
f 149/149/147 148/148/23 147/145/144
f 151/150/148 142/142/149 150/151/150
f 153/152/151 152/153/152 154/154/129
f 153/152/153 155/155/154 156/156/155
f 157/157/156 156/156/155 155/155/154
f 156/156/155 157/157/156 158/158/157
f 161/159/158 160/160/159 159/161/160
f 160/160/159 161/159/158 162/162/161
f 163/163/162 162/162/161 161/159/158
f 162/162/161 163/163/162 164/164/163
f 165/165/164 164/164/163 163/163/162
f 164/164/163 165/165/164 166/166/165
f 167/167/166 168/168/167 169/169/168
f 168/168/167 167/167/166 170/170/169
f 171/171/170 170/170/169 167/167/166
f 170/170/169 171/171/170 172/172/171
f 173/173/172 172/172/171 171/171/170
f 172/172/171 173/173/172 174/174/173
f 175/175/174 176/176/175 177/177/176
f 178/178/177 177/177/176 176/176/175
f 178/178/177 176/176/175 179/179/178
f 179/179/178 180/180/179 178/178/177
f 180/180/179 179/179/178 181/181/180
f 181/181/180 182/182/181 180/180/179
f 185/183/182 184/184/183 183/185/184
f 184/184/183 185/183/182 186/186/185
f 187/187/186 186/186/185 185/183/182
f 186/186/185 187/187/186 188/188/187
f 189/189/188 188/188/187 187/187/186
f 188/188/187 189/189/188 190/190/189
f 193/191/190 192/192/191 191/193/192
f 192/192/191 193/191/190 194/194/193
f 195/195/194 194/194/193 193/191/190
f 194/194/193 195/195/194 196/196/195
f 196/196/195 195/195/194 197/197/27
f 197/197/27 198/198/196 196/196/195
f 199/199/197 200/200/198 201/201/199
f 200/200/198 199/199/197 202/202/200
f 203/203/201 202/202/200 199/199/197
f 202/202/200 203/203/201 204/204/202
f 205/205/152 204/204/202 203/203/201
f 204/204/202 205/205/152 206/206/203
f 205/205/152 207/207/128 206/206/203
