# Blender 5.1.2
# www.blender.org
mtllib candycanedef2.mtl
o cane2
v -0.063715 -0.384829 -0.021546
v -0.068429 -0.385492 0.031842
v -0.101353 -0.325108 0.002807
v -0.043755 -0.451194 0.006262
v -0.015451 -0.439228 -0.037689
v -0.007169 -0.508284 -0.018150
v -0.120251 -0.254063 -0.023019
v -0.135444 -0.167200 -0.036513
v -0.158785 -0.176740 -0.000328
v -0.184244 -0.083681 -0.018749
v -0.187287 -0.084109 0.015712
v -0.214427 -0.011443 -0.003102
v -0.204621 -0.006586 0.020372
v -0.233942 0.053955 0.005092
v -0.290229 0.216381 -0.006861
v -0.124644 -0.254681 0.026735
v -0.081238 -0.314282 0.051262
v -0.018380 -0.643002 -0.018652
v 0.005396 -0.578829 -0.016676
v -0.011521 -0.609713 0.008783
v 0.000361 -0.578486 0.036697
v -0.005430 -0.545235 0.009094
v 0.016552 -0.540756 0.057773
v -0.012044 -0.508619 0.035194
v -0.232349 0.054179 -0.012943
v -0.240002 0.092727 -0.015832
v -0.247168 0.089641 -0.004708
v -0.266516 0.150883 -0.009129
v -0.267130 0.150797 -0.002167
v -0.306378 -0.714074 -0.018553
v -0.331544 -0.665118 0.005816
v -0.326513 -0.665450 -0.047523
v -0.331345 -0.634143 -0.020710
v -0.319292 -0.624461 0.011209
v -0.281450 -0.697351 -0.062873
v -0.255526 -0.749680 -0.040531
v 0.088477 -0.647101 0.018304
v 0.056913 -0.696731 -0.011402
v 0.051879 -0.696400 0.041971
v 0.019121 -0.745147 0.012172
v -0.002235 -0.724162 0.056675
v -0.037482 -0.770830 0.033842
v -0.260554 -0.749348 0.012807
v -0.203897 -0.758412 0.037856
v -0.208850 -0.783796 -0.009120
v -0.151866 -0.790035 0.023179
v -0.146831 -0.790377 -0.030194
v -0.089705 -0.795207 0.002134
v -0.089822 -0.768807 -0.044587
v -0.032497 -0.770829 -0.019497
v -0.002235 -0.724162 0.056675
v -0.037482 -0.770830 0.033842
v -0.059228 -0.728352 0.058565
v -0.098479 -0.768634 0.047796
v -0.107374 -0.715651 0.046774
v -0.149982 -0.743886 0.050097
v -0.143116 -0.697727 0.023645
v -0.185280 -0.708172 0.039422
v -0.206951 -0.674023 0.017572
v -0.204621 -0.006586 0.020372
v -0.233942 0.053955 0.005092
v -0.220556 0.060355 0.015417
v -0.242069 0.092437 0.007588
v -0.229760 0.097997 0.008756
v -0.261968 0.153262 0.001801
v -0.256192 0.155814 -0.001159
v -0.290229 0.216381 -0.006861
v -0.181148 0.004362 0.022573
v -0.133067 -0.059101 0.020817
v -0.161697 -0.071824 0.035496
v -0.102243 -0.149676 0.043361
v -0.142162 -0.168145 0.039574
v -0.087674 -0.236966 0.055311
v -0.124644 -0.254681 0.026735
v -0.081238 -0.314282 0.051262
v -0.289393 -0.605650 0.013959
v -0.253234 -0.615867 0.012992
v -0.294880 -0.640498 0.036073
v -0.249007 -0.662896 0.033278
v -0.290157 -0.696846 0.029543
v -0.236265 -0.711519 0.041842
v -0.260554 -0.749348 0.012807
v -0.203897 -0.758412 0.037856
v 0.016552 -0.540756 0.057773
v -0.012044 -0.508619 0.035194
v 0.028675 -0.492118 0.065912
v -0.023568 -0.440708 0.054790
v 0.024923 -0.418256 0.059334
v -0.028793 -0.366363 0.062464
v 0.015601 -0.346905 0.039732
v -0.032758 -0.292170 0.055837
v -0.036200 -0.683052 0.053337
v -0.023411 -0.642669 0.034686
v 0.011717 -0.669369 0.065013
v 0.009152 -0.618965 0.057353
v 0.059150 -0.637665 0.062116
v 0.043860 -0.582802 0.067679
v 0.092386 -0.587461 0.045356
v 0.069130 -0.531627 0.062682
v 0.097369 -0.587449 -0.007982
v 0.067807 -0.637838 -0.030266
v 0.088477 -0.647101 0.018304
v 0.056913 -0.696731 -0.011402
v -0.206951 -0.674023 0.017572
v -0.201965 -0.674012 -0.035800
v -0.224122 -0.645841 -0.011078
v 0.074318 -0.475625 0.043286
v 0.099826 -0.527662 0.018909
v 0.079199 -0.475289 -0.010092
v 0.053270 -0.406623 0.015416
v 0.033083 -0.417109 -0.033110
v 0.020313 -0.346243 -0.013622
v -0.255581 0.155899 -0.008086
v -0.227690 0.098288 -0.014697
v -0.222594 0.101083 -0.002371
v -0.203997 0.067202 -0.010260
v -0.205584 0.066979 0.007741
v -0.167437 0.010109 0.001300
v -0.181148 0.004362 0.022573
v -0.133067 -0.059101 0.020817
v -0.240346 -0.663069 -0.059137
v -0.248253 -0.615867 -0.040347
v 0.015601 -0.346905 0.039732
v -0.032758 -0.292170 0.055837
v -0.004440 -0.280552 0.011951
v -0.046307 -0.218645 0.034132
v -0.041912 -0.218027 -0.015654
v -0.078901 -0.140137 0.007176
v -0.095525 -0.148732 -0.032761
v -0.130027 -0.058674 -0.013644
v 0.092386 -0.587461 0.045356
v 0.069130 -0.531627 0.062682
v -0.143116 -0.697727 0.023645
v -0.206951 -0.674023 0.017572
v -0.171621 -0.683306 -0.005984
v -0.201965 -0.674012 -0.035800
v -0.283648 -0.605893 -0.047162
v -0.313552 -0.624694 -0.049876
v -0.308297 -0.600319 -0.018370
v -0.289393 -0.605650 0.013959
v -0.271549 -0.596544 -0.015243
v -0.253234 -0.615867 0.012992
v 0.005396 -0.578829 -0.016676
v -0.011521 -0.609713 0.008783
v 0.000361 -0.578486 0.036697
v -0.331345 -0.634143 -0.020710
v -0.319292 -0.624461 0.011209
v -0.138084 -0.698060 -0.029694
v -0.098669 -0.716168 -0.045643
v -0.107443 -0.689584 0.000053
v -0.070915 -0.686541 -0.023423
v -0.075943 -0.686208 0.029916
v -0.048854 -0.662583 0.005458
v -0.036200 -0.683052 0.053337
v -0.023411 -0.642669 0.034686
v -0.015451 -0.439228 -0.037689
v -0.007169 -0.508284 -0.018150
v 0.038432 -0.491447 -0.040810
v 0.025212 -0.540929 -0.034643
v 0.077838 -0.532143 -0.029734
v 0.053873 -0.583134 -0.038998
v 0.097369 -0.587449 -0.007982
v 0.067807 -0.637838 -0.030266
v 0.033083 -0.417109 -0.033110
v 0.020313 -0.346243 -0.013622
v -0.019371 -0.365039 -0.044278
v -0.024604 -0.291024 -0.036504
v -0.073084 -0.313136 -0.041076
v -0.078886 -0.235731 -0.044230
v -0.120251 -0.254063 -0.023019
v -0.135444 -0.167200 -0.036513
v -0.290229 0.216381 -0.006861
v -0.255581 0.155899 -0.008086
v -0.260740 0.153435 -0.012088
v -0.227690 0.098288 -0.014697
v -0.240346 -0.663069 -0.059137
v -0.248253 -0.615867 -0.040347
v -0.284869 -0.640820 -0.070604
v -0.283648 -0.605893 -0.047162
v -0.313552 -0.624694 -0.049876
v -0.089822 -0.768807 -0.044587
v -0.032497 -0.770829 -0.019497
v -0.049212 -0.728685 -0.048146
v 0.006467 -0.724679 -0.035707
v -0.027540 -0.683224 -0.039079
v 0.021782 -0.670033 -0.041695
v -0.018380 -0.643002 -0.018652
v 0.017809 -0.619138 -0.035063
v 0.005396 -0.578829 -0.016676
v -0.095525 -0.148732 -0.032761
v -0.130027 -0.058674 -0.013644
v -0.155613 -0.070969 -0.033427
v -0.177200 0.004917 -0.022174
v -0.200666 -0.006030 -0.024409
v -0.217379 0.060802 -0.020585
v -0.232349 0.054179 -0.012943
v -0.240002 0.092727 -0.015832
v -0.281450 -0.697351 -0.062873
v -0.255526 -0.749680 -0.040531
v -0.226252 -0.711851 -0.064835
v -0.195191 -0.758929 -0.054526
v -0.176571 -0.708688 -0.052994
v -0.139967 -0.744219 -0.056612
v -0.138084 -0.698060 -0.029694
v -0.098669 -0.716168 -0.045643
vn -0.8878 -0.4105 -0.2081
vn -0.9128 -0.4069 0.0346
vn -0.8750 -0.3687 0.3137
vn -0.7997 -0.3747 -0.4690
vn -0.6707 -0.3169 -0.6706
vn -0.4850 -0.2274 -0.8444
vn -0.7207 -0.2603 -0.6425
vn -0.4738 -0.1698 -0.8641
vn -0.8035 -0.2870 -0.5216
vn -0.9360 -0.3152 -0.1564
vn -0.9483 -0.3158 -0.0308
vn -0.8936 -0.2766 0.3536
vn -0.8504 -0.2546 0.4604
vn -0.6168 -0.1344 0.7756
vn -0.7945 -0.3109 0.5216
vn -0.6282 -0.2077 0.7498
vn -0.9305 0.1868 -0.3150
vn -0.5120 0.3004 -0.8048
vn -0.8968 0.2228 -0.3822
vn -0.9305 0.1867 -0.3150
vn -0.9908 -0.0122 0.1351
vn -0.9754 -0.0499 0.2145
vn -0.7794 -0.1731 0.6022
vn -0.6882 -0.1839 0.7018
vn -0.4646 -0.1130 -0.8783
vn -0.7929 -0.2544 -0.5537
vn -0.7424 -0.2317 -0.6286
vn -0.9394 -0.3224 -0.1169
vn -0.9426 -0.3229 -0.0856
vn -0.4127 0.9106 -0.0246
vn -0.7466 -0.5033 -0.4351
vn -0.9964 -0.0843 0.0077
vn -0.8794 -0.4020 -0.2550
vn -0.9846 0.1393 0.1057
vn -0.8899 0.3996 0.2202
vn -0.5114 -0.5326 -0.6744
vn -0.3399 -0.4681 -0.8157
vn 0.8711 -0.3943 -0.2927
vn 0.7521 -0.6229 0.2151
vn 0.8505 -0.5226 -0.0587
vn 0.6081 -0.6650 0.4335
vn 0.4131 -0.6264 0.6610
vn 0.2421 -0.5303 0.8125
vn -0.2887 -0.8907 0.3511
vn -0.3659 -0.7188 0.5912
vn -0.3726 -0.5451 0.7510
vn -0.1693 -0.9768 0.1313
vn -0.0163 -0.9900 -0.1401
vn 0.1139 -0.9265 -0.3587
vn 0.2247 -0.7700 -0.5971
vn 0.2699 -0.5963 -0.7560
vn 0.0585 -0.3263 0.9434
vn 0.2420 -0.5302 0.8126
vn 0.4131 -0.6264 0.6611
vn -0.0181 -0.1529 0.9881
vn -0.0723 0.1801 0.9810
vn -0.0572 0.3272 0.9432
vn 0.0814 0.6474 0.7578
vn 0.1430 0.7131 0.6863
vn 0.4554 0.8506 0.2630
vn -0.8504 -0.2545 0.4604
vn -0.5309 -0.0905 0.8426
vn -0.1983 0.0594 0.9783
vn -0.1167 0.0951 0.9886
vn 0.3032 0.2728 0.9130
vn 0.3339 0.2846 0.8986
vn -0.4127 0.9105 -0.0249
vn 0.6479 0.4402 0.6216
vn 0.2720 0.2605 0.9264
vn 0.3729 0.3145 0.8729
vn -0.0689 0.0939 0.9932
vn -0.2021 0.0273 0.9790
vn -0.4877 -0.1320 0.8630
vn -0.6281 -0.2076 0.7499
vn -0.7945 -0.3109 0.5217
vn 0.1072 0.2946 0.9496
vn 0.1787 0.6537 0.7354
vn 0.1390 0.7895 0.5978
vn 0.0107 0.1522 0.9883
vn -0.1866 -0.1378 0.9727
vn -0.2953 -0.2879 0.9110
vn -0.3726 -0.5450 0.7511
vn -0.3659 -0.7187 0.5913
vn -0.4340 -0.1487 0.8885
vn -0.6880 -0.1839 0.7020
vn -0.7792 -0.1731 0.6024
vn -0.1978 -0.0596 0.9784
vn 0.0188 0.0344 0.9992
vn 0.2705 0.1494 0.9511
vn 0.4705 0.2482 0.8468
vn 0.6638 0.3411 0.6657
vn -0.3557 0.1894 0.9152
vn -0.5489 0.4555 0.7009
vn -0.5706 0.5343 0.6236
vn -0.2351 0.1018 0.9666
vn 0.0740 -0.0135 0.9972
vn 0.2703 -0.0335 0.9622
vn 0.5463 0.0132 0.8375
vn 0.7141 0.0924 0.6939
vn 0.8711 -0.3942 -0.2928
vn 0.8006 -0.2375 -0.5502
vn 0.6824 -0.1276 -0.7198
vn 0.8506 -0.5226 -0.0587
vn 0.4554 0.8505 0.2631
vn 0.6666 0.7260 -0.1691
vn 0.6927 0.6774 -0.2477
vn 0.9212 0.3115 0.2332
vn 0.8678 0.2097 0.4505
vn 0.9284 0.3699 -0.0340
vn 0.8706 0.3772 -0.3159
vn 0.7759 0.3404 -0.5312
vn 0.6138 0.2618 -0.7448
vn 0.7720 0.4580 -0.4408
vn 0.5046 0.3258 -0.7995
vn 0.8016 0.4780 -0.3590
vn 0.8543 0.5191 0.0248
vn 0.8437 0.5175 0.1428
vn 0.7111 0.4662 0.5263
vn 0.6479 0.4403 0.6216
vn 0.3730 0.3144 0.8729
vn 0.6021 0.5215 -0.6046
vn 0.5177 0.5025 -0.6924
vn 0.7806 0.4045 0.4764
vn 0.6637 0.3412 0.6656
vn 0.4707 0.2484 0.8466
vn 0.8657 0.4627 0.1911
vn 0.8812 0.4728 -0.0046
vn 0.8206 0.4575 -0.3425
vn 0.7625 0.4326 -0.4810
vn 0.5338 0.3385 -0.7749
vn 0.7142 0.0924 0.6938
vn 0.5464 0.0133 0.8374
vn 0.0815 0.6473 0.7579
vn 0.4108 0.8464 0.3388
vn 0.4553 0.8506 0.2630
vn -0.0572 0.6175 -0.7845
vn -0.3513 0.6558 -0.6682
vn -0.4873 0.8724 -0.0395
vn 0.1390 0.7896 0.5976
vn 0.0691 0.9377 0.3406
vn 0.1786 0.6538 0.7353
vn -0.8968 0.2229 -0.3821
vn -0.8898 0.3998 0.2202
vn -0.4873 0.8723 -0.0395
vn -0.2433 0.9133 -0.3266
vn -0.0030 0.7329 -0.6804
vn 0.0459 0.6568 -0.7526
vn -0.2902 0.9212 -0.2590
vn -0.5151 0.8384 0.1782
vn -0.5409 0.8041 0.2467
vn -0.5708 0.5344 0.6233
vn -0.5490 0.4555 0.7008
vn -0.2326 -0.1283 -0.9641
vn -0.6706 -0.3169 -0.6707
vn -0.0705 -0.0655 -0.9954
vn 0.2633 -0.0187 -0.9645
vn 0.4442 -0.0409 -0.8950
vn 0.6823 -0.1275 -0.7199
vn 0.8006 -0.2374 -0.5502
vn 0.4347 0.1801 -0.8824
vn 0.6137 0.2618 -0.7449
vn 0.7758 0.3403 -0.5314
vn 0.1868 0.0819 -0.9790
vn -0.0231 -0.0033 -0.9997
vn -0.3018 -0.1063 -0.9474
vn -0.4737 -0.1698 -0.8642
vn -0.4127 0.9105 -0.0245
vn 0.4835 0.3147 -0.8168
vn 0.1371 0.5590 -0.8177
vn 0.5176 0.5024 -0.6926
vn 0.6020 0.5214 -0.6048
vn -0.0572 0.6174 -0.7846
vn -0.3512 0.6557 -0.6684
vn 0.2386 -0.3310 -0.9130
vn 0.2699 -0.5962 -0.7561
vn 0.2248 -0.7699 -0.5973
vn 0.1642 -0.1594 -0.9735
vn -0.0537 0.0961 -0.9939
vn -0.1714 0.1824 -0.9682
vn -0.5119 0.3005 -0.8048
vn -0.6018 0.3058 -0.7378
vn -0.9306 0.1869 -0.3149
vn 0.5337 0.3385 -0.7750
vn 0.7625 0.4327 -0.4810
vn 0.4401 0.2919 -0.8492
vn 0.0991 0.1411 -0.9850
vn 0.0026 0.0959 -0.9954
vn -0.3715 -0.0682 -0.9259
vn -0.4645 -0.1129 -0.8784
vn -0.7424 -0.2316 -0.6287
vn -0.1223 -0.2957 -0.9474
vn -0.3398 -0.4681 -0.8157
vn -0.5112 -0.5325 -0.6746
vn -0.0041 -0.1436 -0.9896
vn 0.1099 0.1748 -0.9784
vn 0.1180 0.3182 -0.9406
vn 0.0459 0.6567 -0.7528
vn -0.0029 0.7326 -0.6806
vt 0.889340 1.638260
vt 0.869883 1.638260
vt 0.879616 1.613140
vt 0.879616 1.663500
vt 0.896450 1.663220
vt 0.889345 1.687570
vt 0.893468 1.555250
vt 0.888680 1.586500
vt 0.879610 1.555480
vt 0.885881 1.520550
vt 0.873322 1.520550
vt 0.879599 1.492350
vt 0.871431 1.492210
vt 0.876309 1.467740
vt 0.862767 1.612870
vt 0.870539 1.586510
vt 0.888891 1.712930
vt 0.888584 1.731000
vt 0.879022 1.721130
vt 0.869437 1.712590
vt 0.879378 1.700450
vt 0.862486 1.702410
vt 0.869888 1.687400
vt 0.882875 1.467740
vt 0.879591 1.453820
vt 0.883858 1.453750
vt 0.880852 1.430630
vt 0.878321 1.430630
vt 0.879583 1.405330
vt 0.879202 1.714080
vt 0.869817 1.694300
vt 0.889271 1.694640
vt 0.879553 1.683730
vt 0.868427 1.682510
vt 0.896094 1.711590
vt 0.888597 1.732970
vt 0.939260 1.589130
vt 0.920814 1.599050
vt 0.920823 1.579600
vt 0.902098 1.589510
vt 0.899305 1.606190
vt 0.880287 1.599240
vt 0.820069 1.589130
vt 0.826742 1.605860
vt 0.808394 1.598530
vt 0.839139 1.599050
vt 0.839148 1.579600
vt 0.858470 1.589510
vt 0.860729 1.572500
vt 0.880297 1.579790
vt 0.878233 1.754440
vt 0.877749 1.771450
vt 0.858731 1.761120
vt 0.897324 1.762210
vt 0.892824 1.743290
vt 0.910895 1.746670
vt 0.902883 1.732020
vt 0.917932 1.729730
vt 0.920946 1.714960
vt 0.825525 1.492210
vt 0.821509 1.467580
vt 0.827187 1.467740
vt 0.824365 1.453750
vt 0.819435 1.453610
vt 0.822553 1.430570
vt 0.820359 1.430510
vt 0.823266 1.405330
vt 0.816107 1.491940
vt 0.820023 1.520250
vt 0.809141 1.519940
vt 0.811032 1.554800
vt 0.827043 1.555250
vt 0.818163 1.586060
vt 0.833852 1.586510
vt 0.827122 1.612870
vt 0.944905 1.691460
vt 0.928264 1.688950
vt 0.938837 1.680470
vt 0.932897 1.705430
vt 0.951540 1.711000
vt 0.935299 1.723620
vt 0.949642 1.732630
vt 0.931295 1.743870
vt 0.815266 1.687940
vt 0.832088 1.687400
vt 0.826439 1.702410
vt 0.825702 1.663230
vt 0.806252 1.662670
vt 0.816696 1.637780
vt 0.799836 1.637310
vt 0.807693 1.612320
vt 0.846064 1.744830
vt 0.854895 1.730660
vt 0.864298 1.742480
vt 0.840000 1.727510
vt 0.825856 1.740870
vt 0.823008 1.720430
vt 0.808177 1.728610
vt 0.807509 1.706910
vt 0.879494 1.747850
vt 0.862526 1.741460
vt 0.869440 1.728950
vt 0.869961 1.759690
vt 0.888600 1.714960
vt 0.869145 1.715300
vt 0.878659 1.702940
vt 0.888216 1.688650
vt 0.878834 1.709450
vt 0.868759 1.688820
vt 0.878487 1.662400
vt 0.861620 1.662670
vt 0.868754 1.637300
vt 0.874187 1.453610
vt 0.877192 1.430510
vt 0.878462 1.453540
vt 0.875180 1.467420
vt 0.881747 1.467420
vt 0.878470 1.491810
vt 0.886621 1.491940
vt 0.884752 1.519940
vt 0.861855 1.706020
vt 0.868688 1.689290
vt 0.878487 1.612040
vt 0.895303 1.612320
vt 0.888211 1.637310
vt 0.887551 1.585610
vt 0.869410 1.585610
vt 0.878481 1.554570
vt 0.864596 1.554790
vt 0.872193 1.519940
vt 0.895639 1.706910
vt 0.888894 1.728610
vt 0.902883 1.598540
vt 0.911243 1.588650
vt 0.920946 1.598230
vt 0.920937 1.578780
vt 0.938826 1.576930
vt 0.951529 1.576960
vt 0.945353 1.588090
vt 0.938837 1.599210
vt 0.932479 1.588060
vt 0.928264 1.597780
vt 0.837829 1.598230
vt 0.837820 1.578780
vt 0.847063 1.588650
vt 0.957887 1.588120
vt 0.951540 1.599240
vt 0.890565 1.588850
vt 0.892807 1.572170
vt 0.902873 1.579090
vt 0.878697 1.579200
vt 0.878706 1.598650
vt 0.867074 1.588850
vt 0.864298 1.605870
vt 0.854895 1.598540
vt 0.942836 1.688280
vt 0.925981 1.687570
vt 0.932393 1.663220
vt 0.931614 1.703000
vt 0.950544 1.707500
vt 0.935048 1.721110
vt 0.949869 1.728950
vt 0.932197 1.741460
vt 0.941407 1.637780
vt 0.958234 1.637300
vt 0.951842 1.662670
vt 0.950401 1.612310
vt 0.930973 1.612870
vt 0.939936 1.586060
vt 0.924215 1.586500
vt 0.931041 1.555250
vt 0.934771 1.405330
vt 0.937681 1.430510
vt 0.935492 1.430570
vt 0.938616 1.453610
vt 0.813150 1.692140
vt 0.829782 1.689290
vt 0.825156 1.706020
vt 0.819211 1.680860
vt 0.806507 1.682900
vt 0.879823 1.755120
vt 0.880297 1.771790
vt 0.860729 1.762800
vt 0.899322 1.761710
vt 0.893755 1.743060
vt 0.911992 1.745510
vt 0.903151 1.731000
vt 0.918053 1.728100
vt 0.920217 1.712930
vt 0.948917 1.519940
vt 0.947052 1.554790
vt 0.938056 1.520240
vt 0.941958 1.491940
vt 0.932540 1.492210
vt 0.936550 1.467580
vt 0.930860 1.467740
vt 0.933686 1.453750
vt 0.822757 1.724300
vt 0.808404 1.732970
vt 0.806512 1.711590
vt 0.826759 1.744460
vt 0.840121 1.730320
vt 0.847161 1.747350
vt 0.855163 1.732360
vt 0.865229 1.743880
s 1
usemtl Meshpart1Mtl.002
f 1/1/1 2/2/2 3/3/3
f 2/2/2 1/1/1 4/4/4
f 4/4/4 1/1/1 5/5/5
f 5/5/5 6/6/6 4/4/4
f 8/7/7 7/8/8 9/9/9
f 9/9/9 10/10/10 8/7/7
f 11/11/11 10/10/10 9/9/9
f 10/10/10 11/11/11 12/12/12
f 13/13/13 12/12/12 11/11/11
f 12/12/12 13/13/13 14/14/14
f 3/3/3 17/15/15 16/16/16
f 17/15/15 3/3/3 2/2/2
f 19/17/17 18/18/18 20/19/19
f 19/17/20 21/20/21 22/21/22
f 23/22/23 22/21/22 21/20/21
f 22/21/22 23/22/23 24/23/24
f 25/24/25 27/25/26 26/26/27
f 27/25/26 28/27/28 26/26/27
f 27/25/26 29/28/29 28/27/28
f 29/28/29 15/29/30 28/27/28
f 30/30/31 31/31/32 32/32/33
f 31/31/32 33/33/34 32/32/33
f 34/34/35 33/33/34 31/31/32
f 35/35/36 30/30/31 32/32/33
f 30/30/31 35/35/36 36/36/37
f 37/37/38 39/38/39 38/39/40
f 40/40/41 38/39/40 39/38/39
f 41/41/42 40/40/41 39/38/39
f 40/40/41 41/41/42 42/42/43
f 45/43/44 44/44/45 43/45/46
f 44/44/45 45/43/44 46/46/47
f 46/46/47 45/43/44 47/47/48
f 48/48/49 46/46/47 47/47/48
f 49/49/50 48/48/49 47/47/48
f 48/48/49 49/49/50 50/50/51
f 53/51/52 52/52/53 51/53/54
f 52/52/53 53/51/52 54/54/55
f 55/55/56 54/54/55 53/51/52
f 54/54/55 55/55/56 56/56/57
f 57/57/58 56/56/57 55/55/56
f 56/56/57 57/57/58 58/58/59
f 59/59/60 58/58/59 57/57/58
f 60/60/61 62/61/62 61/62/14
f 63/63/63 61/62/14 62/61/62
f 62/61/62 64/64/64 63/63/63
f 65/65/65 63/63/63 64/64/64
f 65/65/65 64/64/64 66/66/66
f 66/66/66 67/67/67 65/65/65
f 68/68/68 70/69/69 69/70/70
f 71/71/71 69/70/70 70/69/69
f 72/72/72 71/71/71 70/69/69
f 71/71/71 72/72/72 73/73/73
f 74/74/74 73/73/73 72/72/72
f 73/73/73 74/74/74 75/75/75
f 78/76/76 77/77/77 76/78/78
f 77/77/77 78/76/76 79/79/79
f 80/80/80 79/79/79 78/76/76
f 79/79/79 80/80/80 81/81/81
f 82/82/82 81/81/81 80/80/80
f 81/81/81 82/82/82 83/83/83
f 86/84/84 85/85/85 84/86/86
f 85/85/85 86/84/84 87/87/87
f 88/88/88 87/87/87 86/84/84
f 87/87/87 88/88/88 89/89/89
f 90/90/90 89/89/89 88/88/88
f 89/89/89 90/90/90 91/91/91
f 94/92/92 93/93/93 92/94/94
f 93/93/93 94/92/92 95/95/95
f 96/96/96 95/95/95 94/92/92
f 95/95/95 96/96/96 97/97/97
f 98/98/98 97/97/97 96/96/96
f 97/97/97 98/98/98 99/99/99
f 102/100/100 101/101/101 100/102/102
f 101/101/101 102/100/100 103/103/103
f 104/104/104 105/105/105 106/106/106
f 107/107/107 108/108/108 109/109/109
f 110/110/110 107/107/107 109/109/109
f 111/111/111 110/110/110 109/109/109
f 110/110/110 111/111/111 112/112/112
f 114/113/113 113/114/114 115/115/115
f 115/115/115 116/116/116 114/113/113
f 115/115/115 117/117/117 116/116/116
f 118/118/118 116/116/116 117/117/117
f 117/117/117 119/119/119 118/118/118
f 120/120/120 118/118/118 119/119/119
f 106/106/106 105/105/105 121/121/121
f 106/106/106 121/121/121 122/122/122
f 125/123/123 124/124/124 123/125/125
f 124/124/124 125/123/123 126/126/126
f 126/126/126 125/123/123 127/127/127
f 128/128/128 126/126/126 127/127/127
f 128/128/128 127/127/127 129/129/129
f 129/129/129 130/130/130 128/128/128
f 108/108/108 132/131/131 131/132/132
f 132/131/131 108/108/108 107/107/107
f 133/133/133 135/134/134 134/135/135
f 136/136/105 134/135/135 135/134/134
f 137/137/136 138/138/137 139/139/138
f 140/140/139 141/141/140 139/139/138
f 141/141/140 140/140/139 142/142/141
f 145/143/21 143/144/17 144/145/142
f 146/146/34 147/147/143 139/139/144
f 150/148/145 149/149/146 148/150/147
f 150/148/145 151/151/148 149/149/146
f 152/152/149 151/151/148 150/148/145
f 151/151/148 152/152/149 153/153/150
f 154/154/151 153/153/150 152/152/149
f 153/153/150 154/154/151 155/155/152
f 158/156/153 157/157/6 156/158/154
f 157/157/6 158/156/153 159/159/155
f 160/160/156 159/159/155 158/156/153
f 159/159/155 160/160/156 161/161/157
f 162/162/158 161/161/157 160/160/156
f 161/161/157 162/162/158 163/163/159
f 166/164/160 165/165/161 164/166/162
f 165/165/161 166/164/160 167/167/163
f 168/168/164 167/167/163 166/164/160
f 167/167/163 168/168/164 169/169/165
f 170/170/166 169/169/165 168/168/164
f 169/169/165 170/170/166 171/171/7
f 172/172/167 173/173/114 174/174/168
f 175/175/113 174/174/168 173/173/114
f 178/176/169 177/177/170 176/178/171
f 177/177/170 178/176/169 179/179/172
f 180/180/173 179/179/172 178/176/169
f 183/181/174 182/182/175 181/183/176
f 182/182/175 183/181/174 184/184/177
f 185/185/178 184/184/177 183/181/174
f 184/184/177 185/185/178 186/186/179
f 187/187/180 186/186/179 185/185/178
f 186/186/179 187/187/180 188/188/181
f 187/187/180 189/189/182 188/188/181
f 191/190/183 190/191/184 192/192/185
f 192/192/185 193/193/186 191/190/183
f 193/193/186 192/192/185 194/194/187
f 194/194/187 195/195/188 193/193/186
f 195/195/188 194/194/187 196/196/189
f 196/196/189 197/197/190 195/195/188
f 200/198/191 199/199/192 198/200/193
f 199/199/192 200/198/191 201/201/194
f 202/202/195 201/201/194 200/198/191
f 201/201/194 202/202/195 203/203/196
f 204/204/197 203/203/196 202/202/195
f 203/203/196 204/204/197 205/205/198
