# Blender 5.1.2
# www.blender.org
mtllib candycanedef2.mtl
o cane2
v 0.063715 -0.384829 0.021546
v 0.068429 -0.385492 -0.031842
v 0.101353 -0.325108 -0.002807
v 0.043755 -0.451194 -0.006262
v 0.015451 -0.439228 0.037689
v 0.007169 -0.508284 0.018150
v 0.120251 -0.254063 0.023019
v 0.135444 -0.167200 0.036513
v 0.158785 -0.176740 0.000328
v 0.184244 -0.083681 0.018749
v 0.187287 -0.084109 -0.015712
v 0.214427 -0.011443 0.003102
v 0.204621 -0.006586 -0.020372
v 0.233942 0.053955 -0.005092
v 0.290229 0.216381 0.006861
v 0.124644 -0.254681 -0.026735
v 0.081238 -0.314282 -0.051262
v 0.018380 -0.643002 0.018652
v -0.005396 -0.578829 0.016676
v 0.011521 -0.609713 -0.008783
v -0.000361 -0.578486 -0.036697
v 0.005430 -0.545235 -0.009094
v -0.016552 -0.540756 -0.057773
v 0.012044 -0.508619 -0.035194
v 0.232349 0.054179 0.012943
v 0.240002 0.092727 0.015832
v 0.247168 0.089641 0.004708
v 0.266516 0.150883 0.009129
v 0.267130 0.150797 0.002167
v 0.306378 -0.714074 0.018553
v 0.331544 -0.665118 -0.005816
v 0.326513 -0.665450 0.047523
v 0.331345 -0.634143 0.020710
v 0.319292 -0.624461 -0.011209
v 0.281450 -0.697351 0.062873
v 0.255526 -0.749680 0.040531
v -0.088477 -0.647101 -0.018304
v -0.056913 -0.696731 0.011402
v -0.051879 -0.696400 -0.041971
v -0.019121 -0.745147 -0.012172
v 0.002235 -0.724162 -0.056675
v 0.037482 -0.770830 -0.033842
v 0.260554 -0.749348 -0.012807
v 0.203897 -0.758412 -0.037856
v 0.208850 -0.783796 0.009120
v 0.151866 -0.790035 -0.023179
v 0.146831 -0.790377 0.030194
v 0.089705 -0.795207 -0.002134
v 0.089822 -0.768807 0.044587
v 0.032497 -0.770829 0.019497
v 0.002235 -0.724162 -0.056675
v 0.037482 -0.770830 -0.033842
v 0.059228 -0.728352 -0.058565
v 0.098479 -0.768634 -0.047796
v 0.107374 -0.715651 -0.046774
v 0.149982 -0.743886 -0.050097
v 0.143116 -0.697727 -0.023645
v 0.185280 -0.708172 -0.039422
v 0.206951 -0.674023 -0.017572
v 0.204621 -0.006586 -0.020372
v 0.233942 0.053955 -0.005092
v 0.220556 0.060355 -0.015417
v 0.242069 0.092437 -0.007588
v 0.229760 0.097997 -0.008756
v 0.261968 0.153262 -0.001801
v 0.256192 0.155814 0.001159
v 0.290229 0.216381 0.006861
v 0.181148 0.004362 -0.022573
v 0.133067 -0.059101 -0.020817
v 0.161697 -0.071824 -0.035496
v 0.102243 -0.149676 -0.043361
v 0.142162 -0.168145 -0.039574
v 0.087674 -0.236966 -0.055311
v 0.124644 -0.254681 -0.026735
v 0.081238 -0.314282 -0.051262
v 0.289393 -0.605650 -0.013959
v 0.253234 -0.615867 -0.012992
v 0.294880 -0.640498 -0.036073
v 0.249007 -0.662896 -0.033278
v 0.290157 -0.696846 -0.029543
v 0.236265 -0.711519 -0.041842
v 0.260554 -0.749348 -0.012807
v 0.203897 -0.758412 -0.037856
v -0.016552 -0.540756 -0.057773
v 0.012044 -0.508619 -0.035194
v -0.028675 -0.492118 -0.065912
v 0.023568 -0.440708 -0.054790
v -0.024923 -0.418256 -0.059334
v 0.028793 -0.366363 -0.062464
v -0.015601 -0.346905 -0.039732
v 0.032758 -0.292170 -0.055837
v 0.036200 -0.683052 -0.053337
v 0.023411 -0.642669 -0.034686
v -0.011717 -0.669369 -0.065013
v -0.009152 -0.618965 -0.057353
v -0.059150 -0.637665 -0.062116
v -0.043860 -0.582802 -0.067679
v -0.092386 -0.587461 -0.045356
v -0.069130 -0.531627 -0.062682
v -0.097369 -0.587449 0.007982
v -0.067807 -0.637838 0.030266
v -0.088477 -0.647101 -0.018304
v -0.056913 -0.696731 0.011402
v 0.206951 -0.674023 -0.017572
v 0.201965 -0.674012 0.035800
v 0.224122 -0.645841 0.011078
v -0.074318 -0.475625 -0.043286
v -0.099826 -0.527662 -0.018909
v -0.079199 -0.475289 0.010092
v -0.053270 -0.406623 -0.015416
v -0.033083 -0.417109 0.033110
v -0.020313 -0.346243 0.013622
v 0.255581 0.155899 0.008086
v 0.227690 0.098288 0.014697
v 0.222594 0.101083 0.002371
v 0.203997 0.067202 0.010260
v 0.205584 0.066979 -0.007741
v 0.167437 0.010109 -0.001300
v 0.181148 0.004362 -0.022573
v 0.133067 -0.059101 -0.020817
v 0.240346 -0.663069 0.059137
v 0.248253 -0.615867 0.040347
v -0.015601 -0.346905 -0.039732
v 0.032758 -0.292170 -0.055837
v 0.004440 -0.280552 -0.011951
v 0.046307 -0.218645 -0.034132
v 0.041912 -0.218027 0.015654
v 0.078901 -0.140137 -0.007176
v 0.095525 -0.148732 0.032761
v 0.130027 -0.058674 0.013644
v -0.092386 -0.587461 -0.045356
v -0.069130 -0.531627 -0.062682
v 0.143116 -0.697727 -0.023645
v 0.206951 -0.674023 -0.017572
v 0.171621 -0.683306 0.005984
v 0.201965 -0.674012 0.035800
v 0.283648 -0.605893 0.047162
v 0.313552 -0.624694 0.049876
v 0.308297 -0.600319 0.018370
v 0.289393 -0.605650 -0.013959
v 0.271549 -0.596544 0.015243
v 0.253234 -0.615867 -0.012992
v -0.005396 -0.578829 0.016676
v 0.011521 -0.609713 -0.008783
v -0.000361 -0.578486 -0.036697
v 0.331345 -0.634143 0.020710
v 0.319292 -0.624461 -0.011209
v 0.138084 -0.698060 0.029694
v 0.098669 -0.716168 0.045643
v 0.107443 -0.689584 -0.000053
v 0.070915 -0.686541 0.023423
v 0.075943 -0.686208 -0.029916
v 0.048854 -0.662583 -0.005458
v 0.036200 -0.683052 -0.053337
v 0.023411 -0.642669 -0.034686
v 0.015451 -0.439228 0.037689
v 0.007169 -0.508284 0.018150
v -0.038432 -0.491447 0.040810
v -0.025212 -0.540929 0.034643
v -0.077838 -0.532143 0.029734
v -0.053873 -0.583134 0.038998
v -0.097369 -0.587449 0.007982
v -0.067807 -0.637838 0.030266
v -0.033083 -0.417109 0.033110
v -0.020313 -0.346243 0.013622
v 0.019371 -0.365039 0.044278
v 0.024604 -0.291024 0.036504
v 0.073084 -0.313136 0.041076
v 0.078886 -0.235731 0.044230
v 0.120251 -0.254063 0.023019
v 0.135444 -0.167200 0.036513
v 0.290229 0.216381 0.006861
v 0.255581 0.155899 0.008086
v 0.260740 0.153435 0.012088
v 0.227690 0.098288 0.014697
v 0.240346 -0.663069 0.059137
v 0.248253 -0.615867 0.040347
v 0.284869 -0.640820 0.070604
v 0.283648 -0.605893 0.047162
v 0.313552 -0.624694 0.049876
v 0.089822 -0.768807 0.044587
v 0.032497 -0.770829 0.019497
v 0.049212 -0.728685 0.048146
v -0.006467 -0.724679 0.035707
v 0.027540 -0.683224 0.039079
v -0.021782 -0.670033 0.041695
v 0.018380 -0.643002 0.018652
v -0.017809 -0.619138 0.035063
v -0.005396 -0.578829 0.016676
v 0.095525 -0.148732 0.032761
v 0.130027 -0.058674 0.013644
v 0.155613 -0.070969 0.033427
v 0.177200 0.004917 0.022174
v 0.200666 -0.006030 0.024409
v 0.217379 0.060802 0.020585
v 0.232349 0.054179 0.012943
v 0.240002 0.092727 0.015832
v 0.281450 -0.697351 0.062873
v 0.255526 -0.749680 0.040531
v 0.226252 -0.711851 0.064835
v 0.195191 -0.758929 0.054526
v 0.176571 -0.708688 0.052994
v 0.139967 -0.744219 0.056612
v 0.138084 -0.698060 0.029694
v 0.098669 -0.716168 0.045643
vn 0.887800 -0.410500 0.208100
vn 0.912800 -0.406900 -0.034600
vn 0.875000 -0.368700 -0.313700
vn 0.799700 -0.374700 0.469000
vn 0.670700 -0.316900 0.670600
vn 0.485000 -0.227400 0.844400
vn 0.720700 -0.260300 0.642500
vn 0.473800 -0.169800 0.864100
vn 0.803500 -0.287000 0.521600
vn 0.936000 -0.315200 0.156400
vn 0.948300 -0.315800 0.030800
vn 0.893600 -0.276600 -0.353600
vn 0.850400 -0.254600 -0.460400
vn 0.616800 -0.134400 -0.775600
vn 0.794500 -0.310900 -0.521600
vn 0.628200 -0.207700 -0.749800
vn 0.930500 0.186800 0.315000
vn 0.512000 0.300400 0.804800
vn 0.896800 0.222800 0.382200
vn 0.930500 0.186700 0.315000
vn 0.990800 -0.012200 -0.135100
vn 0.975400 -0.049900 -0.214500
vn 0.779400 -0.173100 -0.602200
vn 0.688200 -0.183900 -0.701800
vn 0.464600 -0.113000 0.878300
vn 0.792900 -0.254400 0.553700
vn 0.742400 -0.231700 0.628600
vn 0.939400 -0.322400 0.116900
vn 0.942600 -0.322900 0.085600
vn 0.412700 0.910600 0.024600
vn 0.746600 -0.503300 0.435100
vn 0.996400 -0.084300 -0.007700
vn 0.879400 -0.402000 0.255000
vn 0.984600 0.139300 -0.105700
vn 0.889900 0.399600 -0.220200
vn 0.511400 -0.532600 0.674400
vn 0.339900 -0.468100 0.815700
vn -0.871100 -0.394300 0.292700
vn -0.752100 -0.622900 -0.215100
vn -0.850500 -0.522600 0.058700
vn -0.608100 -0.665000 -0.433500
vn -0.413100 -0.626400 -0.661000
vn -0.242100 -0.530300 -0.812500
vn 0.288700 -0.890700 -0.351100
vn 0.365900 -0.718800 -0.591200
vn 0.372600 -0.545100 -0.751000
vn 0.169300 -0.976800 -0.131300
vn 0.016300 -0.990000 0.140100
vn -0.113900 -0.926500 0.358700
vn -0.224700 -0.770000 0.597100
vn -0.269900 -0.596300 0.756000
vn -0.058500 -0.326300 -0.943400
vn -0.242000 -0.530200 -0.812600
vn -0.413100 -0.626400 -0.661100
vn 0.018100 -0.152900 -0.988100
vn 0.072300 0.180100 -0.981000
vn 0.057200 0.327200 -0.943200
vn -0.081400 0.647400 -0.757800
vn -0.143000 0.713100 -0.686300
vn -0.455400 0.850600 -0.263000
vn 0.850400 -0.254500 -0.460400
vn 0.530900 -0.090500 -0.842600
vn 0.198300 0.059400 -0.978300
vn 0.116700 0.095100 -0.988600
vn -0.303200 0.272800 -0.913000
vn -0.333900 0.284600 -0.898600
vn 0.412700 0.910500 0.024900
vn -0.647900 0.440200 -0.621600
vn -0.272000 0.260500 -0.926400
vn -0.372900 0.314500 -0.872900
vn 0.068900 0.093900 -0.993200
vn 0.202100 0.027300 -0.979000
vn 0.487700 -0.132000 -0.863000
vn 0.628100 -0.207600 -0.749900
vn 0.794500 -0.310900 -0.521700
vn -0.107200 0.294600 -0.949600
vn -0.178700 0.653700 -0.735400
vn -0.139000 0.789500 -0.597800
vn -0.010700 0.152200 -0.988300
vn 0.186600 -0.137800 -0.972700
vn 0.295300 -0.287900 -0.911000
vn 0.372600 -0.545000 -0.751100
vn 0.365900 -0.718700 -0.591300
vn 0.434000 -0.148700 -0.888500
vn 0.688000 -0.183900 -0.702000
vn 0.779200 -0.173100 -0.602400
vn 0.197800 -0.059600 -0.978400
vn -0.018800 0.034400 -0.999200
vn -0.270500 0.149400 -0.951100
vn -0.470500 0.248200 -0.846800
vn -0.663800 0.341100 -0.665700
vn 0.355700 0.189400 -0.915200
vn 0.548900 0.455500 -0.700900
vn 0.570600 0.534300 -0.623600
vn 0.235100 0.101800 -0.966600
vn -0.074000 -0.013500 -0.997200
vn -0.270300 -0.033500 -0.962200
vn -0.546300 0.013200 -0.837500
vn -0.714100 0.092400 -0.693900
vn -0.871100 -0.394200 0.292800
vn -0.800600 -0.237500 0.550200
vn -0.682400 -0.127600 0.719800
vn -0.850600 -0.522600 0.058700
vn -0.455400 0.850500 -0.263100
vn -0.666600 0.726000 0.169100
vn -0.692700 0.677400 0.247700
vn -0.921200 0.311500 -0.233200
vn -0.867800 0.209700 -0.450500
vn -0.928400 0.369900 0.034000
vn -0.870600 0.377200 0.315900
vn -0.775900 0.340400 0.531200
vn -0.613800 0.261800 0.744800
vn -0.772000 0.458000 0.440800
vn -0.504600 0.325800 0.799500
vn -0.801600 0.478000 0.359000
vn -0.854300 0.519100 -0.024800
vn -0.843700 0.517500 -0.142800
vn -0.711100 0.466200 -0.526300
vn -0.647900 0.440300 -0.621600
vn -0.373000 0.314400 -0.872900
vn -0.602100 0.521500 0.604600
vn -0.517700 0.502500 0.692400
vn -0.780600 0.404500 -0.476400
vn -0.663700 0.341200 -0.665600
vn -0.470700 0.248400 -0.846600
vn -0.865700 0.462700 -0.191100
vn -0.881200 0.472800 0.004600
vn -0.820600 0.457500 0.342500
vn -0.762500 0.432600 0.481000
vn -0.533800 0.338500 0.774900
vn -0.714200 0.092400 -0.693800
vn -0.546400 0.013300 -0.837400
vn -0.081500 0.647300 -0.757900
vn -0.410800 0.846400 -0.338800
vn -0.455300 0.850600 -0.263000
vn 0.057200 0.617500 0.784500
vn 0.351300 0.655800 0.668200
vn 0.487300 0.872400 0.039500
vn -0.139000 0.789600 -0.597600
vn -0.069100 0.937700 -0.340600
vn -0.178600 0.653800 -0.735300
vn 0.896800 0.222900 0.382100
vn 0.889800 0.399800 -0.220200
vn 0.487300 0.872300 0.039500
vn 0.243300 0.913300 0.326600
vn 0.003000 0.732900 0.680400
vn -0.045900 0.656800 0.752600
vn 0.290200 0.921200 0.259000
vn 0.515100 0.838400 -0.178200
vn 0.540900 0.804100 -0.246700
vn 0.570800 0.534400 -0.623300
vn 0.549000 0.455500 -0.700800
vn 0.232600 -0.128300 0.964100
vn 0.670600 -0.316900 0.670700
vn 0.070500 -0.065500 0.995400
vn -0.263300 -0.018700 0.964500
vn -0.444200 -0.040900 0.895000
vn -0.682300 -0.127500 0.719900
vn -0.800600 -0.237400 0.550200
vn -0.434700 0.180100 0.882400
vn -0.613700 0.261800 0.744900
vn -0.775800 0.340300 0.531400
vn -0.186800 0.081900 0.979000
vn 0.023100 -0.003300 0.999700
vn 0.301800 -0.106300 0.947400
vn 0.473700 -0.169800 0.864200
vn 0.412700 0.910500 0.024500
vn -0.483500 0.314700 0.816800
vn -0.137100 0.559000 0.817700
vn -0.517600 0.502400 0.692600
vn -0.602000 0.521400 0.604800
vn 0.057200 0.617400 0.784600
vn 0.351200 0.655700 0.668400
vn -0.238600 -0.331000 0.913000
vn -0.269900 -0.596200 0.756100
vn -0.224800 -0.769900 0.597300
vn -0.164200 -0.159400 0.973500
vn 0.053700 0.096100 0.993900
vn 0.171400 0.182400 0.968200
vn 0.511900 0.300500 0.804800
vn 0.601800 0.305800 0.737800
vn 0.930600 0.186900 0.314900
vn -0.533700 0.338500 0.775000
vn -0.762500 0.432700 0.481000
vn -0.440100 0.291900 0.849200
vn -0.099100 0.141100 0.985000
vn -0.002600 0.095900 0.995400
vn 0.371500 -0.068200 0.925900
vn 0.464500 -0.112900 0.878400
vn 0.742400 -0.231600 0.628700
vn 0.122300 -0.295700 0.947400
vn 0.339800 -0.468100 0.815700
vn 0.511200 -0.532500 0.674600
vn 0.004100 -0.143600 0.989600
vn -0.109900 0.174800 0.978400
vn -0.118000 0.318200 0.940600
vn -0.045900 0.656700 0.752800
vn 0.002900 0.732600 0.680600
vt 0.889340 1.638260
vt 0.869883 1.638260
vt 0.879616 1.613140
vt 0.879616 1.663500
vt 0.896450 1.663220
vt 0.889345 1.687570
vt 0.893468 1.555250
vt 0.888680 1.586500
vt 0.879610 1.555480
vt 0.885881 1.520550
vt 0.873322 1.520550
vt 0.879599 1.492350
vt 0.871431 1.492210
vt 0.876309 1.467740
vt 0.862767 1.612870
vt 0.870539 1.586510
vt 0.888891 1.712930
vt 0.888584 1.731000
vt 0.879022 1.721130
vt 0.869437 1.712590
vt 0.879378 1.700450
vt 0.862486 1.702410
vt 0.869888 1.687400
vt 0.882875 1.467740
vt 0.879591 1.453820
vt 0.883858 1.453750
vt 0.880852 1.430630
vt 0.878321 1.430630
vt 0.879583 1.405330
vt 0.879202 1.714080
vt 0.869817 1.694300
vt 0.889271 1.694640
vt 0.879553 1.683730
vt 0.868427 1.682510
vt 0.896094 1.711590
vt 0.888597 1.732970
vt 0.939260 1.589130
vt 0.920814 1.599050
vt 0.920823 1.579600
vt 0.902098 1.589510
vt 0.899305 1.606190
vt 0.880287 1.599240
vt 0.820069 1.589130
vt 0.826742 1.605860
vt 0.808394 1.598530
vt 0.839139 1.599050
vt 0.839148 1.579600
vt 0.858470 1.589510
vt 0.860729 1.572500
vt 0.880297 1.579790
vt 0.878233 1.754440
vt 0.877749 1.771450
vt 0.858731 1.761120
vt 0.897324 1.762210
vt 0.892824 1.743290
vt 0.910895 1.746670
vt 0.902883 1.732020
vt 0.917932 1.729730
vt 0.920946 1.714960
vt 0.825525 1.492210
vt 0.821509 1.467580
vt 0.827187 1.467740
vt 0.824365 1.453750
vt 0.819435 1.453610
vt 0.822553 1.430570
vt 0.820359 1.430510
vt 0.823266 1.405330
vt 0.816107 1.491940
vt 0.820023 1.520250
vt 0.809141 1.519940
vt 0.811032 1.554800
vt 0.827043 1.555250
vt 0.818163 1.586060
vt 0.833852 1.586510
vt 0.827122 1.612870
vt 0.944905 1.691460
vt 0.928264 1.688950
vt 0.938837 1.680470
vt 0.932897 1.705430
vt 0.951540 1.711000
vt 0.935299 1.723620
vt 0.949642 1.732630
vt 0.931295 1.743870
vt 0.815266 1.687940
vt 0.832088 1.687400
vt 0.826439 1.702410
vt 0.825702 1.663230
vt 0.806252 1.662670
vt 0.816696 1.637780
vt 0.799836 1.637310
vt 0.807693 1.612320
vt 0.846064 1.744830
vt 0.854895 1.730660
vt 0.864298 1.742480
vt 0.840000 1.727510
vt 0.825856 1.740870
vt 0.823008 1.720430
vt 0.808177 1.728610
vt 0.807509 1.706910
vt 0.879494 1.747850
vt 0.862526 1.741460
vt 0.869440 1.728950
vt 0.869961 1.759690
vt 0.888600 1.714960
vt 0.869145 1.715300
vt 0.878659 1.702940
vt 0.888216 1.688650
vt 0.878834 1.709450
vt 0.868759 1.688820
vt 0.878487 1.662400
vt 0.861620 1.662670
vt 0.868754 1.637300
vt 0.874187 1.453610
vt 0.877192 1.430510
vt 0.878462 1.453540
vt 0.875180 1.467420
vt 0.881747 1.467420
vt 0.878470 1.491810
vt 0.886621 1.491940
vt 0.884752 1.519940
vt 0.861855 1.706020
vt 0.868688 1.689290
vt 0.878487 1.612040
vt 0.895303 1.612320
vt 0.888211 1.637310
vt 0.887551 1.585610
vt 0.869410 1.585610
vt 0.878481 1.554570
vt 0.864596 1.554790
vt 0.872193 1.519940
vt 0.895639 1.706910
vt 0.888894 1.728610
vt 0.902883 1.598540
vt 0.911243 1.588650
vt 0.920946 1.598230
vt 0.920937 1.578780
vt 0.938826 1.576930
vt 0.951529 1.576960
vt 0.945353 1.588090
vt 0.938837 1.599210
vt 0.932479 1.588060
vt 0.928264 1.597780
vt 0.837829 1.598230
vt 0.837820 1.578780
vt 0.847063 1.588650
vt 0.957887 1.588120
vt 0.951540 1.599240
vt 0.890565 1.588850
vt 0.892807 1.572170
vt 0.902873 1.579090
vt 0.878697 1.579200
vt 0.878706 1.598650
vt 0.867074 1.588850
vt 0.864298 1.605870
vt 0.854895 1.598540
vt 0.942836 1.688280
vt 0.925981 1.687570
vt 0.932393 1.663220
vt 0.931614 1.703000
vt 0.950544 1.707500
vt 0.935048 1.721110
vt 0.949869 1.728950
vt 0.932197 1.741460
vt 0.941407 1.637780
vt 0.958234 1.637300
vt 0.951842 1.662670
vt 0.950401 1.612310
vt 0.930973 1.612870
vt 0.939936 1.586060
vt 0.924215 1.586500
vt 0.931041 1.555250
vt 0.934771 1.405330
vt 0.937681 1.430510
vt 0.935492 1.430570
vt 0.938616 1.453610
vt 0.813150 1.692140
vt 0.829782 1.689290
vt 0.825156 1.706020
vt 0.819211 1.680860
vt 0.806507 1.682900
vt 0.879823 1.755120
vt 0.880297 1.771790
vt 0.860729 1.762800
vt 0.899322 1.761710
vt 0.893755 1.743060
vt 0.911992 1.745510
vt 0.903151 1.731000
vt 0.918053 1.728100
vt 0.920217 1.712930
vt 0.948917 1.519940
vt 0.947052 1.554790
vt 0.938056 1.520240
vt 0.941958 1.491940
vt 0.932540 1.492210
vt 0.936550 1.467580
vt 0.930860 1.467740
vt 0.933686 1.453750
vt 0.822757 1.724300
vt 0.808404 1.732970
vt 0.806512 1.711590
vt 0.826759 1.744460
vt 0.840121 1.730320
vt 0.847161 1.747350
vt 0.855163 1.732360
vt 0.865229 1.743880
s 1
usemtl Meshpart1Mtl.002
f 1/1/1 2/2/2 3/3/3
f 2/2/2 1/1/1 4/4/4
f 4/4/4 1/1/1 5/5/5
f 5/5/5 6/6/6 4/4/4
f 8/7/7 7/8/8 9/9/9
f 9/9/9 10/10/10 8/7/7
f 11/11/11 10/10/10 9/9/9
f 10/10/10 11/11/11 12/12/12
f 13/13/13 12/12/12 11/11/11
f 12/12/12 13/13/13 14/14/14
f 3/3/3 17/15/15 16/16/16
f 17/15/15 3/3/3 2/2/2
f 19/17/17 18/18/18 20/19/19
f 19/17/20 21/20/21 22/21/22
f 23/22/23 22/21/22 21/20/21
f 22/21/22 23/22/23 24/23/24
f 25/24/25 27/25/26 26/26/27
f 27/25/26 28/27/28 26/26/27
f 27/25/26 29/28/29 28/27/28
f 29/28/29 15/29/30 28/27/28
f 30/30/31 31/31/32 32/32/33
f 31/31/32 33/33/34 32/32/33
f 34/34/35 33/33/34 31/31/32
f 35/35/36 30/30/31 32/32/33
f 30/30/31 35/35/36 36/36/37
f 37/37/38 39/38/39 38/39/40
f 40/40/41 38/39/40 39/38/39
f 41/41/42 40/40/41 39/38/39
f 40/40/41 41/41/42 42/42/43
f 45/43/44 44/44/45 43/45/46
f 44/44/45 45/43/44 46/46/47
f 46/46/47 45/43/44 47/47/48
f 48/48/49 46/46/47 47/47/48
f 49/49/50 48/48/49 47/47/48
f 48/48/49 49/49/50 50/50/51
f 53/51/52 52/52/53 51/53/54
f 52/52/53 53/51/52 54/54/55
f 55/55/56 54/54/55 53/51/52
f 54/54/55 55/55/56 56/56/57
f 57/57/58 56/56/57 55/55/56
f 56/56/57 57/57/58 58/58/59
f 59/59/60 58/58/59 57/57/58
f 60/60/61 62/61/62 61/62/14
f 63/63/63 61/62/14 62/61/62
f 62/61/62 64/64/64 63/63/63
f 65/65/65 63/63/63 64/64/64
f 65/65/65 64/64/64 66/66/66
f 66/66/66 67/67/67 65/65/65
f 68/68/68 70/69/69 69/70/70
f 71/71/71 69/70/70 70/69/69
f 72/72/72 71/71/71 70/69/69
f 71/71/71 72/72/72 73/73/73
f 74/74/74 73/73/73 72/72/72
f 73/73/73 74/74/74 75/75/75
f 78/76/76 77/77/77 76/78/78
f 77/77/77 78/76/76 79/79/79
f 80/80/80 79/79/79 78/76/76
f 79/79/79 80/80/80 81/81/81
f 82/82/82 81/81/81 80/80/80
f 81/81/81 82/82/82 83/83/83
f 86/84/84 85/85/85 84/86/86
f 85/85/85 86/84/84 87/87/87
f 88/88/88 87/87/87 86/84/84
f 87/87/87 88/88/88 89/89/89
f 90/90/90 89/89/89 88/88/88
f 89/89/89 90/90/90 91/91/91
f 94/92/92 93/93/93 92/94/94
f 93/93/93 94/92/92 95/95/95
f 96/96/96 95/95/95 94/92/92
f 95/95/95 96/96/96 97/97/97
f 98/98/98 97/97/97 96/96/96
f 97/97/97 98/98/98 99/99/99
f 102/100/100 101/101/101 100/102/102
f 101/101/101 102/100/100 103/103/103
f 104/104/104 105/105/105 106/106/106
f 107/107/107 108/108/108 109/109/109
f 110/110/110 107/107/107 109/109/109
f 111/111/111 110/110/110 109/109/109
f 110/110/110 111/111/111 112/112/112
f 114/113/113 113/114/114 115/115/115
f 115/115/115 116/116/116 114/113/113
f 115/115/115 117/117/117 116/116/116
f 118/118/118 116/116/116 117/117/117
f 117/117/117 119/119/119 118/118/118
f 120/120/120 118/118/118 119/119/119
f 106/106/106 105/105/105 121/121/121
f 106/106/106 121/121/121 122/122/122
f 125/123/123 124/124/124 123/125/125
f 124/124/124 125/123/123 126/126/126
f 126/126/126 125/123/123 127/127/127
f 128/128/128 126/126/126 127/127/127
f 128/128/128 127/127/127 129/129/129
f 129/129/129 130/130/130 128/128/128
f 108/108/108 132/131/131 131/132/132
f 132/131/131 108/108/108 107/107/107
f 133/133/133 135/134/134 134/135/135
f 136/136/105 134/135/135 135/134/134
f 137/137/136 138/138/137 139/139/138
f 140/140/139 141/141/140 139/139/138
f 141/141/140 140/140/139 142/142/141
f 145/143/21 143/144/17 144/145/142
f 146/146/34 147/147/143 139/139/144
f 150/148/145 149/149/146 148/150/147
f 150/148/145 151/151/148 149/149/146
f 152/152/149 151/151/148 150/148/145
f 151/151/148 152/152/149 153/153/150
f 154/154/151 153/153/150 152/152/149
f 153/153/150 154/154/151 155/155/152
f 158/156/153 157/157/6 156/158/154
f 157/157/6 158/156/153 159/159/155
f 160/160/156 159/159/155 158/156/153
f 159/159/155 160/160/156 161/161/157
f 162/162/158 161/161/157 160/160/156
f 161/161/157 162/162/158 163/163/159
f 166/164/160 165/165/161 164/166/162
f 165/165/161 166/164/160 167/167/163
f 168/168/164 167/167/163 166/164/160
f 167/167/163 168/168/164 169/169/165
f 170/170/166 169/169/165 168/168/164
f 169/169/165 170/170/166 171/171/7
f 172/172/167 173/173/114 174/174/168
f 175/175/113 174/174/168 173/173/114
f 178/176/169 177/177/170 176/178/171
f 177/177/170 178/176/169 179/179/172
f 180/180/173 179/179/172 178/176/169
f 183/181/174 182/182/175 181/183/176
f 182/182/175 183/181/174 184/184/177
f 185/185/178 184/184/177 183/181/174
f 184/184/177 185/185/178 186/186/179
f 187/187/180 186/186/179 185/185/178
f 186/186/179 187/187/180 188/188/181
f 187/187/180 189/189/182 188/188/181
f 191/190/183 190/191/184 192/192/185
f 192/192/185 193/193/186 191/190/183
f 193/193/186 192/192/185 194/194/187
f 194/194/187 195/195/188 193/193/186
f 195/195/188 194/194/187 196/196/189
f 196/196/189 197/197/190 195/195/188
f 200/198/191 199/199/192 198/200/193
f 199/199/192 200/198/191 201/201/194
f 202/202/195 201/201/194 200/198/191
f 201/201/194 202/202/195 203/203/196
f 204/204/197 203/203/196 202/202/195
f 203/203/196 204/204/197 205/205/198
