# Blender 5.2.0 LTS
# www.blender.org
mtllib ppright.mtl
o 114195368565223
v -0.115302 0.027840 -0.096515
v -0.114231 0.053652 -0.088692
v -0.112164 0.047523 -0.076408
v -0.111943 0.038854 -0.102816
v -0.110966 0.049064 -0.099198
v -0.391328 0.148261 0.007688
v -0.372759 0.157060 0.007888
v -0.406571 0.154123 -0.009724
v -0.409958 0.130132 0.000591
v -0.390279 0.167423 -0.019001
v -0.352447 0.158940 -0.024987
v -0.430120 0.039048 -0.127418
v -0.401590 0.016175 -0.136201
v -0.417762 0.019090 -0.124421
v -0.430773 0.028419 -0.103434
v -0.415117 0.046048 -0.143138
v -0.375705 0.045289 -0.141223
v -0.424732 0.153132 -0.058995
v -0.423648 0.141310 -0.030766
v -0.393384 0.145942 -0.037747
v -0.706786 0.139573 -0.021671
v -0.410004 0.163233 -0.067921
v -0.362826 0.143563 -0.074069
v -0.169442 0.076958 -0.072527
v -0.166912 0.070173 -0.054828
v -0.152153 0.070191 -0.074435
v -0.176211 0.076613 -0.048524
v -0.179539 0.085235 -0.071477
v -0.150462 0.064649 -0.060007
v -0.129705 0.068849 -0.055182
v -0.132943 0.077325 -0.074608
v -0.117744 0.050754 -0.073270
v -0.120389 0.057778 -0.088118
v -0.114231 0.053652 -0.088692
v -0.112164 0.047523 -0.076408
v -0.437762 0.090107 -0.124990
v -0.409370 0.066439 -0.122966
v -0.440103 0.061562 -0.113883
v -0.714599 0.087045 -0.058276
v -0.424325 0.099912 -0.135046
v -0.373447 0.098330 -0.124325
v -0.417167 0.112533 -0.104116
v -0.437762 0.090107 -0.124990
v -0.433576 0.104965 -0.096598
v -0.714599 0.087045 -0.058276
v -0.424325 0.099912 -0.135046
v -0.373447 0.098330 -0.124325
v -0.428745 0.128303 -0.072106
v -0.424732 0.153132 -0.058995
v -0.410004 0.163233 -0.067921
v -0.706786 0.139573 -0.021671
v -0.411769 0.132674 -0.083029
v -0.362826 0.143563 -0.074069
v -0.404431 0.062559 -0.119797
v -0.430120 0.039048 -0.127418
v -0.419737 0.051346 -0.113012
v -0.430773 0.028419 -0.103434
v -0.415117 0.046048 -0.143138
v -0.375705 0.045289 -0.141223
v -0.387902 0.143331 -0.037188
v -0.406571 0.154123 -0.009724
v -0.390279 0.167423 -0.019001
v -0.352447 0.158940 -0.024987
v -0.401859 0.138714 -0.023658
v -0.409958 0.130132 0.000591
v -0.172512 0.069118 -0.089775
v -0.152153 0.070191 -0.074435
v -0.154872 0.063859 -0.088356
v -0.138895 0.069542 -0.091897
v -0.169442 0.076958 -0.072527
v -0.183570 0.074945 -0.094113
v -0.179539 0.085235 -0.071477
v -0.132943 0.077325 -0.074608
v -0.120389 0.057778 -0.088118
v -0.116248 0.051959 -0.101444
v -0.114231 0.053652 -0.088692
v -0.110966 0.049064 -0.099198
v -0.173766 0.035473 -0.090311
v -0.157026 0.049407 -0.093659
v -0.157309 0.036709 -0.088612
v -0.145324 0.034347 -0.090697
v -0.174326 0.051214 -0.096438
v -0.185206 0.031073 -0.095093
v -0.185950 0.051447 -0.102857
v -0.144035 0.051348 -0.098178
v -0.121724 0.025790 -0.098772
v -0.117487 0.039009 -0.106032
v -0.111943 0.038854 -0.102816
v -0.115302 0.027840 -0.096515
v -0.150462 0.064649 -0.060007
v -0.145324 0.034347 -0.090697
v -0.117744 0.050754 -0.073270
v -0.129705 0.068849 -0.055182
v -0.112164 0.047523 -0.076408
v -0.115302 0.027840 -0.096515
v -0.121724 0.025790 -0.098772
v -0.157309 0.036709 -0.088612
v -0.173766 0.035473 -0.090311
v -0.166912 0.070173 -0.054828
v -0.185206 0.031073 -0.095093
v -0.176211 0.076613 -0.048524
v -0.174326 0.051214 -0.096438
v -0.172512 0.069118 -0.089775
v -0.157026 0.049407 -0.093659
v -0.183570 0.074945 -0.094113
v -0.185950 0.051447 -0.102857
v -0.154872 0.063859 -0.088356
v -0.144035 0.051348 -0.098178
v -0.138895 0.069542 -0.091897
v -0.116248 0.051959 -0.101444
v -0.117487 0.039009 -0.106032
v -0.111943 0.038854 -0.102816
v -0.110966 0.049064 -0.099198
v -0.427662 0.116482 -0.043876
v -0.393384 0.145942 -0.037747
v -0.423648 0.141310 -0.030766
v -0.706786 0.139573 -0.021671
v -0.395149 0.115383 -0.052855
v -0.362826 0.143563 -0.074069
v -0.386616 0.132851 -0.006245
v -0.372759 0.157060 0.007888
v -0.391328 0.148261 0.007688
v -0.409958 0.130132 0.000591
v -0.370382 0.132968 -0.010298
v -0.352447 0.158940 -0.024987
v -0.407380 0.031388 -0.110015
v -0.401590 0.016175 -0.136201
v -0.390904 0.032687 -0.112860
v -0.375705 0.045289 -0.141223
v -0.417762 0.019090 -0.124421
v -0.430773 0.028419 -0.103434
v -0.435916 0.076421 -0.085492
v -0.409370 0.066439 -0.122966
v -0.402212 0.079059 -0.092036
v -0.373447 0.098330 -0.124325
v -0.440103 0.061562 -0.113883
v -0.714599 0.087045 -0.058276
v -0.402212 0.079059 -0.092036
v -0.433576 0.104965 -0.096598
v -0.435916 0.076421 -0.085492
v -0.714599 0.087045 -0.058276
v -0.417167 0.112533 -0.104116
v -0.373447 0.098330 -0.124325
v -0.428745 0.128303 -0.072106
v -0.395149 0.115383 -0.052855
v -0.427662 0.116482 -0.043876
v -0.706786 0.139573 -0.021671
v -0.411769 0.132674 -0.083029
v -0.362826 0.143563 -0.074069
v -0.407380 0.031388 -0.110015
v -0.390904 0.032687 -0.112860
v -0.404431 0.062559 -0.119797
v -0.375705 0.045289 -0.141223
v -0.419737 0.051346 -0.113012
v -0.430773 0.028419 -0.103434
v -0.386616 0.132851 -0.006245
v -0.387902 0.143331 -0.037188
v -0.370382 0.132968 -0.010298
v -0.352447 0.158940 -0.024987
v -0.401859 0.138714 -0.023658
v -0.409958 0.130132 0.000591
vn 0.9945 -0.0735 0.0749
vn 0.9945 -0.0735 0.0746
vn 0.9945 -0.0734 0.0745
vn 0.9945 -0.0736 0.0750
vn 0.9945 -0.0735 0.0750
vn -0.5241 0.5642 0.6380
vn -0.2099 0.8533 0.4774
vn -0.4103 0.7066 0.5765
vn -0.6285 0.3801 0.6786
vn 0.0668 0.9432 0.3254
vn 0.2450 0.9475 0.2056
vn -0.6237 -0.4632 -0.6297
vn -0.4237 -0.3924 -0.8164
vn -0.7258 -0.5094 -0.4622
vn -0.8031 -0.5363 -0.2595
vn -0.1478 -0.2911 -0.9452
vn 0.0435 -0.2072 -0.9773
vn -0.0798 0.8915 0.4459
vn -0.0369 0.9084 0.4165
vn 0.0137 0.9002 0.4352
vn 0.0067 0.9225 0.3860
vn 0.2268 0.9052 0.3594
vn 0.4003 0.8727 0.2796
vn 0.5473 0.8050 0.2289
vn 0.5258 0.8166 0.2380
vn 0.0350 0.9291 0.3681
vn 0.6380 0.7460 0.1909
vn 0.6380 0.7460 0.1910
vn 0.0575 0.9293 0.3648
vn 0.3001 0.8965 0.3258
vn 0.4481 0.8478 0.2838
vn 0.7485 0.6403 0.1725
vn 0.7707 0.6177 0.1565
vn 0.5713 0.7732 0.2752
vn -0.2451 -0.3715 -0.8955
vn -0.1399 -0.3578 -0.9233
vn -0.2295 -0.3526 -0.9072
vn -0.2169 -0.3385 -0.9156
vn 0.0445 -0.3058 -0.9511
vn 0.1917 -0.2563 -0.9474
vn -0.3025 0.8929 -0.3336
vn -0.3808 0.8550 -0.3522
vn -0.2637 0.8783 -0.3988
vn -0.1175 0.8869 -0.4468
vn -0.1532 0.9184 -0.3647
vn 0.1121 0.9107 -0.3975
vn -0.2940 0.4712 -0.8316
vn -0.3941 0.4590 -0.7963
vn -0.1921 0.4560 -0.8690
vn -0.1377 0.4798 -0.8665
vn -0.2987 0.4536 -0.8397
vn 0.0663 0.4391 -0.8960
vn -0.2949 0.8428 -0.4503
vn -0.7309 0.6784 -0.0746
vn -0.7435 0.6666 -0.0535
vn -0.8498 0.4901 0.1941
vn -0.1978 0.8439 -0.4988
vn 0.0442 0.8059 -0.5904
vn -0.3230 0.5439 -0.7745
vn -0.8257 0.2312 -0.5145
vn -0.2607 0.5605 -0.7860
vn 0.0090 0.6030 -0.7977
vn -0.8158 0.2445 -0.5241
vn -0.9482 -0.0027 -0.3177
vn 0.4426 0.7837 -0.4358
vn 0.0034 0.9162 -0.4006
vn -0.0024 0.9164 -0.4002
vn 0.1737 0.9088 -0.3792
vn 0.3983 0.8057 -0.4384
vn 0.5469 0.7212 -0.4252
vn 0.0224 0.9294 -0.3683
vn 0.5465 0.7828 -0.2977
vn 0.5456 0.7878 -0.2857
vn 0.5336 0.8233 -0.1937
vn 0.2972 -0.3384 -0.8929
vn -0.0807 -0.3698 -0.9256
vn -0.0574 -0.3696 -0.9274
vn -0.3248 -0.3542 -0.8770
vn 0.3387 -0.3308 -0.8808
vn 0.4598 -0.3046 -0.8341
vn 0.4598 -0.3046 -0.8342
vn -0.3483 -0.3495 -0.8698
vn -0.0498 -0.4726 -0.8799
vn -0.1226 -0.4512 -0.8840
vn 0.4189 -0.5403 -0.7298
vn -0.0187 -0.7130 0.7009
vn -0.0186 -0.7130 0.7009
vn -0.0188 -0.7130 0.7009
vn 0.2978 0.3032 -0.9052
vn 0.3562 0.2922 -0.8875
vn -0.0311 0.3574 -0.9334
vn 0.4701 0.2656 -0.8417
vn -0.0909 0.3651 -0.9265
vn -0.2302 0.3672 -0.9012
vn -0.2123 0.3646 -0.9067
vn 0.0337 0.3363 -0.9411
vn 0.2269 0.3093 -0.9235
vn 0.4912 0.2488 -0.8348
vn 0.4912 0.2491 -0.8347
vn 0.1239 -0.4688 0.8746
vn 0.4793 -0.4219 0.7696
vn 0.1492 -0.4674 0.8714
vn 0.0312 -0.4707 0.8818
vn 0.3764 -0.4427 0.8138
vn 0.7067 -0.3460 0.6172
vn 0.2580 -0.5890 0.7659
vn 0.4988 -0.5015 0.7069
vn 0.2554 -0.5891 0.7666
vn 0.2893 -0.5918 0.7524
vn 0.4484 -0.5225 0.7252
vn 0.8216 -0.2896 0.4910
vn 0.2175 -0.8244 0.5225
vn 0.4705 -0.8021 0.3678
vn 0.3775 -0.8213 0.4278
vn 0.7521 -0.6489 0.1147
vn 0.2132 -0.8253 0.5229
vn 0.2493 -0.8178 0.5187
vn 0.0864 -0.8979 0.4316
vn 0.4513 -0.8499 0.2722
vn 0.3121 -0.8888 0.3356
vn 0.6597 -0.7368 0.1480
vn 0.1168 -0.9005 0.4189
vn 0.0114 -0.8866 0.4624
vn 0.2506 0.4045 0.8795
vn 0.1556 0.3694 0.9162
vn 0.1319 0.3619 0.9228
vn 0.1043 0.3532 0.9297
vn 0.3930 0.4534 0.7999
vn 0.4914 0.4820 0.7254
vn -0.1073 -0.9077 -0.4056
vn -0.0219 -0.8861 -0.4630
vn -0.1070 -0.9125 -0.3949
vn -0.1063 -0.9186 -0.3806
vn 0.1493 -0.8273 -0.5416
vn 0.2768 -0.7601 -0.5880
vn 0.2050 0.2799 0.9379
vn 0.3011 0.3286 0.8952
vn 0.5422 0.4089 0.7340
vn 0.6920 0.4454 0.5681
vn 0.1850 0.2798 0.9421
vn 0.2268 0.2805 0.9327
vn -0.0082 -0.9457 -0.3249
vn 0.3262 -0.7949 -0.5116
vn 0.0840 -0.9169 -0.3902
vn 0.4873 -0.6599 -0.5719
vn -0.0292 -0.9466 -0.3211
vn 0.0134 -0.9440 -0.3296
vt 0.000000 0.000000
s 1
f 1/1/1 2/1/2 3/1/3
f 2/1/2 1/1/1 4/1/4
f 2/1/2 4/1/4 5/1/5
f 6/1/6 7/1/7 8/1/8
f 6/1/6 8/1/8 9/1/9
f 7/1/7 10/1/10 8/1/8
f 10/1/10 7/1/7 11/1/11
f 12/1/12 13/1/13 14/1/14
f 14/1/14 15/1/15 12/1/12
f 13/1/13 12/1/12 16/1/16
f 16/1/16 17/1/17 13/1/13
f 18/1/18 19/1/19 20/1/20
f 19/1/19 18/1/18 21/1/21
f 20/1/20 22/1/22 18/1/18
f 22/1/22 20/1/20 23/1/23
f 24/1/24 25/1/25 26/1/26
f 24/1/24 27/1/27 25/1/25
f 27/1/27 24/1/24 28/1/28
f 25/1/25 29/1/29 26/1/26
f 30/1/30 26/1/26 29/1/29
f 26/1/26 30/1/30 31/1/31
f 32/1/32 31/1/31 30/1/30
f 31/1/31 32/1/32 33/1/33
f 32/1/32 34/1/34 33/1/33
f 34/1/34 32/1/32 35/1/34
f 36/1/35 37/1/36 38/1/37
f 38/1/37 39/1/38 36/1/35
f 40/1/39 37/1/36 36/1/35
f 40/1/39 41/1/40 37/1/36
f 42/1/41 43/1/42 44/1/43
f 43/1/42 45/1/44 44/1/43
f 43/1/42 42/1/41 46/1/45
f 42/1/41 47/1/46 46/1/45
f 48/1/47 49/1/48 50/1/49
f 49/1/48 48/1/47 51/1/50
f 48/1/47 50/1/49 52/1/51
f 52/1/51 50/1/49 53/1/52
f 54/1/53 55/1/54 56/1/55
f 55/1/54 57/1/56 56/1/55
f 55/1/54 54/1/53 58/1/57
f 54/1/53 59/1/58 58/1/57
f 60/1/59 61/1/60 62/1/61
f 60/1/59 62/1/61 63/1/62
f 61/1/60 60/1/59 64/1/63
f 61/1/60 64/1/63 65/1/64
f 66/1/65 67/1/66 68/1/67
f 67/1/66 69/1/68 68/1/67
f 67/1/66 66/1/65 70/1/69
f 71/1/70 70/1/69 66/1/65
f 71/1/70 72/1/70 70/1/69
f 69/1/68 67/1/66 73/1/71
f 74/1/72 69/1/68 73/1/71
f 69/1/68 74/1/72 75/1/73
f 75/1/73 74/1/72 76/1/74
f 75/1/73 76/1/74 77/1/74
f 78/1/75 79/1/76 80/1/77
f 79/1/76 81/1/78 80/1/77
f 79/1/76 78/1/75 82/1/79
f 83/1/80 82/1/79 78/1/75
f 83/1/80 84/1/81 82/1/79
f 81/1/78 79/1/76 85/1/82
f 85/1/82 86/1/83 81/1/78
f 86/1/83 85/1/82 87/1/84
f 88/1/85 86/1/83 87/1/84
f 86/1/83 88/1/85 89/1/85
f 90/1/86 91/1/86 92/1/86
f 90/1/86 92/1/86 93/1/87
f 91/1/86 94/1/86 92/1/86
f 94/1/86 91/1/86 95/1/86
f 95/1/86 91/1/86 96/1/86
f 91/1/86 90/1/86 97/1/86
f 90/1/86 98/1/88 97/1/86
f 98/1/88 90/1/86 99/1/86
f 99/1/86 100/1/86 98/1/88
f 101/1/86 100/1/86 99/1/86
f 102/1/89 103/1/90 104/1/91
f 102/1/89 105/1/92 103/1/90
f 105/1/92 102/1/89 106/1/92
f 103/1/90 107/1/93 104/1/91
f 107/1/93 108/1/94 104/1/91
f 108/1/94 107/1/93 109/1/95
f 110/1/96 108/1/94 109/1/95
f 108/1/94 110/1/96 111/1/97
f 110/1/96 112/1/98 111/1/97
f 112/1/98 110/1/96 113/1/99
f 114/1/100 115/1/101 116/1/102
f 114/1/100 116/1/102 117/1/103
f 115/1/101 114/1/100 118/1/104
f 115/1/101 118/1/104 119/1/105
f 120/1/106 121/1/107 122/1/108
f 120/1/106 122/1/108 123/1/109
f 121/1/107 120/1/106 124/1/110
f 121/1/107 124/1/110 125/1/111
f 126/1/112 127/1/113 128/1/114
f 127/1/113 129/1/115 128/1/114
f 127/1/113 126/1/112 130/1/116
f 126/1/112 131/1/117 130/1/116
f 132/1/118 133/1/119 134/1/120
f 133/1/119 135/1/121 134/1/120
f 133/1/119 132/1/118 136/1/122
f 132/1/118 137/1/123 136/1/122
f 138/1/124 139/1/125 140/1/126
f 139/1/125 141/1/127 140/1/126
f 139/1/125 138/1/124 142/1/128
f 138/1/124 143/1/129 142/1/128
f 144/1/130 145/1/131 146/1/132
f 144/1/130 146/1/132 147/1/133
f 145/1/131 144/1/130 148/1/134
f 145/1/131 148/1/134 149/1/135
f 150/1/136 151/1/137 152/1/138
f 151/1/137 153/1/139 152/1/138
f 152/1/138 154/1/140 150/1/136
f 154/1/140 155/1/141 150/1/136
f 156/1/142 157/1/143 158/1/144
f 158/1/144 157/1/143 159/1/145
f 157/1/143 156/1/142 160/1/146
f 160/1/146 156/1/142 161/1/147
o 118000300472017
v -0.225451 0.143582 0.011223
v -0.224358 0.180388 -0.015519
v -0.246331 0.156543 0.027412
v -0.249642 0.199834 -0.003334
v -0.193436 0.160506 -0.028500
v -0.304784 0.183777 -0.005574
v -0.198211 0.130223 -0.005900
v -0.298023 0.146640 0.020196
v -0.166389 0.124048 -0.049252
v -0.175064 0.106034 -0.034909
v -0.163945 0.070319 -0.075985
v -0.322101 0.153752 0.030042
v -0.331833 0.194195 0.002343
v -0.359997 0.142708 0.020488
v -0.373071 0.176698 -0.002038
v -0.365567 0.035254 -0.174114
v -0.386976 0.015592 -0.120637
v -0.401249 0.043932 -0.149436
v -0.354398 0.001577 -0.138905
v -0.335838 0.037462 -0.168015
v -0.327755 0.006552 -0.135332
v -0.281146 -0.007494 -0.154702
v -0.286004 0.028506 -0.193543
v -0.255412 0.034072 -0.177960
v -0.255183 0.003493 -0.144305
v -0.219124 0.039472 -0.162873
v -0.222806 0.014339 -0.134555
v -0.181877 0.051074 -0.130268
v -0.189893 0.036165 -0.112478
v -0.163945 0.070319 -0.075985
v -0.359997 0.142708 0.020488
v -0.409709 0.092544 -0.120994
v -0.386976 0.015592 -0.120637
v -0.401249 0.043932 -0.149436
v -0.396220 0.156102 -0.050432
v -0.428682 0.142654 -0.097956
v -0.373071 0.176698 -0.002038
v -0.298023 0.146640 0.020196
v -0.327755 0.006552 -0.135332
v -0.175064 0.106034 -0.034909
v -0.198211 0.130223 -0.005900
v -0.225451 0.143582 0.011223
v -0.246331 0.156543 0.027412
v -0.189893 0.036165 -0.112478
v -0.163945 0.070319 -0.075985
v -0.222806 0.014339 -0.134555
v -0.255183 0.003493 -0.144305
v -0.281146 -0.007494 -0.154702
v -0.359997 0.142708 0.020488
v -0.322101 0.153752 0.030042
v -0.386976 0.015592 -0.120637
v -0.354398 0.001577 -0.138905
v -0.266881 0.163487 -0.021203
v -0.300512 0.163903 -0.013226
v -0.301728 0.176373 -0.024182
v -0.305674 0.162142 -0.016345
v -0.268096 0.175958 -0.032158
v -0.306890 0.174613 -0.027300
v -0.244473 0.172966 -0.035324
v -0.328824 0.160179 -0.035037
v -0.243258 0.160496 -0.024368
v -0.330040 0.172650 -0.045993
v -0.232095 0.152248 -0.041584
v -0.325352 0.153159 -0.048609
v -0.233311 0.164719 -0.052540
v -0.326567 0.165630 -0.059565
v -0.223771 0.143360 -0.051388
v -0.320681 0.144616 -0.068272
v -0.224986 0.155830 -0.062343
v -0.321897 0.157087 -0.079227
v -0.235890 0.145608 -0.057274
v -0.315871 0.139664 -0.078763
v -0.237106 0.158078 -0.068229
v -0.317086 0.152135 -0.089719
v -0.241344 0.145314 -0.058818
v -0.311596 0.136891 -0.090062
v -0.242559 0.157784 -0.069773
v -0.312811 0.149362 -0.101018
v -0.245852 0.145282 -0.060272
v -0.298112 0.135534 -0.098339
v -0.247068 0.157752 -0.071227
v -0.299327 0.148004 -0.109294
v -0.277324 0.141243 -0.082786
v -0.283634 0.152469 -0.096913
v -0.278540 0.153714 -0.093742
v -0.282419 0.139998 -0.085958
v -0.243185 0.141079 -0.126477
v -0.220577 0.083524 -0.137719
v -0.252489 0.087129 -0.148130
v -0.209009 0.127990 -0.120286
v -0.175778 0.104444 -0.104592
v -0.188549 0.077879 -0.114386
v -0.163945 0.070319 -0.075985
v -0.261544 0.089531 -0.146950
v -0.257497 0.087403 -0.147911
v -0.286521 0.116112 -0.135487
v -0.283630 0.145163 -0.123603
v -0.290555 0.119906 -0.133122
v -0.302313 0.134006 -0.124929
v -0.323610 0.144469 -0.116532
v -0.317319 0.128186 -0.124618
v -0.324316 0.118073 -0.127534
v -0.327902 0.145521 -0.116780
v -0.350727 0.138671 -0.123350
v -0.352092 0.137533 -0.124068
v -0.332085 0.109291 -0.132572
v -0.351471 0.092429 -0.143061
v -0.342269 0.091648 -0.141700
v -0.360134 0.127035 -0.125393
v -0.409709 0.092544 -0.120994
v -0.383438 0.133404 -0.114927
v -0.396103 0.146424 -0.106584
v -0.428682 0.142654 -0.097956
v -0.396220 0.156102 -0.050432
v -0.353855 0.157205 -0.092697
v -0.379780 0.151797 -0.096080
v -0.396103 0.146424 -0.106584
v -0.428682 0.142654 -0.097956
v -0.335322 0.168517 -0.058587
v -0.348275 0.155519 -0.104099
v -0.321897 0.157087 -0.079227
v -0.326567 0.165630 -0.059565
v -0.317086 0.152135 -0.089719
v -0.347318 0.154750 -0.105523
v -0.327902 0.145521 -0.116780
v -0.323610 0.144469 -0.116532
v -0.312811 0.149362 -0.101018
v -0.299327 0.148004 -0.109294
v -0.283630 0.145163 -0.123603
v -0.283634 0.152469 -0.096913
v -0.278540 0.153714 -0.093742
v -0.243185 0.141079 -0.126477
v -0.247068 0.157752 -0.071227
v -0.237623 0.157174 -0.070367
v -0.242559 0.157784 -0.069773
v -0.208279 0.141466 -0.073391
v -0.209009 0.127990 -0.120286
v -0.175778 0.104444 -0.104592
v -0.181134 0.112813 -0.075601
v -0.163945 0.070319 -0.075985
v -0.401249 0.043932 -0.149436
v -0.409709 0.092544 -0.120994
v -0.351471 0.092429 -0.143061
v -0.365567 0.035254 -0.174114
v -0.349750 0.079666 -0.149068
v -0.342269 0.091648 -0.141700
v -0.331643 0.057984 -0.156783
v -0.335838 0.037462 -0.168015
v -0.327629 0.054294 -0.159657
v -0.293392 0.056775 -0.164477
v -0.286004 0.028506 -0.193543
v -0.269354 0.055861 -0.165508
v -0.255412 0.034072 -0.177960
v -0.253439 0.069883 -0.157826
v -0.219124 0.039472 -0.162873
v -0.241671 0.076818 -0.149517
v -0.220577 0.083524 -0.137719
v -0.181877 0.051074 -0.130268
v -0.188549 0.077879 -0.114386
v -0.163945 0.070319 -0.075985
v -0.252489 0.087129 -0.148130
v -0.252603 0.085062 -0.149293
v -0.257497 0.087403 -0.147911
v -0.373071 0.176698 -0.002038
v -0.335322 0.168517 -0.058587
v -0.396220 0.156102 -0.050432
v -0.331833 0.194195 0.002343
v -0.330040 0.172650 -0.045993
v -0.326567 0.165630 -0.059565
v -0.306890 0.174613 -0.027300
v -0.304784 0.183777 -0.005574
v -0.301728 0.176373 -0.024182
v -0.268096 0.175958 -0.032158
v -0.249642 0.199834 -0.003334
v -0.244473 0.172966 -0.035324
v -0.224358 0.180388 -0.015519
v -0.233311 0.164719 -0.052540
v -0.193436 0.160506 -0.028500
v -0.224986 0.155830 -0.062343
v -0.208279 0.141466 -0.073391
v -0.166389 0.124048 -0.049252
v -0.181134 0.112813 -0.075601
v -0.163945 0.070319 -0.075985
v -0.237623 0.157174 -0.070367
v -0.237106 0.158078 -0.068229
v -0.242559 0.157784 -0.069773
v -0.349186 0.122862 -0.109462
v -0.327902 0.145521 -0.116780
v -0.350727 0.138671 -0.123350
v -0.326361 0.129712 -0.102891
v -0.352092 0.137533 -0.124068
v -0.350551 0.121723 -0.110179
v -0.360134 0.127035 -0.125393
v -0.358593 0.111225 -0.111505
v -0.383438 0.133404 -0.114927
v -0.381898 0.117594 -0.101038
v -0.394562 0.130615 -0.092695
v -0.396103 0.146424 -0.106584
v -0.379780 0.151797 -0.096080
v -0.378239 0.135988 -0.082191
v -0.352314 0.141395 -0.078808
v -0.353855 0.157205 -0.092697
v -0.346734 0.139709 -0.090211
v -0.348275 0.155519 -0.104099
v -0.345777 0.138941 -0.091634
v -0.347318 0.154750 -0.105523
v -0.327902 0.145521 -0.116780
v -0.326361 0.129712 -0.102891
v -0.341054 0.079178 -0.130745
v -0.348534 0.067196 -0.138112
v -0.349750 0.079666 -0.149068
v -0.331643 0.057984 -0.156783
v -0.342269 0.091648 -0.141700
v -0.330428 0.045513 -0.145828
v -0.330869 0.096820 -0.121616
v -0.327629 0.054294 -0.159657
v -0.332085 0.109291 -0.132572
v -0.326414 0.041823 -0.148701
v -0.323100 0.105602 -0.116579
v -0.292176 0.044304 -0.153522
v -0.324316 0.118073 -0.127534
v -0.293392 0.056775 -0.164477
v -0.316104 0.115716 -0.113662
v -0.269354 0.055861 -0.165508
v -0.317319 0.128186 -0.124618
v -0.268139 0.043390 -0.154552
v -0.301097 0.121535 -0.113973
v -0.252223 0.057413 -0.146871
v -0.302313 0.134006 -0.124929
v -0.253439 0.069883 -0.157826
v -0.290555 0.119906 -0.133122
v -0.241671 0.076818 -0.149517
v -0.289339 0.107435 -0.122166
v -0.240455 0.064348 -0.138562
v -0.286521 0.116112 -0.135487
v -0.251387 0.072591 -0.138338
v -0.285305 0.103641 -0.124532
v -0.252603 0.085062 -0.149293
v -0.261544 0.089531 -0.146950
v -0.256281 0.074932 -0.136956
v -0.260329 0.077060 -0.135995
v -0.257497 0.087403 -0.147911
vn 0.6370 0.4422 0.6314
vn 0.6424 0.4425 0.6257
vn 0.2553 0.5565 0.7907
vn 0.2262 0.5597 0.7972
vn 0.6920 0.3475 0.6328
vn 0.1343 0.5911 0.7954
vn 0.7055 0.3327 0.6257
vn 0.1051 0.5901 0.8005
vn 0.8653 0.0686 0.4966
vn 0.8749 0.0410 0.4825
vn 0.9164 -0.1441 0.3734
vn 0.0914 0.5643 0.8205
vn 0.0441 0.5568 0.8295
vn -0.3135 0.4634 0.8288
vn -0.3135 0.4634 0.8289
vn -0.1921 -0.7507 -0.6321
vn -0.5311 -0.7041 -0.4713
vn -0.5309 -0.7043 -0.4713
vn -0.1455 -0.7485 -0.6470
vn -0.1036 -0.7272 -0.6786
vn -0.1327 -0.7276 -0.6730
vn 0.0197 -0.7455 -0.6662
vn -0.0100 -0.7471 -0.6647
vn 0.4327 -0.6620 -0.6120
vn 0.4266 -0.6666 -0.6112
vn 0.4929 -0.6892 -0.5311
vn 0.5093 -0.6864 -0.5191
vn 0.7255 -0.6256 -0.2867
vn 0.7419 -0.6176 -0.2612
vn 0.8336 -0.5462 -0.0823
vn -0.8682 -0.2750 0.4130
vn -0.8682 -0.2751 0.4131
vn -0.8683 -0.2751 0.4127
vn -0.8683 -0.2750 0.4128
vn -0.8681 -0.2751 0.4131
vn -0.8681 -0.2754 0.4131
vn -0.8682 -0.2749 0.4130
vn 0.0505 -0.7469 0.6631
vn 0.0500 -0.7474 0.6625
vn 0.0503 -0.7471 0.6628
vn 0.0505 -0.7468 0.6631
vn 0.0505 -0.7469 0.6630
vn -0.1813 -0.6590 -0.7300
vn 0.1859 -0.6379 -0.7474
vn 0.2038 -0.6352 -0.7450
vn 0.5653 -0.5126 -0.6463
vn -0.5587 -0.5774 -0.5953
vn 0.8621 -0.2844 -0.4194
vn -0.5209 -0.5911 -0.6159
vn 0.9726 -0.0932 -0.2132
vn -0.8450 -0.3969 -0.3584
vn 0.9672 0.2143 0.1366
vn -0.8452 -0.3968 -0.3579
vn -0.9812 0.0644 0.1821
vn 0.9465 0.2602 0.1911
vn -0.8107 0.3397 0.4768
vn 0.9365 0.2784 0.2130
vn -0.2433 0.6267 0.7403
vn 0.9091 0.3215 0.2651
vn 0.7631 0.4666 0.4471
vn 0.6526 0.5350 0.5365
vn -0.3597 0.5959 0.7180
vn -0.0897 0.6525 0.7525
vn -0.4244 0.5738 0.7004
vn -0.0758 0.6539 0.7528
vn -0.5384 0.5259 0.6584
vn -0.5890 0.5002 0.6347
vn -0.5385 0.5259 0.6584
vn -0.5737 0.5083 0.6422
vn 0.1312 0.3444 -0.9296
vn 0.4103 0.2290 -0.8827
vn 0.1261 0.3449 -0.9301
vn 0.4147 0.2252 -0.8817
vn 0.6746 0.0025 -0.7381
vn 0.6684 0.0094 -0.7438
vn 0.8106 -0.1848 -0.5557
vn -0.0249 0.3774 -0.9257
vn -0.0599 0.3811 -0.9226
vn -0.0970 0.3827 -0.9188
vn -0.1684 0.3869 -0.9066
vn -0.1683 0.3869 -0.9066
vn 0.0036 0.3893 -0.9211
vn -0.1685 0.3869 -0.9066
vn 0.1020 0.3850 -0.9172
vn 0.1549 0.3818 -0.9112
vn 0.1548 0.3818 -0.9112
vn 0.0605 0.3794 -0.9233
vn -0.0626 0.3704 -0.9268
vn -0.3044 0.3364 -0.8912
vn -0.3044 0.3365 -0.8911
vn -0.1915 0.9649 -0.1796
vn -0.1915 0.9649 -0.1797
vn 0.0443 0.9634 -0.2643
vn 0.1625 0.9397 -0.3008
vn 0.2528 0.9108 -0.3264
vn 0.2527 0.9108 -0.3264
vn 0.2027 0.9263 -0.3176
vn 0.2526 0.9108 -0.3264
vn 0.2526 0.9109 -0.3264
vn 0.1051 0.9481 -0.3001
vn -0.0644 0.9630 -0.2616
vn -0.0645 0.9630 -0.2617
vn 0.0071 0.9617 -0.2739
vn -0.0645 0.9630 -0.2616
vn 0.0442 0.9593 -0.2790
vn 0.2372 0.9290 -0.2841
vn 0.0792 0.9554 -0.2844
vn 0.2322 0.9302 -0.2843
vn 0.5213 0.8206 -0.2343
vn 0.5261 0.8184 -0.2312
vn 0.7938 0.6031 -0.0783
vn 0.7875 0.6106 -0.0834
vn 0.9254 0.3738 0.0631
vn -0.3571 0.4725 -0.8057
vn -0.3569 0.4725 -0.8058
vn -0.0876 0.4732 -0.8766
vn -0.1082 0.4749 -0.8734
vn 0.1549 0.4451 -0.8820
vn 0.1548 0.4451 -0.8820
vn 0.0613 0.4980 -0.8650
vn -0.0275 0.5427 -0.8395
vn -0.2190 0.6201 -0.7533
vn -0.0795 0.6316 -0.7712
vn -0.0373 0.6328 -0.7735
vn 0.1021 0.6282 -0.7713
vn 0.1739 0.5745 -0.7998
vn 0.2558 0.5061 -0.8237
vn 0.3781 0.4721 -0.7963
vn 0.2981 0.4678 -0.8320
vn 0.4242 0.4729 -0.7723
vn 0.6120 0.4696 -0.6364
vn 0.6815 0.4657 -0.5646
vn 0.7912 0.4453 -0.4192
vn 0.1483 0.4846 -0.8621
vn 0.1973 0.4809 -0.8543
vn -0.0113 0.4907 -0.8712
vn -0.2776 0.9070 -0.3167
vn -0.0064 0.9297 -0.3682
vn -0.2775 0.9071 -0.3165
vn -0.0271 0.9305 -0.3652
vn 0.2338 0.8902 -0.3911
vn 0.2338 0.8901 -0.3912
vn 0.1313 0.8958 -0.4246
vn 0.0344 0.8915 -0.4517
vn -0.1772 0.8509 -0.4946
vn -0.0413 0.8440 -0.5348
vn -0.0013 0.8382 -0.5453
vn 0.1348 0.8102 -0.5705
vn 0.2180 0.8188 -0.5311
vn 0.3150 0.8198 -0.4782
vn 0.4339 0.7667 -0.4732
vn 0.3628 0.8165 -0.4492
vn 0.4739 0.7344 -0.4858
vn 0.6303 0.5647 -0.5327
vn 0.6843 0.4804 -0.5485
vn 0.7649 0.3145 -0.5622
vn 0.2200 0.8750 -0.4312
vn 0.2669 0.8582 -0.4384
vn 0.0646 0.9133 -0.4022
vn -0.5422 0.5246 0.6563
vn -0.3818 0.5887 0.7125
vn -0.5270 0.5313 0.6633
vn -0.6787 0.4462 0.5833
vn -0.2272 0.6301 0.7425
vn 0.0366 0.6618 0.7488
vn 0.6307 0.5460 0.5514
vn 0.6086 0.5565 0.5657
vn 0.9895 -0.0283 -0.1420
vn 0.9841 -0.0530 -0.1696
vn 0.4162 -0.5768 -0.7029
vn 0.3952 -0.5842 -0.7089
vn -0.2174 -0.6561 -0.7226
vn -0.4457 -0.6149 -0.6506
vn -0.8468 -0.3952 -0.3560
vn -0.8468 -0.3952 -0.3559
vn -0.7380 -0.4842 -0.4699
vn -0.7248 -0.4933 -0.4811
vn -0.5984 -0.5609 -0.5721
vn 0.8637 -0.2825 -0.4175
vn 0.9661 0.2171 0.1395
vn 0.9956 0.0151 -0.0923
vn 0.7571 0.4713 0.4524
vn 0.8255 -0.3250 -0.4615
vn 0.4345 0.6180 0.6552
vn 0.8090 -0.3415 -0.4784
vn 0.4161 0.6224 0.6630
vn 0.7660 -0.3805 -0.5181
vn 0.0572 0.6620 0.7473
vn 0.5727 -0.5091 -0.6425
vn -0.3382 0.6022 0.7232
vn 0.4420 -0.5673 -0.6948
vn -0.2976 0.6140 0.7310
vn -0.3249 -0.6417 -0.6947
vn -0.6763 0.4481 0.5846
vn -0.3113 -0.6441 -0.6987
vn -0.6762 0.4483 0.5846
vn -0.7765 -0.4569 -0.4339
vn -0.9385 -0.2748 -0.2092
vn -0.7640 -0.4663 -0.4460
vn -0.9915 0.0168 0.1290
vn -0.7348 -0.4867 -0.4725
vn -0.4712 -0.6076 -0.6393
vn -0.6360 -0.5434 -0.5479
vn -0.5785 -0.5695 -0.5840
vn -0.4713 -0.6076 -0.6393
vt 0.000000 0.000000
s 1
f 162/2/148 163/2/149 164/2/150
f 165/2/151 164/2/150 163/2/149
f 162/2/148 166/2/152 163/2/149
f 167/2/153 164/2/150 165/2/151
f 166/2/152 162/2/148 168/2/154
f 164/2/150 167/2/153 169/2/155
f 168/2/154 170/2/156 166/2/152
f 170/2/156 168/2/154 171/2/157
f 170/2/156 171/2/157 172/2/158
f 167/2/153 173/2/159 169/2/155
f 173/2/159 167/2/153 174/2/160
f 174/2/160 175/2/161 173/2/159
f 175/2/161 174/2/160 176/2/162
f 177/2/163 178/2/164 179/2/165
f 178/2/164 177/2/163 180/2/166
f 180/2/166 177/2/163 181/2/167
f 180/2/166 181/2/167 182/2/168
f 182/2/168 181/2/167 183/2/169
f 181/2/167 184/2/170 183/2/169
f 185/2/171 183/2/169 184/2/170
f 183/2/169 185/2/171 186/2/172
f 185/2/171 187/2/173 186/2/172
f 186/2/172 187/2/173 188/2/174
f 188/2/174 187/2/173 189/2/175
f 190/2/176 188/2/174 189/2/175
f 190/2/176 189/2/175 191/2/177
f 192/2/178 193/2/179 194/2/180
f 194/2/180 193/2/179 195/2/181
f 196/2/182 193/2/179 192/2/178
f 193/2/179 196/2/182 197/2/183
f 192/2/178 198/2/184 196/2/182
f 199/2/185 200/2/185 201/2/186
f 202/2/187 199/2/185 201/2/186
f 199/2/185 202/2/187 203/2/185
f 203/2/185 204/2/185 199/2/185
f 201/2/186 205/2/185 206/2/187
f 201/2/186 200/2/185 205/2/185
f 205/2/185 200/2/185 207/2/187
f 207/2/187 200/2/185 208/2/185
f 200/2/185 209/2/188 208/2/185
f 200/2/185 199/2/185 210/2/185
f 199/2/185 211/2/189 210/2/185
f 200/2/185 210/2/185 212/2/185
f 212/2/185 213/2/188 200/2/185
f 214/2/190 215/2/191 216/2/192
f 217/2/193 216/2/192 215/2/191
f 216/2/192 218/2/190 214/2/190
f 216/2/192 217/2/193 219/2/193
f 220/2/194 214/2/190 218/2/190
f 221/2/195 219/2/193 217/2/193
f 214/2/190 220/2/194 222/2/196
f 219/2/193 221/2/195 223/2/197
f 220/2/194 224/2/198 222/2/196
f 225/2/199 223/2/197 221/2/195
f 226/2/200 224/2/198 220/2/194
f 223/2/197 225/2/199 227/2/199
f 226/2/200 228/2/201 224/2/198
f 229/2/202 227/2/199 225/2/199
f 230/2/203 228/2/201 226/2/200
f 227/2/199 229/2/202 231/2/204
f 230/2/203 232/2/205 228/2/201
f 233/2/206 231/2/204 229/2/202
f 234/2/205 232/2/205 230/2/203
f 231/2/204 233/2/206 235/2/206
f 234/2/205 236/2/205 232/2/205
f 237/2/207 235/2/206 233/2/206
f 236/2/205 234/2/205 238/2/205
f 235/2/206 237/2/207 239/2/208
f 238/2/205 240/2/209 236/2/205
f 241/2/210 239/2/208 237/2/207
f 240/2/209 238/2/205 242/2/211
f 239/2/208 241/2/210 243/2/212
f 242/2/211 244/2/213 240/2/209
f 243/2/212 241/2/210 245/2/214
f 244/2/213 242/2/211 246/2/215
f 245/2/214 241/2/210 247/2/216
f 246/2/215 247/2/216 244/2/213
f 247/2/216 246/2/215 245/2/214
f 248/2/217 249/2/218 250/2/219
f 249/2/218 248/2/217 251/2/220
f 252/2/221 249/2/218 251/2/220
f 249/2/218 252/2/221 253/2/222
f 253/2/222 252/2/221 254/2/223
f 250/2/219 255/2/224 248/2/217
f 255/2/224 250/2/219 256/2/224
f 248/2/217 255/2/224 257/2/225
f 258/2/226 248/2/217 257/2/225
f 258/2/226 257/2/225 259/2/227
f 258/2/226 259/2/227 260/2/228
f 260/2/228 261/2/229 258/2/226
f 261/2/229 260/2/228 262/2/230
f 263/2/231 261/2/229 262/2/230
f 263/2/231 264/2/232 261/2/229
f 264/2/232 263/2/231 265/2/233
f 265/2/233 263/2/231 266/2/234
f 266/2/234 263/2/231 267/2/232
f 267/2/232 268/2/235 266/2/234
f 268/2/235 267/2/232 269/2/232
f 266/2/234 268/2/235 270/2/236
f 271/2/237 270/2/236 268/2/235
f 270/2/236 271/2/237 272/2/236
f 272/2/236 271/2/237 273/2/236
f 271/2/237 274/2/236 273/2/236
f 275/2/238 276/2/239 277/2/238
f 278/2/238 275/2/238 277/2/238
f 275/2/238 278/2/238 279/2/238
f 276/2/239 275/2/238 280/2/240
f 280/2/240 281/2/241 276/2/239
f 280/2/240 282/2/242 281/2/241
f 282/2/242 280/2/240 283/2/243
f 284/2/244 281/2/241 282/2/242
f 281/2/241 284/2/244 285/2/245
f 284/2/244 286/2/246 285/2/245
f 286/2/246 284/2/244 287/2/247
f 287/2/247 284/2/244 288/2/248
f 289/2/249 287/2/247 288/2/248
f 287/2/247 289/2/249 290/2/250
f 290/2/250 289/2/249 291/2/251
f 290/2/250 291/2/251 292/2/252
f 292/2/252 293/2/253 290/2/250
f 294/2/254 293/2/253 292/2/252
f 293/2/253 294/2/254 295/2/255
f 295/2/255 294/2/254 296/2/254
f 295/2/255 297/2/256 293/2/253
f 293/2/253 297/2/256 298/2/257
f 297/2/256 299/2/258 298/2/257
f 299/2/258 297/2/256 300/2/259
f 299/2/258 300/2/259 301/2/260
f 302/2/261 303/2/262 304/2/263
f 304/2/263 305/2/264 302/2/261
f 305/2/264 304/2/263 306/2/265
f 307/2/266 306/2/265 304/2/263
f 308/2/267 305/2/264 306/2/265
f 305/2/264 308/2/267 309/2/268
f 309/2/268 308/2/267 310/2/269
f 311/2/270 309/2/268 310/2/269
f 309/2/268 311/2/270 312/2/271
f 313/2/272 312/2/271 311/2/270
f 312/2/271 313/2/272 314/2/273
f 313/2/272 315/2/274 314/2/273
f 315/2/274 316/2/275 314/2/273
f 316/2/275 315/2/274 317/2/276
f 316/2/275 317/2/276 318/2/277
f 318/2/277 319/2/278 316/2/275
f 319/2/278 318/2/277 320/2/279
f 319/2/278 320/2/279 321/2/280
f 317/2/276 322/2/281 318/2/277
f 322/2/281 317/2/276 323/2/282
f 323/2/282 324/2/283 322/2/281
f 325/2/284 326/2/285 327/2/286
f 326/2/285 325/2/284 328/2/287
f 326/2/285 328/2/287 329/2/288
f 326/2/285 329/2/288 330/2/289
f 329/2/288 328/2/287 331/2/290
f 328/2/287 332/2/291 331/2/290
f 331/2/290 332/2/291 333/2/292
f 333/2/292 332/2/291 334/2/293
f 332/2/291 335/2/294 334/2/293
f 334/2/293 335/2/294 336/2/295
f 337/2/296 336/2/295 335/2/294
f 336/2/295 337/2/296 338/2/297
f 338/2/297 337/2/296 339/2/298
f 340/2/299 338/2/297 339/2/298
f 340/2/299 339/2/298 341/2/300
f 342/2/301 341/2/300 339/2/298
f 341/2/300 342/2/301 343/2/302
f 343/2/302 342/2/301 344/2/303
f 341/2/300 345/2/304 340/2/299
f 346/2/305 340/2/299 345/2/304
f 347/2/306 346/2/305 345/2/304
f 348/2/307 349/2/308 350/2/309
f 349/2/308 348/2/307 351/2/308
f 352/2/310 348/2/307 350/2/309
f 348/2/307 352/2/310 353/2/310
f 354/2/311 353/2/310 352/2/310
f 353/2/310 354/2/311 355/2/312
f 356/2/313 355/2/312 354/2/311
f 355/2/312 356/2/313 357/2/314
f 358/2/315 357/2/314 356/2/313
f 358/2/315 356/2/313 359/2/316
f 360/2/317 358/2/315 359/2/316
f 358/2/315 360/2/317 361/2/318
f 361/2/318 360/2/317 362/2/319
f 360/2/317 363/2/320 362/2/319
f 362/2/319 363/2/320 364/2/321
f 365/2/322 364/2/321 363/2/320
f 365/2/322 366/2/323 364/2/321
f 367/2/324 366/2/323 365/2/322
f 368/2/325 366/2/323 367/2/324
f 366/2/323 368/2/325 369/2/325
f 370/2/326 371/2/327 372/2/328
f 371/2/327 373/2/329 372/2/328
f 370/2/326 372/2/328 374/2/326
f 371/2/327 375/2/329 373/2/329
f 376/2/330 370/2/326 374/2/326
f 375/2/329 377/2/331 373/2/329
f 376/2/330 374/2/326 378/2/332
f 379/2/333 377/2/331 375/2/329
f 380/2/334 376/2/330 378/2/332
f 381/2/335 377/2/331 379/2/333
f 380/2/334 378/2/332 382/2/334
f 377/2/331 381/2/335 383/2/335
f 384/2/336 380/2/334 382/2/334
f 381/2/335 385/2/337 383/2/335
f 384/2/336 382/2/334 386/2/338
f 385/2/337 381/2/335 387/2/339
f 384/2/336 386/2/338 388/2/340
f 389/2/341 385/2/337 387/2/339
f 386/2/338 390/2/342 388/2/340
f 385/2/337 389/2/341 391/2/343
f 392/2/344 388/2/340 390/2/342
f 391/2/343 389/2/341 393/2/345
f 388/2/340 392/2/344 394/2/346
f 393/2/345 389/2/341 395/2/347
f 396/2/348 394/2/346 392/2/344
f 397/2/349 393/2/345 395/2/347
f 394/2/346 396/2/348 398/2/348
f 393/2/345 397/2/349 399/2/349
f 400/2/350 398/2/348 396/2/348
f 401/2/349 399/2/349 397/2/349
f 398/2/348 400/2/350 402/2/351
f 399/2/349 401/2/349 403/2/352
f 403/2/352 402/2/351 400/2/350
f 402/2/351 403/2/352 401/2/349
o 86082044456407
v -0.393331 0.130076 -0.100048
v -0.349584 0.134799 -0.112023
v -0.380658 0.116766 -0.107913
v -0.376978 0.135916 -0.089833
v -0.349368 0.120612 -0.117338
v -0.357378 0.110047 -0.118209
v -0.348004 0.121782 -0.116672
v -0.325174 0.128957 -0.110474
v -0.344571 0.138578 -0.099517
v -0.345524 0.139400 -0.098122
v -0.351058 0.141530 -0.086773
v -0.286763 0.074750 -0.141148
v -0.266881 0.040791 -0.158863
v -0.290916 0.041677 -0.157774
v -0.250981 0.055158 -0.151814
v -0.329136 0.043086 -0.149981
v -0.325122 0.039295 -0.152720
v -0.250160 0.070670 -0.143900
v -0.239199 0.062457 -0.143836
v -0.255056 0.073051 -0.142594
v -0.259106 0.075205 -0.141702
v -0.284124 0.102154 -0.131215
v -0.322588 0.075993 -0.133687
v -0.347285 0.065009 -0.143069
v -0.339813 0.077300 -0.136218
v -0.329651 0.095325 -0.127845
v -0.288161 0.106029 -0.128988
v -0.321890 0.104325 -0.123196
v -0.314916 0.114568 -0.120715
v -0.299933 0.120414 -0.121320
v -0.281191 0.140047 -0.094142
v -0.314608 0.139907 -0.086805
v -0.307615 0.149162 -0.058853
v -0.310375 0.136692 -0.098001
v -0.296925 0.135040 -0.106271
v -0.319388 0.145265 -0.076500
v -0.323998 0.154583 -0.057177
v -0.327433 0.162135 -0.043884
v -0.276086 0.141433 -0.091042
v -0.304204 0.164919 -0.025377
v -0.271261 0.150500 -0.063674
v -0.244526 0.146469 -0.068833
v -0.240011 0.146573 -0.067399
v -0.265438 0.166178 -0.030440
v -0.299034 0.166819 -0.022352
v -0.241820 0.163129 -0.033578
v -0.230708 0.154225 -0.050494
v -0.234551 0.146945 -0.065891
v -0.222396 0.144972 -0.059967
vn -0.2661 0.6994 -0.6634
vn -0.0426 0.7121 -0.7007
vn -0.2965 0.3003 -0.9066
vn -0.1745 0.9489 -0.2631
vn -0.1995 0.3168 -0.9273
vn -0.2965 0.3004 -0.9065
vn 0.1427 0.3482 -0.9265
vn 0.2070 0.6780 -0.7053
vn 0.2384 0.8991 -0.3672
vn -0.0823 0.9530 -0.2914
vn -0.1745 0.9488 -0.2632
vn -0.0962 0.4045 -0.9095
vn -0.0192 0.4534 -0.8911
vn -0.0948 0.4590 -0.8834
vn 0.0603 0.4499 -0.8910
vn -0.0839 0.4537 -0.8872
vn -0.1632 0.4616 -0.8719
vn 0.0896 0.4477 -0.8897
vn 0.3178 0.4175 -0.8513
vn -0.0198 0.4363 -0.8996
vn -0.0244 0.3428 -0.9391
vn -0.1419 0.3473 -0.9270
vn -0.0118 0.3948 -0.9187
vn 0.1586 0.4107 -0.8979
vn 0.1599 0.3849 -0.9090
vn 0.1619 0.3391 -0.9267
vn -0.1768 0.3472 -0.9210
vn -0.1178 0.3490 -0.9297
vn -0.1768 0.3473 -0.9210
vn -0.0720 0.9510 -0.3007
vn -0.0157 0.9493 -0.3141
vn 0.0777 0.9211 -0.3816
vn -0.0719 0.9511 -0.3004
vn -0.0720 0.9511 -0.3004
vn 0.2505 0.8967 -0.3648
vn 0.2449 0.8795 -0.4081
vn 0.2418 0.8686 -0.4326
vn -0.0368 0.9511 -0.3068
vn -0.0049 0.9058 -0.4237
vn -0.0051 0.9282 -0.3720
vn 0.0793 0.9421 -0.3258
vn 0.0624 0.9062 -0.4182
vn -0.0170 0.9045 -0.4262
vn -0.0860 0.9056 -0.4153
vn 0.0592 0.8982 -0.4356
vn 0.1297 0.8847 -0.4477
vn 0.1571 0.8780 -0.4521
vn 0.3601 0.8054 -0.4707
vt 0.000000 0.000000
s 1
f 404/3/353 405/3/354 406/3/355
f 407/3/356 405/3/354 404/3/353
f 406/3/355 408/3/357 409/3/358
f 408/3/357 406/3/355 405/3/354
f 408/3/357 405/3/354 410/3/359
f 410/3/359 405/3/354 411/3/360
f 405/3/354 412/3/361 411/3/360
f 405/3/354 413/3/362 412/3/361
f 405/3/354 407/3/356 413/3/362
f 413/3/362 407/3/356 414/3/363
f 415/3/364 416/3/365 417/3/366
f 416/3/365 415/3/364 418/3/367
f 419/3/368 417/3/366 420/3/369
f 417/3/366 419/3/368 415/3/364
f 421/3/370 422/3/371 418/3/367
f 418/3/367 423/3/372 421/3/370
f 418/3/367 415/3/364 423/3/372
f 423/3/372 415/3/364 424/3/373
f 415/3/364 425/3/374 424/3/373
f 415/3/364 419/3/368 426/3/375
f 426/3/375 425/3/374 415/3/364
f 426/3/375 419/3/368 427/3/376
f 426/3/375 427/3/376 428/3/377
f 428/3/377 429/3/378 426/3/375
f 425/3/374 426/3/375 430/3/379
f 431/3/380 426/3/375 429/3/378
f 430/3/379 426/3/375 431/3/380
f 432/3/379 430/3/379 431/3/380
f 430/3/379 432/3/379 433/3/381
f 434/3/382 435/3/383 436/3/384
f 435/3/383 434/3/382 437/3/385
f 437/3/385 434/3/382 438/3/386
f 436/3/384 435/3/383 439/3/387
f 439/3/387 440/3/388 436/3/384
f 441/3/389 436/3/384 440/3/388
f 434/3/382 436/3/384 442/3/390
f 436/3/384 441/3/389 443/3/391
f 442/3/390 436/3/384 444/3/392
f 436/3/384 443/3/391 444/3/392
f 445/3/393 442/3/390 444/3/392
f 444/3/392 446/3/394 445/3/393
f 443/3/391 447/3/395 444/3/392
f 447/3/395 443/3/391 448/3/396
f 449/3/397 444/3/392 447/3/395
f 450/3/398 444/3/392 449/3/397
f 450/3/398 446/3/394 444/3/392
f 446/3/394 450/3/398 451/3/399
f 450/3/398 452/3/400 451/3/399
o Cube
v -0.304414 -0.095783 0.089387
v -0.303859 0.097592 0.088695
v -0.303966 -0.097718 -0.087039
v -0.303761 0.098845 -0.098845
v -0.276226 -0.095783 0.089387
v -0.275672 0.097592 0.088695
v -0.275778 -0.097718 -0.087039
v -0.275574 0.098845 -0.098845
v -0.303761 0.083441 0.098845
v -0.303761 0.083441 -0.098845
v -0.275574 0.083441 -0.098845
v -0.275574 0.083441 0.098845
v -0.303761 -0.080268 -0.098845
v -0.275574 -0.080268 -0.098845
v -0.275574 -0.080268 0.098845
v -0.303761 -0.080268 0.098845
vn -1.0000 -0.0030 -0.0003
vn -1.0000 -0.0034 -0.0003
vn -1.0000 -0.0017 -0.0001
vn -0.0000 -0.0000 -1.0000
vn 1.0000 0.0017 0.0001
vn 1.0000 0.0034 0.0003
vn 1.0000 0.0030 0.0003
vn -0.0000 0.5828 0.8126
vn -0.0000 -0.9999 0.0110
vn -0.0000 1.0000 0.0067
vn -0.0000 -0.0000 1.0000
vn 1.0000 -0.0000 -0.0000
vn -1.0000 -0.0000 -0.0000
vn -0.9997 0.0259 -0.0013
vn -0.0000 -0.5604 -0.8283
vn 0.9997 -0.0259 0.0013
vn -0.0000 -0.5205 0.8539
vt 0.605521 0.000000
vt 0.625000 0.000000
vt 0.625000 0.250000
vt 0.605521 0.250000
vt 0.625000 0.500000
vt 0.605521 0.500000
vt 0.625000 0.750000
vt 0.605521 0.750000
vt 0.625000 1.000000
vt 0.605521 1.000000
vt 0.125000 0.500000
vt 0.375000 0.500000
vt 0.375000 0.750000
vt 0.125000 0.750000
vt 0.875000 0.500000
vt 0.875000 0.750000
vt 0.398492 0.750000
vt 0.398492 1.000000
vt 0.398492 0.500000
vt 0.398492 0.250000
vt 0.398492 0.000000
vt 0.375000 0.000000
vt 0.375000 0.250000
vt 0.375000 1.000000
s 1
f 461/4/401 454/5/402 456/6/402 462/7/403
f 462/7/404 456/6/404 460/8/404 463/9/404
f 463/9/405 460/8/406 458/10/406 464/11/407
f 464/11/408 458/10/408 454/12/408 461/13/408
f 455/14/409 459/15/409 457/16/409 453/17/409
f 460/8/410 456/18/410 454/19/410 458/10/410
f 467/20/411 464/11/411 461/13/411 468/21/411
f 466/22/412 463/9/405 464/11/407 467/20/412
f 465/23/404 462/7/404 463/9/404 466/22/404
f 468/24/413 461/4/401 462/7/403 465/23/413
f 453/25/414 468/24/414 465/23/414 455/26/414
f 455/26/415 465/23/415 466/22/415 459/15/415
f 459/15/416 466/22/416 467/20/416 457/16/416
f 457/16/417 467/20/417 468/21/417 453/27/417
o right_fist
v -0.360804 -0.080638 -0.080638
v -0.360804 0.080638 0.080638
v -0.360804 0.080638 -0.080638
v -0.360804 -0.080638 0.080638
v 0.360804 0.080638 -0.080638
v 0.360804 -0.080638 0.080638
v 0.360804 -0.080638 -0.080638
v 0.360804 0.080638 0.080638
v 0.351241 -0.080638 0.090201
v 0.351241 -0.090201 0.080638
v 0.360804 -0.080638 0.080638
v 0.360804 -0.080638 -0.080638
v 0.351241 -0.090201 -0.080638
v 0.351241 -0.080638 -0.090201
v 0.351241 0.080638 0.090201
v 0.360804 0.080638 0.080638
v 0.351241 0.090201 0.080638
v 0.351241 0.090201 -0.080638
v 0.360804 0.080638 -0.080638
v 0.351241 0.080638 -0.090201
v -0.351241 -0.080638 0.090201
v -0.360804 -0.080638 0.080638
v -0.351241 -0.090201 0.080638
v -0.351241 -0.090201 -0.080638
v -0.360804 -0.080638 -0.080638
v -0.351241 -0.080638 -0.090201
v -0.351241 0.080638 0.090201
v -0.351241 0.090201 0.080638
v -0.360804 0.080638 0.080638
v -0.360804 0.080638 -0.080638
v -0.351241 0.090201 -0.080638
v -0.351241 0.080638 -0.090201
v 0.360804 -0.080638 0.080638
v 0.351241 0.080638 0.090201
v 0.351241 -0.080638 0.090201
v 0.360804 0.080638 0.080638
v 0.360804 0.080638 -0.080638
v 0.351241 -0.080638 -0.090201
v 0.351241 0.080638 -0.090201
v 0.360804 -0.080638 -0.080638
v -0.360804 0.080638 0.080638
v -0.360804 -0.080638 0.080638
v -0.351241 -0.080638 0.090201
v -0.351241 0.080638 0.090201
v -0.360804 -0.080638 -0.080638
v -0.360804 0.080638 -0.080638
v -0.351241 0.080638 -0.090201
v -0.351241 -0.080638 -0.090201
v 0.351241 0.090201 0.080638
v -0.351241 0.090201 0.080638
v -0.351241 0.080638 0.090201
v 0.351241 0.080638 0.090201
v 0.351241 0.080638 -0.090201
v -0.351241 0.080638 -0.090201
v -0.351241 0.090201 -0.080638
v 0.351241 0.090201 -0.080638
v -0.351241 -0.090201 0.080638
v 0.351241 -0.090201 0.080638
v 0.351241 -0.080638 0.090201
v -0.351241 -0.080638 0.090201
v -0.351241 -0.080638 -0.090201
v 0.351241 -0.080638 -0.090201
v 0.351241 -0.090201 -0.080638
v -0.351241 -0.090201 -0.080638
v 0.351241 -0.090201 -0.080638
v -0.351241 -0.090201 0.080638
v -0.351241 -0.090201 -0.080638
v 0.351241 -0.090201 0.080638
v -0.351241 0.080638 -0.090201
v 0.351241 0.080638 -0.090201
v 0.351241 -0.080638 -0.090201
v -0.351241 -0.080638 -0.090201
v -0.351241 0.090201 -0.080638
v 0.351241 0.090201 0.080638
v 0.351241 0.090201 -0.080638
v -0.351241 0.090201 0.080638
v -0.351241 -0.080638 0.090201
v 0.351241 -0.080638 0.090201
v 0.351241 0.080638 0.090201
v -0.351241 0.080638 0.090201
vn -0.8755 -0.3417 -0.3417
vn -0.8755 0.3417 0.3417
vn -0.8755 0.3417 -0.3417
vn -0.8755 -0.3417 0.3417
vn 0.8755 0.3417 -0.3417
vn 0.8755 -0.3417 0.3417
vn 0.8755 -0.3417 -0.3417
vn 0.8755 0.3417 0.3417
vn 0.3417 -0.3418 0.8755
vn 0.3417 -0.8755 0.3417
vn 0.8755 -0.3418 0.3417
vn 0.3418 -0.8755 -0.3417
vn 0.3418 -0.3417 -0.8755
vn 0.3418 0.3417 0.8755
vn 0.3418 0.8755 0.3417
vn 0.3417 0.8755 -0.3417
vn 0.8755 0.3418 -0.3417
vn 0.3417 0.3418 -0.8755
vn -0.3418 -0.3417 0.8755
vn -0.3418 -0.8755 0.3417
vn -0.3417 -0.8755 -0.3417
vn -0.8755 -0.3418 -0.3417
vn -0.3417 -0.3418 -0.8755
vn -0.3417 0.3418 0.8755
vn -0.3417 0.8755 0.3417
vn -0.8755 0.3418 0.3417
vn -0.3418 0.8755 -0.3417
vn -0.3418 0.3417 -0.8755
vn 0.3417 0.3417 0.8755
vn 0.3417 -0.3417 0.8755
vn 0.3417 -0.3417 -0.8755
vn 0.3417 0.3417 -0.8755
vn -0.3417 -0.3417 0.8755
vn -0.3417 0.3417 0.8755
vn -0.3417 0.3417 -0.8755
vn -0.3417 -0.3417 -0.8755
vn 0.3417 0.8755 0.3417
vn -0.3417 0.8755 -0.3417
vn -0.3417 -0.8755 0.3417
vn 0.3417 -0.8755 -0.3417
vt 0.372650 0.019678
vt 0.478632 0.130590
vt 0.372650 0.130590
vt 0.478632 0.019678
vt 0.478632 0.481216
vt 0.372650 0.370304
vt 0.478632 0.370304
vt 0.372650 0.481216
vt 0.478632 0.363148
vt 0.478632 0.137746
vt 0.365812 0.363148
vt 0.365812 0.137746
vt 0.140171 0.137746
vt 0.140171 0.363148
vt 0.252991 0.137746
vt 0.252991 0.363148
vt 0.147009 0.137746
vt 0.147009 0.363148
vt 0.259829 0.363148
vt 0.259829 0.137746
vt 0.372650 0.137746
vt 0.372650 0.363148
vt 0.034188 0.363148
vt 0.034188 0.137746
s 1
f 469/28/418 470/29/419 471/30/420
f 470/29/419 469/28/418 472/31/421
f 473/32/422 474/33/423 475/34/424
f 474/33/423 473/32/422 476/35/425
f 477/33/426 478/33/427 479/33/428
f 478/33/427 480/34/424 479/33/428
f 480/34/424 478/33/427 481/34/429
f 481/34/429 482/34/430 480/34/424
f 483/35/431 484/35/425 485/35/432
f 486/32/433 485/35/432 484/35/425
f 484/35/425 487/32/434 486/32/433
f 488/32/435 486/32/433 487/32/434
f 489/31/436 490/31/421 491/31/437
f 492/28/438 491/31/437 490/31/421
f 490/31/421 493/28/439 492/28/438
f 494/28/440 492/28/438 493/28/439
f 495/29/441 496/29/442 497/29/443
f 498/30/420 497/29/443 496/29/442
f 496/29/442 499/30/444 498/30/420
f 500/30/445 498/30/420 499/30/444
f 501/33/423 502/35/446 503/33/447
f 502/35/446 501/33/423 504/35/425
f 505/32/422 506/34/448 507/32/449
f 506/34/448 505/32/422 508/34/424
f 509/29/419 510/31/421 511/31/450
f 511/31/450 512/29/451 509/29/419
f 513/28/418 514/30/420 515/30/452
f 515/30/452 516/28/453 513/28/418
f 517/36/454 518/37/442 519/37/451
f 517/36/454 519/37/451 520/36/446
f 521/38/449 522/39/452 523/39/455
f 521/38/449 523/39/455 524/38/433
f 525/40/456 526/41/427 527/41/447
f 525/40/456 527/41/447 528/40/450
f 529/42/453 530/43/448 531/43/457
f 529/42/453 531/43/457 532/42/438
f 533/43/457 534/44/456 535/42/438
f 534/44/456 533/43/457 536/45/427
f 537/39/452 538/38/449 539/46/448
f 537/39/452 539/46/448 540/47/453
f 541/48/455 542/36/454 543/49/433
f 542/36/454 541/48/455 544/37/442
f 545/40/450 546/41/447 547/50/446
f 545/40/450 547/50/446 548/51/451
