# Blender 5.2.0 LTS
# www.blender.org
mtllib pumpclawso.mtl
o pumpclawsoleft
v 0.261217 -0.226973 -0.220850
v 0.261217 -0.226973 0.195639
v 0.261217 -0.341993 0.195639
v 0.261217 -0.341993 -0.220850
v 0.199221 -0.226973 0.257651
v 0.199221 -0.341993 0.257651
v 0.199221 -0.341993 -0.282358
v 0.199221 -0.226973 -0.282358
v 0.261217 -0.226973 -0.220850
v 0.261217 -0.341993 -0.220850
v -0.224775 -0.341993 -0.178857
v -0.224775 -0.226484 -0.178857
v -0.224775 -0.341993 0.154150
v -0.224775 -0.226484 0.154150
v -0.217283 -0.341993 0.257651
v -0.217283 -0.226484 0.257651
v 0.199221 -0.226973 0.257651
v 0.199221 -0.341993 0.257651
v 0.157717 -0.226973 -0.228357
v -0.175276 -0.226484 -0.228357
v -0.175276 -0.341993 -0.228357
v -0.224775 -0.341993 -0.178857
v 0.157717 -0.341993 -0.228357
v 0.207216 -0.226973 -0.178857
v 0.207216 -0.341993 -0.178857
v -0.224775 -0.226484 -0.178857
v -0.175276 -0.341993 -0.228357
v -0.224775 -0.341993 -0.178857
v -0.278776 -0.341993 -0.220850
v -0.217283 -0.341993 -0.282358
v -0.278776 -0.341993 0.195639
v 0.199221 -0.341993 -0.282358
v -0.224775 -0.341993 0.154150
v 0.157717 -0.341993 -0.228357
v 0.261217 -0.341993 -0.220850
v 0.207216 -0.341993 -0.178857
v -0.175276 -0.341993 0.203650
v -0.217283 -0.341993 0.257651
v 0.157717 -0.341993 0.203650
v 0.199221 -0.341993 0.257651
v 0.207216 -0.341993 0.154150
v 0.207216 -0.341993 -0.178857
v 0.261217 -0.341993 -0.220850
v 0.261217 -0.341993 0.195639
v 0.157717 -0.341993 0.203650
v 0.199221 -0.341993 0.257651
v -0.278776 -0.226484 0.195639
v -0.278776 -0.226484 -0.220850
v -0.278776 -0.341993 -0.220850
v -0.217283 -0.226484 -0.282358
v -0.278776 -0.341993 0.195639
v -0.217283 -0.341993 -0.282358
v -0.217283 -0.341993 0.257651
v -0.217283 -0.226484 0.257651
v 0.207216 -0.341993 0.154150
v 0.207216 -0.226973 0.154150
v 0.207216 -0.341993 -0.178857
v 0.207216 -0.226973 -0.178857
v -0.217283 -0.226484 -0.282358
v -0.217283 -0.341993 -0.282358
v 0.199221 -0.341993 -0.282358
v 0.199221 -0.226973 -0.282358
v -0.224775 -0.341993 0.154150
v -0.224775 -0.226484 0.154150
v -0.175276 -0.341993 0.203650
v -0.175276 -0.226484 0.203650
v 0.157717 -0.341993 0.203650
v 0.157717 -0.226973 0.203650
v 0.207216 -0.341993 0.154150
v 0.157717 -0.226973 0.203650
v 0.207216 -0.226973 0.154150
v 0.157717 -0.341993 0.203650
v -0.217283 -0.226484 -0.282358
v 0.157717 -0.226973 -0.228357
v 0.199221 -0.226973 -0.282358
v 0.261217 -0.226973 -0.220850
v 0.207216 -0.226973 -0.178857
v -0.175276 -0.226484 -0.228357
v -0.278776 -0.226484 -0.220850
v -0.224775 -0.226484 -0.178857
v -0.224775 -0.226484 0.154150
v -0.278776 -0.226484 0.195639
v -0.175276 -0.226484 0.203650
v -0.217283 -0.226484 0.257651
v 0.199221 -0.226973 0.257651
v 0.157717 -0.226973 0.203650
v 0.207216 -0.226973 -0.178857
v 0.207216 -0.226973 0.154150
v 0.261217 -0.226973 0.195639
v 0.261217 -0.226973 -0.220850
v 0.157717 -0.226973 0.203650
v 0.199221 -0.226973 0.257651
v 0.466722 -0.232466 -0.034860
v 0.316729 -0.174971 -0.088861
v 0.405230 -0.138990 -0.017358
v 0.359728 -0.261488 -0.121347
v 0.444216 -0.301985 -0.019357
v 0.345217 -0.323469 -0.099359
v 0.389223 -0.443495 -0.128351
v 0.505724 -0.429976 -0.033853
v 0.456728 -0.498488 -0.007349
v 0.356218 -0.500471 -0.088358
v 0.407717 -0.581465 0.020651
v 0.324221 -0.573469 -0.047357
v 0.036226 -0.401991 0.374152
v 0.020220 -0.319471 0.366644
v 0.053728 -0.315474 0.399649
v 0.069719 -0.397993 0.407141
v 0.073717 -0.456465 0.405142
v 0.040224 -0.460493 0.372153
v 0.267717 -0.149489 0.298651
v 0.225725 -0.154493 0.256644
v 0.212221 -0.214979 0.279654
v 0.254229 -0.209486 0.322150
v 0.246721 -0.233992 0.273154
v 0.288729 -0.228468 0.315146
v 0.315218 -0.280470 0.293143
v 0.273226 -0.285475 0.251151
v 0.299730 -0.316481 0.213644
v 0.332720 -0.312483 0.246649
v 0.298220 -0.350966 0.234152
v 0.331728 -0.346968 0.267142
v 0.350222 -0.380995 0.229651
v 0.380220 -0.513990 0.120642
v 0.317217 -0.384993 0.196646
v 0.347216 -0.517988 0.087653
v 0.355730 -0.391981 0.220145
v 0.349718 -0.489485 0.107642
v 0.322222 -0.395979 0.186652
v 0.383226 -0.484968 0.140646
v 0.378725 -0.461989 0.151144
v 0.347216 -0.476484 0.112646
v 0.345720 -0.465986 0.117651
v 0.380724 -0.472487 0.146140
v 0.325716 -0.487471 0.303641
v 0.344225 -0.560469 0.147147
v 0.380220 -0.484480 0.146643
v 0.299730 -0.571974 0.277640
v 0.245226 -0.655470 0.223151
v 0.378725 -0.461989 0.151144
v 0.380724 -0.472487 0.146140
v 0.355730 -0.391981 0.220145
v 0.326219 -0.388472 0.304144
v 0.350222 -0.380995 0.229651
v 0.331728 -0.346968 0.267142
v 0.313723 -0.290968 0.291647
v 0.332720 -0.312483 0.246649
v 0.340715 -0.298994 0.215643
v 0.315218 -0.280470 0.293143
v 0.337221 -0.228468 0.266653
v 0.339220 -0.225966 0.263144
v 0.354723 -0.283491 0.188147
v 0.385729 -0.243971 0.134146
v 0.379717 -0.265974 0.134650
v 0.342730 -0.209974 0.231146
v 0.334215 -0.098982 0.120642
v 0.318727 -0.149489 0.243643
v 0.299730 -0.113966 0.277640
v 0.281221 -0.034468 0.259146
v 0.142717 -0.098982 0.312643
v 0.254229 -0.209486 0.322150
v 0.267717 -0.149489 0.298651
v 0.299730 -0.113966 0.277640
v 0.281221 -0.034468 0.259146
v 0.156221 -0.243971 0.363654
v 0.285219 -0.225966 0.317145
v 0.209719 -0.283979 0.332648
v 0.156725 -0.265974 0.357642
v 0.237719 -0.298994 0.318640
v 0.288729 -0.228468 0.315146
v 0.315218 -0.280470 0.293143
v 0.313723 -0.290968 0.291647
v 0.268724 -0.312483 0.310645
v 0.289217 -0.346968 0.309653
v 0.326219 -0.388472 0.304144
v 0.251726 -0.380995 0.328146
v 0.242220 -0.391981 0.333640
v 0.325716 -0.487471 0.303641
v 0.173220 -0.461989 0.357153
v 0.168718 -0.484480 0.358145
v 0.168230 -0.472487 0.358649
v 0.169222 -0.560469 0.322150
v 0.299730 -0.571974 0.277640
v 0.245226 -0.655470 0.223151
v 0.405230 -0.138990 -0.017358
v 0.334215 -0.098982 0.120642
v 0.385729 -0.243971 0.134146
v 0.466722 -0.232466 -0.034860
v 0.400225 -0.252974 0.097647
v 0.379717 -0.265974 0.134650
v 0.415224 -0.303968 0.041144
v 0.444216 -0.301985 -0.019357
v 0.421724 -0.315474 0.031653
v 0.429216 -0.397993 0.047644
v 0.505724 -0.429976 -0.033853
v 0.427217 -0.456465 0.051642
v 0.456728 -0.498488 -0.007349
v 0.404726 -0.488966 0.096640
v 0.407717 -0.581465 0.020651
v 0.380220 -0.513990 0.120642
v 0.344225 -0.560469 0.147147
v 0.310228 -0.660994 0.068152
v 0.271227 -0.633986 0.143652
v 0.380220 -0.484480 0.146643
v 0.383226 -0.484968 0.140646
v 0.380724 -0.472487 0.146140
v 0.004717 -0.138990 0.383139
v 0.156221 -0.243971 0.363654
v 0.142717 -0.098982 0.312643
v -0.012770 -0.232466 0.444647
v 0.120226 -0.252974 0.378653
v 0.156725 -0.265974 0.357642
v 0.063219 -0.303968 0.393149
v 0.002718 -0.301985 0.422141
v 0.053728 -0.315474 0.399649
v 0.069719 -0.397993 0.407141
v -0.011778 -0.429976 0.483649
v 0.073717 -0.456465 0.405142
v 0.014727 -0.498488 0.434653
v 0.118715 -0.488966 0.383139
v 0.042223 -0.581465 0.385641
v 0.143221 -0.513990 0.359152
v 0.169222 -0.560469 0.322150
v 0.090227 -0.660994 0.288153
v 0.165728 -0.633986 0.249152
v 0.168718 -0.484480 0.358145
v 0.162722 -0.484968 0.361151
v 0.168230 -0.472487 0.358649
v 0.042223 -0.581465 0.385641
v -0.025282 -0.573469 0.302145
v 0.090227 -0.660994 0.288153
v 0.048220 -0.641981 0.237143
v 0.156725 -0.687483 0.134650
v 0.407717 -0.581465 0.020651
v 0.324221 -0.573469 -0.047357
v 0.310228 -0.660994 0.068152
v 0.259218 -0.641981 0.026144
v 0.156725 -0.687483 0.134650
v 0.020220 -0.319471 0.366644
v 0.053728 -0.315474 0.399649
v 0.029726 -0.307966 0.359641
v 0.063219 -0.303968 0.393149
v 0.086718 -0.256971 0.345145
v 0.120226 -0.252974 0.378653
v 0.123217 -0.269972 0.324652
v 0.156725 -0.265974 0.357642
v 0.176729 -0.287977 0.299139
v 0.209719 -0.283979 0.332648
v 0.204729 -0.302992 0.285651
v 0.237719 -0.298994 0.318640
v 0.235216 -0.316481 0.277151
v 0.268724 -0.312483 0.310645
v 0.344225 -0.560469 0.147147
v 0.245226 -0.655470 0.223151
v 0.271227 -0.633986 0.143652
v 0.156725 -0.687483 0.134650
v 0.169222 -0.560469 0.322150
v 0.245226 -0.655470 0.223151
v 0.165728 -0.633986 0.249152
v 0.156725 -0.687483 0.134650
v 0.310228 -0.660994 0.068152
v 0.271227 -0.633986 0.143652
v 0.156725 -0.687483 0.134650
v 0.090227 -0.660994 0.288153
v 0.165728 -0.633986 0.249152
v 0.156725 -0.687483 0.134650
v 0.318727 -0.149489 0.243643
v 0.276720 -0.154982 0.201651
v 0.257723 -0.118971 0.235648
v 0.299730 -0.113966 0.277640
v 0.267717 -0.149489 0.298651
v 0.225725 -0.154493 0.256644
v 0.346727 -0.269972 0.101141
v 0.367220 -0.256971 0.064642
v 0.400225 -0.252974 0.097647
v 0.415224 -0.303968 0.041144
v 0.379717 -0.265974 0.134650
v 0.381716 -0.307966 0.007651
v 0.321718 -0.287977 0.155142
v 0.421724 -0.315474 0.031653
v 0.354723 -0.283491 0.188147
v 0.388719 -0.319471 -0.001855
v 0.307222 -0.302992 0.182654
v 0.340715 -0.298994 0.215643
v 0.299730 -0.316481 0.213644
v 0.332720 -0.312483 0.246649
v -0.066282 -0.500471 0.334143
v 0.014727 -0.498488 0.434653
v -0.106276 -0.443495 0.367148
v -0.011778 -0.429976 0.483649
v 0.042223 -0.581465 0.385641
v 0.002718 -0.301985 0.422141
v -0.025282 -0.573469 0.302145
v -0.077284 -0.323469 0.323141
v -0.099272 -0.261488 0.337653
v -0.012770 -0.232466 0.444647
v -0.066771 -0.174971 0.294653
v 0.004717 -0.138990 0.383139
v 0.110216 -0.517988 0.325644
v 0.143221 -0.513990 0.359152
v 0.129717 -0.489485 0.327643
v 0.162722 -0.484968 0.361151
v 0.134722 -0.476484 0.325140
v 0.235216 -0.316481 0.277151
v 0.168230 -0.472487 0.358649
v 0.268724 -0.312483 0.310645
v 0.139727 -0.465986 0.323645
v 0.255724 -0.350966 0.276144
v 0.173220 -0.461989 0.357153
v 0.289217 -0.346968 0.309653
v 0.208727 -0.395979 0.300146
v 0.251726 -0.380995 0.328146
v 0.242220 -0.391981 0.333640
v 0.218721 -0.384993 0.295142
v 0.295229 -0.233992 0.224646
v 0.315218 -0.280470 0.293143
v 0.337221 -0.228468 0.266653
v 0.273226 -0.285475 0.251151
v 0.342730 -0.209974 0.231146
v 0.300722 -0.214979 0.189139
v 0.318727 -0.149489 0.243643
v 0.276720 -0.154982 0.201651
v 0.421724 -0.315474 0.031653
v 0.388719 -0.319471 -0.001855
v 0.396227 -0.401991 0.014151
v 0.429216 -0.397993 0.047644
v 0.427217 -0.456465 0.051642
v 0.394228 -0.460493 0.018652
v 0.334215 -0.098982 0.120642
v 0.142717 -0.098982 0.312643
v 0.281221 -0.034468 0.259146
v -0.077284 -0.323469 0.323141
v 0.345217 -0.323469 -0.099359
v 0.048220 -0.641981 0.237143
v -0.025282 -0.573469 0.302145
v -0.066282 -0.500471 0.334143
v -0.106276 -0.443495 0.367148
v 0.259218 -0.641981 0.026144
v 0.156725 -0.687483 0.134650
v 0.324221 -0.573469 -0.047357
v 0.356218 -0.500471 -0.088358
v 0.389223 -0.443495 -0.128351
v -0.066771 -0.174971 0.294653
v -0.099272 -0.261488 0.337653
v 0.316729 -0.174971 -0.088861
v 0.359728 -0.261488 -0.121347
v -0.066771 -0.174971 0.294653
v 0.334215 -0.098982 0.120642
v 0.316729 -0.174971 -0.088861
v 0.405230 -0.138990 -0.017358
v 0.142717 -0.098982 0.312643
v 0.004717 -0.138990 0.383139
v 0.073717 -0.456465 0.405142
v 0.040224 -0.460493 0.372153
v 0.085726 -0.493483 0.349646
v 0.118715 -0.488966 0.383139
v 0.110216 -0.517988 0.325644
v 0.143221 -0.513990 0.359152
v 0.255724 -0.350966 0.276144
v 0.289217 -0.346968 0.309653
v 0.251726 -0.380995 0.328146
v 0.218721 -0.384993 0.295142
v 0.295229 -0.233992 0.224646
v 0.337221 -0.228468 0.266653
v 0.339220 -0.225966 0.263144
v 0.297228 -0.230970 0.221152
v 0.342730 -0.209974 0.231146
v 0.300722 -0.214979 0.189139
v 0.212221 -0.214979 0.279654
v 0.254229 -0.209486 0.322150
v 0.242723 -0.230970 0.275153
v 0.285219 -0.225966 0.317145
v 0.246721 -0.233992 0.273154
v 0.288729 -0.228468 0.315146
v 0.427217 -0.456465 0.051642
v 0.394228 -0.460493 0.018652
v 0.298220 -0.350966 0.234152
v 0.371721 -0.493483 0.063651
v 0.331728 -0.346968 0.267142
v 0.404726 -0.488966 0.096640
v 0.350222 -0.380995 0.229651
v 0.380220 -0.513990 0.120642
v 0.317217 -0.384993 0.196646
v 0.347216 -0.517988 0.087653
v 0.370729 -0.066481 0.015646
v 0.388720 -0.143477 -0.040857
v 0.358721 -0.101484 -0.036859
v 0.412218 -0.103987 0.039648
v 0.398729 -0.198469 0.048148
v 0.367723 -0.033491 0.157645
v 0.355226 -0.107985 0.098639
v 0.335222 -0.033491 0.076651
v 0.235216 0.645525 0.073141
v 0.393724 -0.064985 0.188651
v 0.353228 -0.185988 0.198645
v 0.213228 -0.676466 0.077643
v 0.220217 -0.713972 0.121649
v 0.205217 -0.715468 0.086142
v 0.208727 -0.745466 0.082648
v 0.231722 -0.671980 0.121649
v 0.229219 -0.651472 0.062140
v 0.252230 -0.645491 0.119147
v 0.230226 -0.745466 0.130652
v 0.226229 -0.806471 0.065146
v 0.246721 -0.814467 0.103140
v 0.236223 -0.826979 0.104147
v 0.218721 -0.820967 0.072653
v 0.218218 -0.033491 0.268149
v 0.156221 -0.113966 0.241644
v 0.137224 -0.033491 0.236151
v 0.132219 0.649523 0.223639
v 0.245729 -0.075483 0.285147
v 0.210726 -0.187971 0.329642
v 0.023226 -0.119978 0.294150
v 0.111727 -0.119978 0.322653
v 0.031221 -0.159468 0.299139
v 0.070726 -0.198469 0.376639
v 0.075716 -0.084974 0.306143
v 0.008730 -0.062971 0.280142
v 0.305727 -0.072493 0.226645
v 0.367723 -0.033491 0.157645
v 0.287218 -0.033491 0.201147
v 0.235216 0.645525 0.073141
v 0.393724 -0.064985 0.188651
v 0.353228 -0.185988 0.198645
v 0.218218 -0.033491 0.268149
v 0.181215 -0.033491 0.339651
v 0.204225 -0.067976 0.372153
v 0.132219 0.649523 0.223639
v 0.245729 -0.075483 0.285147
v 0.210726 -0.187971 0.329642
v 0.344728 -0.120466 0.089148
v 0.412218 -0.103987 0.039648
v 0.398729 -0.198469 0.048148
v 0.111727 -0.119978 0.322653
v 0.061724 -0.103987 0.390143
v 0.070726 -0.198469 0.376639
v 0.213228 -0.669966 0.172644
v 0.165728 -0.715468 0.181647
v 0.205217 -0.713972 0.163153
v 0.212221 -0.751478 0.183142
v 0.164217 -0.671980 0.196143
v 0.227724 -0.642988 0.186148
v 0.163729 -0.644972 0.216650
v 0.162722 -0.759993 0.207144
v 0.197222 -0.798475 0.155646
v 0.233721 -0.812971 0.140143
v 0.197725 -0.814467 0.145651
v 0.226229 -0.825972 0.133139
v 0.231722 -0.671980 0.121649
v 0.213228 -0.669966 0.172644
v 0.220217 -0.713972 0.121649
v 0.227724 -0.642988 0.186148
v 0.252230 -0.645491 0.119147
v 0.205217 -0.713972 0.163153
v 0.230226 -0.745466 0.130652
v 0.212221 -0.751478 0.183142
v 0.233721 -0.812971 0.140143
v 0.246721 -0.814467 0.103140
v 0.236223 -0.826979 0.104147
v 0.226229 -0.825972 0.133139
v 0.218721 -0.820967 0.072653
v 0.197725 -0.814467 0.145651
v 0.162218 -0.818495 0.129141
v 0.236223 -0.826979 0.104147
v 0.226229 -0.825972 0.133139
v 0.106722 -0.765974 0.184653
v 0.162722 -0.759993 0.207144
v 0.154222 -0.803480 0.136649
v 0.197222 -0.798475 0.155646
v 0.114229 -0.106489 0.328650
v 0.156221 -0.113966 0.241644
v 0.210726 -0.187971 0.329642
v -0.018278 -0.143477 0.366141
v 0.031221 -0.159468 0.299139
v 0.070726 -0.198469 0.376639
v 0.388720 -0.143477 -0.040857
v 0.321230 -0.159468 0.009146
v 0.398729 -0.198469 0.048148
v 0.355226 -0.107985 0.098639
v 0.266725 -0.114973 0.136649
v 0.353228 -0.185988 0.198645
v -0.014280 -0.101484 0.336645
v -0.018278 -0.143477 0.366141
v 0.038225 -0.066481 0.348151
v 0.061724 -0.103987 0.390143
v 0.070726 -0.198469 0.376639
v 0.181215 -0.033491 0.339651
v 0.100725 -0.033491 0.307150
v 0.114229 -0.106489 0.328650
v 0.132219 0.649523 0.223639
v 0.204225 -0.067976 0.372153
v 0.210726 -0.187971 0.329642
v 0.164217 -0.671980 0.196143
v 0.113222 -0.675978 0.178152
v 0.165728 -0.715468 0.181647
v 0.097719 -0.650465 0.193640
v 0.163729 -0.644972 0.216650
v 0.124224 -0.718489 0.167151
v 0.106722 -0.765974 0.184653
v 0.162722 -0.759993 0.207144
v 0.154222 -0.803480 0.136649
v 0.197222 -0.798475 0.155646
v 0.197725 -0.814467 0.145651
v 0.162218 -0.818495 0.129141
v 0.266725 -0.114973 0.136649
v 0.287218 -0.033491 0.201147
v 0.254717 -0.033491 0.120154
v 0.235216 0.645525 0.073141
v 0.305727 -0.072493 0.226645
v 0.353228 -0.185988 0.198645
v 0.316225 -0.119978 0.001151
v 0.321230 -0.159468 0.009146
v 0.344728 -0.120466 0.089148
v 0.398729 -0.198469 0.048148
v 0.328218 -0.084974 0.053641
v 0.302217 -0.062971 -0.013849
v 0.124224 -0.718489 0.167151
v 0.208727 -0.745466 0.082648
v 0.154222 -0.803480 0.136649
v 0.106722 -0.765974 0.184653
v 0.162218 -0.818495 0.129141
v 0.218721 -0.820967 0.072653
v 0.226229 -0.806471 0.065146
v 0.205217 -0.715468 0.086142
v 0.213228 -0.676466 0.077643
v 0.113222 -0.675978 0.178152
v 0.229219 -0.651472 0.062140
v 0.097719 -0.650465 0.193640
v 0.137224 -0.033491 0.236151
v 0.114229 -0.106489 0.328650
v 0.100725 -0.033491 0.307150
v 0.132219 0.649523 0.223639
v 0.156221 -0.113966 0.241644
v 0.023226 -0.119978 0.294150
v -0.018278 -0.143477 0.366141
v -0.014280 -0.101484 0.336645
v 0.008730 -0.062971 0.280142
v 0.031221 -0.159468 0.299139
v 0.316225 -0.119978 0.001151
v 0.388720 -0.143477 -0.040857
v 0.321230 -0.159468 0.009146
v 0.358721 -0.101484 -0.036859
v 0.302217 -0.062971 -0.013849
v 0.254717 -0.033491 0.120154
v 0.355226 -0.107985 0.098639
v 0.266725 -0.114973 0.136649
v 0.335222 -0.033491 0.076651
v 0.235216 0.645525 0.073141
v -0.014280 -0.101484 0.336645
v 0.038225 -0.066481 0.348151
v 0.008730 -0.062971 0.280142
v 0.370729 -0.066481 0.015646
v 0.358721 -0.101484 -0.036859
v 0.302217 -0.062971 -0.013849
v 0.305727 -0.072493 0.226645
v 0.367723 -0.033491 0.157645
v 0.393724 -0.064985 0.188651
v 0.218218 -0.033491 0.268149
v 0.181215 -0.033491 0.339651
v 0.204225 -0.067976 0.372153
v 0.344728 -0.120466 0.089148
v 0.370729 -0.066481 0.015646
v 0.328218 -0.084974 0.053641
v 0.302217 -0.062971 -0.013849
v 0.412218 -0.103987 0.039648
v 0.111727 -0.119978 0.322653
v 0.038225 -0.066481 0.348151
v 0.061724 -0.103987 0.390143
v 0.075716 -0.084974 0.306143
v 0.008730 -0.062971 0.280142
v 0.257723 -0.119490 0.236151
v 0.282717 -0.225477 0.261145
v 0.276720 -0.154982 0.202139
v 0.225725 -0.154982 0.257147
v 0.297228 -0.231489 0.221152
v 0.300722 -0.214979 0.189139
v 0.295229 -0.233992 0.225150
v 0.273226 -0.285994 0.251639
v 0.246721 -0.233992 0.273642
v 0.242723 -0.231489 0.275641
v 0.212221 -0.214979 0.280142
v 0.349718 -0.399489 0.109152
v 0.394228 -0.460493 0.018652
v 0.396227 -0.402479 0.014639
v 0.371721 -0.493483 0.063651
v 0.381716 -0.308485 0.008139
v 0.388719 -0.319471 -0.001352
v 0.349718 -0.489485 0.107642
v 0.347216 -0.517988 0.087653
v 0.347216 -0.476973 0.113150
v 0.345720 -0.466475 0.118140
v 0.322222 -0.396467 0.187140
v 0.335726 -0.311476 0.102652
v 0.367220 -0.256971 0.065146
v 0.346727 -0.270491 0.101645
v 0.321718 -0.287977 0.155646
v 0.317217 -0.384993 0.197150
v 0.307222 -0.302992 0.183142
v 0.299730 -0.316481 0.213644
v 0.298220 -0.350966 0.234152
v 0.218721 -0.384993 0.295142
v 0.204729 -0.302992 0.285651
v 0.124727 -0.311476 0.314139
v 0.235216 -0.316481 0.277640
v 0.255724 -0.350966 0.276648
v 0.176729 -0.287977 0.299643
v 0.123217 -0.270491 0.325140
v 0.086718 -0.256971 0.345648
v 0.208727 -0.396467 0.300650
v 0.029726 -0.308485 0.360144
v 0.130724 -0.399489 0.328146
v 0.139727 -0.465986 0.324149
v 0.134722 -0.476484 0.325644
v 0.036226 -0.402479 0.374640
v 0.020220 -0.319471 0.367148
v 0.040224 -0.460493 0.372153
v 0.085726 -0.493483 0.350150
v 0.129717 -0.489485 0.328146
v 0.110216 -0.517988 0.326147
vn 0.9224 -0.0000 -0.3863
vn 0.9224 -0.0000 0.3863
vn 0.3863 -0.0000 0.9224
vn 0.3863 -0.0000 -0.9224
vn -0.3863 -0.0000 0.9224
vn -0.9224 -0.0000 0.3863
vn -0.0000 -1.0000 -0.0000
vn 0.0002 -1.0000 -0.0000
vn -0.0001 -1.0000 -0.0000
vn -0.0003 -1.0000 -0.0000
vn -0.9224 -0.0000 -0.3863
vn -0.3863 -0.0000 -0.9224
vn 0.0001 1.0000 -0.0000
vn -0.0000 1.0000 -0.0000
vn 0.0001 1.0000 0.0001
vn -0.0001 1.0000 -0.0000
vn 0.5990 0.0867 -0.7960
vn 0.4560 0.4717 -0.7547
vn 0.6147 0.0315 -0.7881
vn 0.6408 -0.0237 -0.7674
vn 0.6370 0.0157 -0.7707
vn 0.6142 -0.1654 -0.7717
vn 0.6226 -0.1261 -0.7723
vn 0.5150 -0.6021 -0.6101
vn 0.5125 -0.5992 -0.6150
vn 0.4241 -0.6597 -0.6204
vn 0.4153 -0.6738 -0.6111
vn 0.7014 0.0709 -0.7093
vn 0.6864 -0.3471 -0.6391
vn 0.6764 -0.3696 -0.6371
vn 0.5774 0.5062 -0.6406
vn 0.5981 0.4643 -0.6532
vn 0.6183 -0.5635 -0.5479
vn 0.6082 -0.5844 -0.5371
vn 0.6893 0.1176 -0.7148
vn 0.6305 0.3783 -0.6778
vn 0.5581 0.5503 -0.6210
vn 0.4579 0.7026 -0.5447
vn 0.4713 0.6833 -0.5577
vn 0.5282 -0.7253 -0.4415
vn 0.5997 -0.6075 -0.5208
vn 0.6697 0.2443 -0.7013
vn 0.6765 0.2282 -0.7002
vn 0.4646 0.6930 -0.5512
vn 0.4415 0.7253 -0.5282
vn 0.4255 0.7406 -0.5200
vn 0.6213 0.4089 -0.6685
vn 0.2367 0.9074 -0.3471
vn -0.0395 0.9961 -0.0791
vn 0.4646 0.6930 -0.5513
vn 0.6213 0.4089 -0.6684
vn 0.5346 0.5897 -0.6054
vn 0.5680 0.5285 -0.6310
vn 0.9300 -0.1891 0.3152
vn 0.8335 -0.5033 0.2280
vn 0.9300 -0.1891 0.3153
vn 0.8292 -0.5133 0.2211
vn 0.6278 -0.7769 0.0471
vn 0.9438 -0.0079 0.3303
vn 0.9434 0.0314 0.3302
vn 0.9434 0.0786 0.3223
vn 0.9326 0.1646 0.3213
vn 0.9372 -0.0394 0.3465
vn 0.9254 -0.1503 0.3480
vn 0.9111 -0.2121 0.3534
vn 0.9356 -0.1022 0.3381
vn 0.9111 -0.2120 0.3534
vn 0.9479 0.0395 0.3160
vn 0.9170 0.3083 0.2530
vn 0.2432 0.3138 0.9178
vn 0.3136 0.0392 0.9487
vn 0.3381 -0.1022 0.9356
vn 0.3534 -0.2121 0.9111
vn 0.3476 -0.1580 0.9242
vn 0.3534 -0.2120 0.9111
vn 0.3396 -0.0395 0.9398
vn 0.3143 0.1650 0.9349
vn 0.3223 0.0786 0.9434
vn 0.3232 0.0315 0.9458
vn 0.3152 -0.1891 0.9300
vn 0.3303 -0.0079 0.9438
vn 0.2280 -0.5032 0.8335
vn 0.2211 -0.5133 0.8292
vn 0.0471 -0.7769 0.6278
vn 0.8370 0.3948 0.3790
vn 0.9054 0.0787 0.4173
vn 0.9034 0.1021 0.4164
vn 0.8863 -0.2039 0.4157
vn 0.8814 -0.0866 0.4643
vn 0.8675 0.0237 0.4969
vn 0.7938 0.2593 0.5501
vn 0.8085 0.0942 0.5809
vn 0.8075 0.0470 0.5880
vn 0.7942 -0.1101 0.5976
vn 0.8096 -0.2044 0.5502
vn 0.8176 -0.3066 0.4874
vn 0.7695 -0.4397 0.4632
vn 0.8170 -0.3535 0.4556
vn 0.7367 -0.4859 0.4702
vn 0.5722 -0.6663 0.4782
vn 0.4957 -0.7238 0.4799
vn 0.8685 -0.1895 0.4579
vn 0.8562 -0.2435 0.4556
vn 0.8975 -0.0079 0.4409
vn 0.3790 0.3948 0.8370
vn 0.4173 0.0787 0.9054
vn 0.4164 0.1021 0.9034
vn 0.4157 -0.2039 0.8863
vn 0.4581 -0.0869 0.8846
vn 0.4969 0.0237 0.8675
vn 0.5501 0.2593 0.7938
vn 0.5809 0.0942 0.8085
vn 0.5917 0.0473 0.8047
vn 0.5976 -0.1101 0.7942
vn 0.5502 -0.2044 0.8096
vn 0.4874 -0.3066 0.8176
vn 0.4632 -0.4397 0.7695
vn 0.4556 -0.3535 0.8170
vn 0.4641 -0.4877 0.7394
vn 0.4782 -0.6663 0.5722
vn 0.4800 -0.7238 0.4957
vn 0.4580 -0.1895 0.8685
vn 0.4556 -0.2435 0.8562
vn 0.4409 -0.0079 0.8975
vn -0.6112 -0.6738 0.4152
vn -0.4963 -0.8507 0.1733
vn -0.6204 -0.6597 0.4241
vn -0.4888 -0.8594 0.1498
vn -0.3929 -0.9194 -0.0157
vn 0.4152 -0.6739 -0.6111
vn 0.1733 -0.8507 -0.4962
vn 0.1498 -0.8594 -0.4888
vn -0.0157 -0.9194 -0.3929
vn 0.5369 -0.7185 -0.4422
vn 0.6764 -0.3697 -0.6371
vn 0.6864 -0.3472 -0.6390
vn 0.2924 -0.9404 -0.1739
vn 0.1104 -0.9939 0.0079
vn -0.1738 -0.9404 0.2924
vn -0.2213 -0.9169 0.3320
vn -0.2367 -0.9074 0.3472
vn -0.2844 -0.8770 0.3872
vn -0.4415 -0.7253 0.5282
vn -0.5208 -0.6076 0.5997
vn 0.6278 -0.7770 0.0471
vn 0.6364 -0.7699 0.0471
vn 0.4259 -0.8990 -0.1025
vn 0.2280 -0.5033 0.8335
vn 0.0471 -0.7699 0.6364
vn -0.1025 -0.8990 0.4258
vn 0.4956 -0.7239 0.4799
vn 0.3406 -0.8158 0.4673
vn 0.4800 -0.7239 0.4956
vn 0.4673 -0.8159 0.3406
vn 0.0549 -0.9960 0.0706
vn -0.5502 -0.5582 0.6210
vn -0.5371 -0.5845 0.6082
vn 0.0790 -0.9957 0.0474
vn 0.6082 -0.5845 -0.5371
vn 0.6183 -0.5636 -0.5478
vn 0.2924 -0.9404 -0.1738
vn -0.1739 -0.9404 0.2924
vn 0.0079 -0.9939 0.1104
vn -0.4422 -0.7185 0.5369
vn -0.4421 -0.7185 0.5369
vn 0.3320 -0.9169 -0.2213
vn -0.6370 -0.3697 0.6764
vn 0.3472 -0.9074 -0.2367
vn -0.6437 -0.3454 0.6829
vn 0.3872 -0.8770 -0.2844
vn 0.3871 -0.8771 -0.2844
vn 0.5282 -0.7254 -0.4415
vn 0.5997 -0.6076 -0.5208
vn -0.6150 -0.5992 0.5125
vn -0.7717 -0.1653 0.6142
vn -0.7723 -0.1261 0.6226
vn -0.7674 -0.0237 0.6408
vn -0.6112 -0.6738 0.4153
vn -0.7707 0.0157 0.6370
vn -0.7881 0.0315 0.6147
vn -0.7960 0.0867 0.5991
vn -0.7574 0.4734 0.4497
vn -0.3471 0.9075 0.2367
vn -0.6684 0.4089 0.6213
vn -0.0869 0.9954 -0.0395
vn -0.6685 0.4089 0.6212
vn -0.6684 0.4090 0.6212
vn -0.6310 0.5285 0.5679
vn -0.7012 0.2443 0.6698
vn -0.4415 -0.7253 0.5283
vn -0.6056 0.5898 0.5342
vn -0.7002 0.2281 0.6765
vn -0.5512 0.6930 0.4646
vn -0.5282 0.7253 0.4415
vn -0.5200 0.7406 0.4255
vn -0.5447 0.7026 0.4579
vn -0.6211 0.5503 0.5581
vn -0.5522 0.6863 0.4733
vn -0.6210 0.5503 0.5581
vn -0.7079 0.0944 0.7000
vn -0.6770 0.3936 0.6219
vn -0.5503 -0.5581 0.6210
vn -0.7093 0.0709 0.7014
vn -0.6371 -0.3697 0.6764
vn -0.6437 -0.3453 0.6830
vn -0.6406 0.5062 0.5774
vn -0.6532 0.4643 0.5981
vn -0.3143 0.8958 -0.3143
vn -0.7005 -0.0866 -0.7084
vn -0.7005 -0.0866 -0.7083
vn 0.3614 0.8091 -0.4635
vn 0.3614 0.8091 -0.4634
vn -0.3472 0.9074 0.2367
vn -0.7002 0.2281 0.6766
vn -0.7013 0.2442 0.6697
vn -0.4573 0.8120 0.3626
vn -0.4573 0.8120 0.3627
vn 0.6942 0.1183 -0.7100
vn 0.3627 0.8120 -0.4573
vn 0.4578 0.7026 -0.5447
vn 0.4712 0.6834 -0.5576
vn -0.4635 0.8091 0.3613
vn 0.4255 0.7407 -0.5200
vn 0.6698 0.2442 -0.7013
vn 0.6765 0.2281 -0.7002
vn 0.2367 0.9074 -0.3472
vn 0.6352 0.5803 -0.5097
vn 0.8209 0.3710 -0.4341
vn 0.4734 0.6863 -0.5522
vn 0.9472 0.0553 -0.3158
vn 0.9646 -0.1569 -0.2118
vn 0.9002 0.1658 -0.4027
vn 0.9244 0.0395 -0.3793
vn 0.9109 0.1492 -0.3848
vn 0.9196 0.1336 -0.3694
vn 0.9372 -0.1654 -0.3072
vn 0.9137 -0.3308 -0.2363
vn 0.8402 -0.4476 -0.3062
vn 0.9221 -0.0237 -0.3862
vn 0.9210 -0.0551 -0.3858
vn 0.8818 0.2598 -0.3936
vn 0.8215 -0.4897 -0.2923
vn 0.7528 -0.6117 -0.2431
vn 0.8770 0.2844 -0.3872
vn 0.8742 -0.0709 -0.4804
vn 0.8814 0.0157 -0.4722
vn 0.6544 -0.5835 -0.4809
vn 0.6544 -0.5835 -0.4810
vn 0.4024 -0.0158 -0.9153
vn 0.4473 -0.1177 -0.8866
vn 0.3862 -0.0158 -0.9223
vn 0.3700 -0.0157 -0.9289
vn 0.5115 -0.3069 -0.8026
vn 0.5350 -0.4485 -0.7160
vn 0.3066 -0.1258 -0.9435
vn 0.4561 -0.4954 -0.7393
vn 0.3635 -0.2371 -0.9009
vn 0.4952 -0.6524 -0.5738
vn 0.3075 -0.1025 -0.9460
vn 0.3150 -0.1496 -0.9372
vn 0.3618 0.4169 0.8338
vn 0.3853 0.4954 0.7785
vn 0.4261 0.3630 0.8286
vn 0.4635 0.1964 0.8641
vn 0.4017 -0.0630 0.9136
vn 0.3850 0.2514 0.8880
vn 0.8109 0.4329 0.3937
vn 0.8491 0.3144 0.4245
vn 0.8791 0.1412 0.4552
vn 0.8491 0.3145 0.4245
vn 0.8831 0.1971 0.4258
vn 0.8574 0.3225 0.4012
vn 0.8913 -0.1026 0.4417
vn 0.4790 0.3926 0.7852
vn 0.5974 -0.0079 0.8019
vn 0.5209 0.2841 0.8050
vn 0.7945 0.3618 0.4877
vn 0.8013 0.2985 0.5185
vn 0.8018 -0.0078 0.5975
vn 0.3934 -0.4485 0.8026
vn 0.4112 0.0633 0.9094
vn 0.4110 0.0711 0.9089
vn 0.3766 -0.1255 0.9179
vn 0.4016 -0.3937 0.8268
vn 0.3706 -0.5598 0.7412
vn 0.3791 0.0474 0.9241
vn 0.2515 -0.5423 0.8017
vn 0.2367 -0.5444 0.8048
vn 0.1494 -0.5191 0.8416
vn 0.1494 -0.5191 0.8415
vn 0.8673 -0.3785 0.3233
vn 0.8387 -0.4431 0.3165
vn 0.9379 -0.0000 0.3468
vn 0.7726 -0.5597 0.2996
vn 0.9356 0.0708 0.3459
vn 0.9153 0.2288 0.3314
vn 0.9197 0.2123 0.3302
vn 0.9400 -0.0790 0.3318
vn 0.8979 -0.2993 0.3229
vn 0.7593 -0.5853 0.2846
vn 0.7592 -0.5853 0.2847
vn -0.1336 -0.9903 0.0393
vn -0.1337 -0.9902 0.0393
vn -0.2044 -0.7154 0.6682
vn -0.2989 -0.3854 0.8730
vn -0.3302 -0.2122 0.9197
vn -0.1965 -0.7389 0.6445
vn -0.7804 -0.5203 -0.3468
vn -0.8267 -0.4095 -0.3858
vn -0.6298 -0.7400 -0.2362
vn -0.7234 -0.5504 -0.4167
vn -0.7419 -0.4972 -0.4499
vn -0.5055 -0.8452 -0.1737
vn -0.4009 -0.5818 -0.7076
vn -0.1737 -0.8452 -0.5055
vn -0.4569 -0.4806 -0.7485
vn -0.3058 -0.5725 -0.7607
vn -0.1967 -0.7710 -0.6057
vn -0.3630 -0.4261 -0.8286
vn -0.5501 0.6837 0.4794
vn -0.4392 0.3764 0.8157
vn -0.5097 0.5803 0.6352
vn -0.3157 0.0553 0.9472
vn -0.2117 -0.1569 0.9646
vn -0.4194 0.2295 0.8783
vn -0.3950 0.1817 0.9006
vn -0.4182 0.1262 0.8996
vn -0.3698 0.1259 0.9205
vn -0.3630 -0.1262 0.9232
vn -0.2913 -0.3307 0.8976
vn -0.2528 -0.4978 0.8296
vn -0.2598 -0.4723 0.8423
vn -0.3547 0.0946 0.9302
vn -0.2203 -0.5978 0.7708
vn -0.2202 -0.5978 0.7708
vn -0.3554 0.0711 0.9320
vn -0.3301 -0.2123 0.9198
vn -0.2044 -0.7153 0.6682
vn -0.2992 -0.5275 0.7952
vn -0.1965 -0.7388 0.6446
vn -0.2992 -0.5275 0.7951
vn -0.8852 -0.1660 0.4347
vn -0.9177 -0.0628 0.3922
vn -0.9219 -0.0315 0.3861
vn -0.9290 -0.0000 0.3700
vn -0.8030 -0.3306 0.4959
vn -0.7290 -0.4390 0.5252
vn -0.9435 -0.1258 0.3066
vn -0.9026 -0.2297 0.3642
vn -0.7393 -0.4954 0.4561
vn -0.5738 -0.6524 0.4952
vn -0.9460 -0.1025 0.3075
vn -0.9372 -0.1496 0.3150
vn -0.7072 -0.0000 -0.7071
vn -0.7071 -0.0000 -0.7071
vn -0.7071 0.0001 -0.7071
vn -0.7069 0.0002 -0.7073
vn -0.7072 -0.0000 -0.7070
vn -0.7073 -0.0000 -0.7069
vn -0.8858 -0.1254 -0.4468
vn -0.7804 -0.5202 -0.3468
vn -0.8843 -0.1500 -0.4422
vn -0.8895 -0.0157 -0.4566
vn -0.8268 -0.4094 -0.3858
vn -0.7856 -0.2985 -0.5420
vn -0.7234 -0.5504 -0.4168
vn -0.7874 -0.2913 -0.5433
vn -0.7717 -0.3307 -0.5433
vn -0.5420 -0.2985 -0.7856
vn -0.4010 -0.5818 -0.7076
vn -0.4570 -0.4806 -0.7485
vn -0.5433 -0.2913 -0.7874
vn -0.5433 -0.3307 -0.7716
vn -0.4474 -0.1648 -0.8790
vn -0.3059 -0.5725 -0.7607
vn -0.4409 -0.2047 -0.8739
vn -0.4743 -0.0711 -0.8775
vn -0.5502 0.6838 0.4794
vn -0.5097 0.5803 0.6351
vn -0.5718 0.7675 0.2898
vn 0.4733 0.6863 -0.5522
vn 0.2911 0.7710 -0.5665
vn 0.6352 0.5803 -0.5098
vn 0.8490 0.3145 0.4245
vn 0.8109 0.4330 0.3936
vn 0.4789 0.3926 0.7851
vn 0.1338 0.8341 0.5351
vn 0.1185 0.8451 0.5213
vn -0.1019 0.9330 0.3450
vn 0.7945 0.3619 0.4877
vn 0.5270 0.8416 0.1180
vn 0.5351 0.8341 0.1337
vn 0.3450 0.9331 -0.1019
vn 0.6831 0.3298 0.6517
vn 0.7093 0.0709 0.7014
vn 0.9205 0.2989 0.2517
vn 0.2914 0.2835 0.9136
vn 0.9398 0.1895 0.2843
vn 0.9205 0.2990 0.2518
vn 0.9126 -0.2045 0.3540
vn 0.6899 -0.2195 0.6899
vn 0.3540 -0.2045 0.9126
vn 0.3063 0.1806 0.9346
vn 0.9195 0.0786 0.3851
vn 0.8975 -0.0000 0.4409
vn 0.8942 0.0864 0.4392
vn 0.8888 -0.0944 0.4484
vn 0.8984 0.0709 0.4334
vn 0.8868 0.1648 0.4317
vn 0.8841 -0.1263 0.4499
vn 0.8106 -0.3856 0.4407
vn 0.9052 -0.0000 0.4250
vn 0.9437 -0.0157 0.3303
vn 0.9379 0.1261 0.3232
vn 0.9223 -0.0158 0.3862
vn 0.8832 -0.2129 0.4179
vn 0.8919 -0.2210 0.3946
vn 0.9105 -0.2276 0.3453
vn 0.9349 0.1650 0.3143
vn 0.9412 0.0949 0.3243
vn 0.9349 0.1650 0.3142
vn 0.3311 0.1025 0.9380
vn 0.3863 -0.0158 0.9223
vn 0.3529 -0.2196 0.9096
vn 0.3953 -0.2135 0.8934
vn 0.4179 -0.2129 0.8832
vn 0.3231 0.1261 0.9379
vn 0.4334 0.0709 0.8984
vn 0.3851 0.0786 0.9195
vn 0.3303 -0.0157 0.9437
vn 0.4250 -0.0079 0.9052
vn 0.4393 0.0862 0.8942
vn 0.4317 0.1648 0.8869
vn 0.4409 -0.0000 0.8976
vn 0.4487 -0.0866 0.8895
vn 0.4472 -0.1177 0.8866
vn 0.4402 -0.3537 0.8253
vt 4.014410 -33.052101
vt 4.014410 -32.947899
vt 3.985590 -32.947899
vt 3.985590 -33.052101
vt 4.014410 -32.932499
vt 3.985590 -32.932499
vt 3.985590 -33.067501
vt 4.014410 -33.067501
vt 4.014410 -33.041599
vt 3.985590 -32.958401
vt 3.985590 -33.041599
vt 4.014410 -32.958401
vt 3.947940 -33.014400
vt 4.052060 -33.014400
vt 4.052060 -32.985600
vt 3.947940 -32.985600
vt 3.958350 -33.014400
vt 4.041650 -33.014400
vt 4.041650 -32.985600
vt 4.054000 -32.985600
vt 3.958350 -32.985600
vt 3.946000 -33.014400
vt 3.946000 -32.985600
vt 4.054000 -33.014400
vt 3.958350 -33.054001
vt 3.946000 -33.041599
vt 3.932500 -33.052101
vt 3.947940 -33.067501
vt 3.932500 -32.947899
vt 4.052060 -33.067501
vt 3.946000 -32.958401
vt 4.041650 -33.054001
vt 4.067500 -33.052101
vt 4.054000 -33.041599
vt 3.958350 -32.945999
vt 3.947940 -32.932499
vt 4.041650 -32.945999
vt 4.052060 -32.932499
vt 4.054000 -32.958401
vt 4.067500 -32.947899
vt 8.032140 -42.999401
vt 8.046450 -43.035599
vt 8.055500 -43.007198
vt 8.024920 -43.033699
vt 8.014730 -43.000702
vt 8.009430 -43.032299
vt 7.979400 -43.029701
vt 7.982800 -42.992401
vt 7.965600 -42.996399
vt 7.965090 -43.028500
vt 7.944930 -43.000099
vt 7.946880 -43.026901
vt 7.989700 -43.003300
vt 8.010380 -43.007401
vt 8.011410 -42.995701
vt 7.990730 -42.991501
vt 7.976140 -42.991199
vt 7.975120 -43.002899
vt 8.051590 -42.990501
vt 8.052890 -42.975601
vt 8.036550 -42.988899
vt 8.037850 -42.973999
vt 8.020160 -42.968201
vt 8.031770 -42.983898
vt 8.033070 -42.969101
vt 8.018860 -42.983101
vt 8.011150 -42.985199
vt 8.012180 -42.973400
vt 8.002510 -42.981701
vt 8.003540 -42.970001
vt 7.992240 -42.974098
vt 7.994030 -42.985001
vt 7.995060 -42.973301
vt 7.967930 -42.994999
vt 7.961790 -42.987301
vt 7.960770 -42.999001
vt 7.991220 -42.985802
vt 7.968960 -42.983200
vt 7.974770 -42.982101
vt 7.971110 -42.994499
vt 7.973740 -42.993900
vt 7.972140 -42.982700
vt 8.000000 -42.968399
vt 7.969080 -42.950199
vt 7.962630 -42.969101
vt 8.000000 -42.947201
vt 8.000000 -42.926399
vt 7.963600 -42.974800
vt 7.962450 -42.972099
vt 7.979940 -42.992199
vt 8.000000 -42.993099
vt 7.982610 -42.995098
vt 7.992510 -43.003502
vt 8.000000 -43.017502
vt 7.988680 -43.012199
vt 7.981830 -43.015499
vt 8.000000 -43.020199
vt 7.991430 -43.033100
vt 7.990400 -43.033798
vt 7.974420 -43.019299
vt 7.959400 -43.029301
vt 7.960530 -43.023800
vt 7.984120 -43.037800
vt 7.966090 -43.065498
vt 7.990610 -43.052799
vt 8.000000 -43.061798
vt 8.000000 -43.081600
vt 8.033910 -43.065498
vt 8.015880 -43.037800
vt 8.009390 -43.052898
vt 8.040600 -43.029301
vt 8.009600 -43.033798
vt 8.025580 -43.019299
vt 8.039470 -43.023800
vt 8.018170 -43.015499
vt 8.008570 -43.033100
vt 8.011320 -43.012199
vt 8.007490 -43.003502
vt 8.017390 -42.995098
vt 8.020060 -42.992199
vt 8.036400 -42.974800
vt 8.037370 -42.969101
vt 8.037550 -42.972099
vt 8.030920 -42.950199
vt 7.929160 -43.055500
vt 7.915190 -43.032101
vt 7.950430 -43.027000
vt 7.937770 -43.014198
vt 7.921930 -43.014702
vt 7.934880 -43.011398
vt 7.936410 -42.990700
vt 7.908590 -42.982800
vt 7.937470 -42.976200
vt 7.921930 -42.965599
vt 7.949400 -42.967999
vt 7.935420 -42.944901
vt 7.957990 -42.961800
vt 7.961060 -42.924999
vt 7.981360 -42.931702
vt 7.961040 -42.969002
vt 8.070840 -43.055500
vt 8.084810 -43.032101
vt 8.049570 -43.027000
vt 8.062230 -43.014198
vt 8.078070 -43.014702
vt 8.065120 -43.011398
vt 8.063590 -42.990700
vt 8.091420 -42.982800
vt 8.062530 -42.976101
vt 8.078070 -42.965599
vt 8.050600 -42.967999
vt 8.064580 -42.944901
vt 8.042010 -42.961800
vt 8.038940 -42.924999
vt 8.018640 -42.931702
vt 8.038960 -42.969002
vt 7.938170 -43.026901
vt 7.961060 -43.008900
vt 7.935420 -43.000099
vt 7.962720 -43.025398
vt 8.000000 -43.024399
vt 8.061830 -43.026901
vt 8.064580 -43.000099
vt 8.038940 -43.008900
vt 8.037280 -43.025398
vt 7.937770 -43.006901
vt 7.934880 -42.995701
vt 7.934880 -43.007401
vt 7.937770 -42.995201
vt 7.950430 -42.999500
vt 7.950430 -42.987701
vt 7.960530 -42.996601
vt 7.960530 -42.984901
vt 7.974420 -42.991699
vt 7.974420 -42.979900
vt 7.981830 -42.989201
vt 7.981830 -42.977402
vt 7.988680 -42.985199
vt 7.988680 -42.973499
vt 8.030920 -42.988998
vt 8.000000 -42.993000
vt 8.018640 -43.002499
vt 7.969080 -42.988998
vt 7.981360 -43.002499
vt 8.000000 -42.988602
vt 8.009390 -42.991299
vt 8.009390 -42.976398
vt 8.000000 -42.973701
vt 7.990610 -42.975601
vt 7.990610 -42.990501
vt 8.039470 -42.996601
vt 8.049570 -42.999500
vt 8.049570 -42.987801
vt 8.062230 -42.995201
vt 8.039470 -42.984901
vt 8.062230 -43.006901
vt 8.025580 -42.991501
vt 8.065120 -42.995701
vt 8.025580 -42.979801
vt 8.065120 -43.007401
vt 8.018170 -42.989201
vt 8.018170 -42.977402
vt 8.011320 -42.985199
vt 8.011320 -42.973400
vt 8.034910 -43.028500
vt 8.034400 -42.996399
vt 8.020600 -43.029701
vt 8.017200 -42.992401
vt 8.055070 -43.000099
vt 7.985270 -43.000702
vt 8.053120 -43.026901
vt 7.990570 -43.032299
vt 7.975080 -43.033699
vt 7.967860 -42.999401
vt 7.953550 -43.035599
vt 7.944500 -43.007198
vt 8.038180 -42.987000
vt 8.032070 -42.994999
vt 8.039210 -42.998699
vt 8.031040 -42.983200
vt 8.028890 -42.994499
vt 8.027860 -42.982700
vt 8.026260 -42.993900
vt 7.997490 -42.981701
vt 7.987820 -42.973499
vt 7.988850 -42.985199
vt 8.025230 -42.982101
vt 7.996460 -42.970001
vt 8.008780 -42.985802
vt 8.007760 -42.974098
vt 8.005970 -42.985001
vt 8.004940 -42.973301
vt 7.968230 -42.984001
vt 7.979840 -42.968201
vt 7.966930 -42.969101
vt 7.981140 -42.983101
vt 7.947180 -42.976398
vt 7.963490 -42.989201
vt 7.962180 -42.974400
vt 7.948480 -42.991299
vt 8.010300 -43.003300
vt 7.988600 -42.995701
vt 7.989620 -43.007401
vt 8.009270 -42.991501
vt 8.023850 -42.991100
vt 8.024880 -43.002899
vt 7.925250 -43.009399
vt 8.074750 -43.009399
vt 7.962720 -42.929798
vt 7.938170 -42.946899
vt 7.925250 -42.965099
vt 7.912480 -42.979401
vt 8.037280 -42.929798
vt 8.000000 -42.918400
vt 8.061830 -42.946899
vt 8.074750 -42.965099
vt 8.087520 -42.979401
vt 7.932180 -43.046398
vt 7.918800 -43.024899
vt 8.067820 -43.046398
vt 8.081200 -43.024899
vt 8.067820 -43.035599
vt 7.966090 -42.995399
vt 7.932180 -43.035599
vt 7.929160 -43.007198
vt 8.033910 -42.995399
vt 8.070840 -43.007198
vt 8.062530 -42.991199
vt 8.050600 -42.998901
vt 8.062530 -43.002899
vt 8.050600 -42.987099
vt 8.042010 -42.998699
vt 8.042010 -42.987000
vt 8.007490 -42.970001
vt 8.007490 -42.981701
vt 8.017390 -42.973301
vt 8.017390 -42.985001
vt 7.990400 -42.969299
vt 7.991430 -42.984001
vt 7.991430 -42.969101
vt 7.990400 -42.984200
vt 7.984120 -42.974400
vt 7.984120 -42.989201
vt 8.015880 -42.988899
vt 8.015880 -42.973999
vt 8.009600 -42.984200
vt 8.009600 -42.969299
vt 8.008570 -42.983898
vt 8.008570 -42.969101
vt 7.949400 -42.998901
vt 7.937470 -42.991100
vt 7.937470 -43.002899
vt 7.949400 -42.987099
vt 7.982610 -42.973301
vt 7.992510 -42.981701
vt 7.992510 -42.970001
vt 7.957990 -42.987301
vt 7.982610 -42.985001
vt 7.957990 -42.999001
vt 50.005600 -25.008699
vt 49.986401 -25.015499
vt 49.996899 -25.020100
vt 49.996201 -24.997101
vt 49.972599 -24.997900
vt 50.013901 -24.984200
vt 49.995201 -24.996799
vt 50.013901 -25.004101
vt 50.183701 -25.022499
vt 50.005901 -24.974001
vt 49.975800 -24.979500
vt 49.853100 -25.025499
vt 49.843800 -25.016600
vt 49.843300 -25.025499
vt 49.835899 -25.025499
vt 49.854198 -25.014500
vt 49.859402 -25.025499
vt 49.860901 -25.011400
vt 49.835899 -25.013201
vt 49.820599 -25.025499
vt 49.818600 -25.015200
vt 49.815498 -25.016800
vt 49.817001 -25.025499
vt 50.013901 -24.990999
vt 49.993801 -25.006701
vt 50.013901 -25.011000
vt 50.184502 -25.014099
vt 50.003399 -24.983200
vt 49.975201 -24.981501
vt 49.992298 -25.020901
vt 49.992199 -25.000200
vt 49.982300 -25.018600
vt 50.000900 -25.009501
vt 50.006500 -25.025999
vt 49.990002 -25.004101
vt 49.966801 -25.013901
vt 49.988701 -25.013901
vt 49.975300 -25.183701
vt 49.976601 -24.975800
vt 49.967602 -25.005899
vt 50.031898 -25.013901
vt 50.012798 -25.013901
vt 50.020100 -25.184500
vt 50.033600 -25.005199
vt 50.010899 -25.003401
vt 50.024899 -24.975201
vt 49.958698 -24.992201
vt 49.941898 -24.972601
vt 49.938000 -24.996201
vt 50.041302 -24.992201
vt 50.062000 -24.996201
vt 50.058102 -24.972601
vt 49.996799 -24.854700
vt 50.006802 -24.843300
vt 49.996399 -24.843800
vt 49.998798 -24.834400
vt 50.009602 -24.854300
vt 49.996498 -24.861500
vt 50.013302 -24.861000
vt 50.011799 -24.832199
vt 49.996498 -24.822599
vt 49.987301 -24.819000
vt 49.994701 -24.818600
vt 49.987499 -24.815800
vt 49.984501 -24.854200
vt 49.986500 -24.843800
vt 49.980400 -24.860901
vt 49.986301 -24.835899
vt 49.978600 -24.818600
vt 49.980598 -24.815500
vt 50.021900 -25.025499
vt 50.005299 -25.016300
vt 50.001900 -25.025499
vt 50.019402 -25.016800
vt 50.012501 -25.013399
vt 49.999199 -25.025499
vt 49.988201 -25.011600
vt 49.982300 -25.025499
vt 50.003502 -25.014601
vt 49.958199 -24.998699
vt 49.980900 -25.006701
vt 49.975101 -24.981501
vt 49.928001 -25.015499
vt 49.948799 -25.018600
vt 49.941898 -24.997900
vt 50.071999 -25.015499
vt 50.058102 -24.997900
vt 50.051201 -25.018600
vt 50.041401 -24.996799
vt 50.023399 -24.979500
vt 50.019001 -25.005699
vt 50.003101 -25.020100
vt 50.013599 -25.015499
vt 49.994400 -25.008699
vt 50.003799 -24.997101
vt 50.027401 -24.997900
vt 49.986099 -24.984900
vt 49.986099 -25.004900
vt 50.004398 -24.998699
vt 49.815498 -25.014099
vt 49.994801 -24.975201
vt 50.024799 -24.981501
vt 50.145699 -25.013300
vt 50.146801 -25.025499
vt 50.156700 -25.015600
vt 50.140400 -25.025499
vt 50.139000 -25.009800
vt 50.157299 -25.025499
vt 50.169300 -25.025499
vt 50.167801 -25.011600
vt 50.178699 -25.025499
vt 50.181400 -25.016300
vt 50.177399 -25.014601
vt 50.182400 -25.025499
vt 50.006599 -25.005699
vt 49.986099 -24.990700
vt 49.986099 -25.010700
vt 49.816299 -25.022499
vt 49.995899 -24.982901
vt 50.024200 -24.979500
vt 50.007702 -25.020901
vt 50.017700 -25.018600
vt 50.007801 -25.000200
vt 49.999100 -25.009501
vt 49.993500 -25.025999
vt 49.988499 -24.842699
vt 50.018398 -24.835899
vt 49.999199 -24.821301
vt 49.982300 -24.830700
vt 50.001900 -24.817600
vt 50.021900 -24.816999
vt 50.024601 -24.820601
vt 50.017200 -24.843300
vt 50.020000 -24.853100
vt 49.984600 -24.853201
vt 50.025600 -24.859400
vt 49.979099 -24.859600
vt 49.978600 -25.013901
vt 49.958199 -24.995600
vt 49.959499 -25.013901
vt 49.979900 -25.184500
vt 49.980900 -24.993799
vt 49.948200 -24.992300
vt 49.928001 -24.986401
vt 49.933998 -24.996901
vt 49.948002 -25.006500
vt 49.948799 -24.982300
vt 50.051800 -24.992300
vt 50.071999 -24.986401
vt 50.051201 -24.982300
vt 50.066002 -24.996901
vt 50.051998 -25.006500
vt 50.019901 -25.013901
vt 50.041401 -24.995199
vt 50.019001 -24.993401
vt 50.041801 -25.013901
vt 50.024700 -25.183701
vt 50.066002 -25.020100
vt 50.058800 -25.008699
vt 50.051998 -25.025999
vt 49.933998 -25.020100
vt 49.948002 -25.025999
vt 49.941200 -25.008699
vt 49.966801 -24.984200
vt 49.990002 -24.982901
vt 49.967602 -24.974001
vt 50.012798 -24.990999
vt 50.031898 -24.984900
vt 50.033600 -24.975201
vt 49.958698 -25.000200
vt 49.955399 -25.009501
vt 49.938000 -24.997101
vt 50.041302 -25.000200
vt 50.062000 -24.997101
vt 50.044601 -25.009501
vt 0.858127 0.218466
vt 0.858127 0.245079
vt 0.848735 0.227427
vt 0.867519 0.227362
vt 0.848530 0.246474
vt 0.842243 0.242437
vt 0.849554 0.247178
vt 0.858127 0.260089
vt 0.866700 0.247178
vt 0.867724 0.246474
vt 0.874010 0.242404
vt 0.819435 0.288574
vt 0.795597 0.303825
vt 0.794534 0.289248
vt 0.807526 0.312021
vt 0.795897 0.265751
vt 0.793005 0.268573
vt 0.819168 0.311020
vt 0.816115 0.318183
vt 0.820574 0.307841
vt 0.821731 0.305208
vt 0.838064 0.287733
vt 0.820753 0.266546
vt 0.808556 0.252945
vt 0.818652 0.256225
vt 0.832549 0.260646
vt 0.840737 0.284918
vt 0.839953 0.264445
vt 0.846804 0.267796
vt 0.850633 0.276435
vt 0.875517 0.284921
vt 0.876301 0.264445
vt 0.895500 0.266546
vt 0.869450 0.267800
vt 0.865621 0.276439
vt 0.883705 0.260658
vt 0.897601 0.256225
vt 0.907698 0.252939
vt 0.878190 0.287733
vt 0.920356 0.265751
vt 0.896819 0.288574
vt 0.894523 0.305207
vt 0.895680 0.307841
vt 0.921719 0.289248
vt 0.923249 0.268570
vt 0.920657 0.303832
vt 0.908728 0.312021
vt 0.897086 0.311020
vt 0.900139 0.318160
s 1
usemtl Meshpart1Mtl.002
f 1/1/1 2/2/2 3/3/2
f 1/1/1 3/3/2 4/4/1
f 3/3/2 2/2/2 5/5/3
f 5/5/3 6/6/3 3/3/2
f 9/1/1 7/7/4 8/8/4
f 7/7/4 9/1/1 10/4/1
f 12/9/2 13/10/1 11/11/2
f 13/10/1 12/9/2 14/12/1
f 17/13/3 16/14/5 15/15/5
f 17/13/3 15/15/5 18/16/3
f 19/17/5 20/18/3 21/19/3
f 20/18/3 22/20/2 21/19/3
f 19/17/5 21/19/3 23/21/5
f 19/17/5 23/21/5 24/22/6
f 24/22/6 23/21/5 25/23/6
f 26/24/2 22/20/2 20/18/3
f 27/25/7 28/26/7 29/27/7
f 29/27/7 30/28/7 27/25/7
f 28/26/7 31/29/8 29/27/7
f 32/30/7 27/25/7 30/28/7
f 31/29/8 28/26/7 33/31/7
f 27/25/7 32/30/7 34/32/7
f 35/33/7 34/32/7 32/30/7
f 34/32/7 35/33/7 36/34/7
f 37/35/8 31/29/8 33/31/7
f 31/29/8 37/35/8 38/36/9
f 39/37/7 38/36/9 37/35/8
f 38/36/9 39/37/7 40/38/7
f 41/39/9 42/34/9 43/33/7
f 43/33/7 44/40/10 41/39/9
f 44/40/10 45/37/7 41/39/9
f 45/37/7 44/40/10 46/38/7
f 47/3/6 48/4/11 49/1/11
f 49/1/11 48/4/11 50/7/12
f 47/3/6 49/1/11 51/2/6
f 50/7/12 52/8/12 49/1/11
f 53/5/5 47/3/6 51/2/6
f 47/3/6 53/5/5 54/6/5
f 56/10/11 57/9/6 55/12/11
f 57/9/6 56/10/11 58/11/6
f 59/13/12 61/15/4 60/16/12
f 59/13/12 62/14/4 61/15/4
f 64/22/1 65/21/4 63/23/1
f 66/17/4 65/21/4 64/22/1
f 66/17/4 67/19/12 65/21/4
f 66/17/4 68/18/12 67/19/12
f 69/20/11 70/18/12 71/24/11
f 70/18/12 69/20/11 72/19/12
f 73/30/13 74/25/14 75/28/15
f 74/25/14 76/27/14 75/28/15
f 76/27/14 74/25/14 77/26/14
f 74/25/14 73/30/13 78/32/14
f 79/33/14 78/32/14 73/30/13
f 78/32/14 79/33/14 80/34/14
f 79/33/14 81/39/14 80/34/14
f 81/39/14 79/33/14 82/40/14
f 83/37/14 81/39/14 82/40/14
f 82/40/14 84/38/15 83/37/14
f 85/36/14 83/37/14 84/38/15
f 83/37/14 85/36/14 86/35/14
f 87/26/13 88/31/16 89/29/16
f 89/29/16 90/27/13 87/26/13
f 91/35/14 89/29/16 88/31/16
f 89/29/16 91/35/14 92/36/14
usemtl Meshpart2Mtl.002
f 93/41/17 94/42/18 95/43/18
f 94/42/18 93/41/17 96/44/19
f 96/44/19 93/41/17 97/45/20
f 96/44/19 97/45/20 98/46/21
f 98/46/21 97/45/20 99/47/22
f 97/45/20 100/48/23 99/47/22
f 101/49/24 99/47/22 100/48/23
f 99/47/22 101/49/24 102/50/25
f 101/49/24 103/51/26 102/50/25
f 102/50/25 103/51/26 104/52/27
f 105/53/28 106/54/29 107/55/30
f 107/55/30 108/56/28 105/53/28
f 109/57/31 105/53/28 108/56/28
f 105/53/28 109/57/31 110/58/32
f 112/59/33 111/60/34 113/61/35
f 111/60/34 114/62/36 113/61/35
f 117/63/37 115/64/38 116/65/39
f 115/64/38 117/63/37 118/66/37
f 119/67/40 120/68/41 121/69/42
f 120/68/41 122/70/43 121/69/42
f 127/71/44 125/72/45 123/73/46
f 128/74/47 124/75/48 126/76/49
f 125/72/45 127/71/44 129/77/50
f 124/75/48 128/74/47 130/78/51
f 131/79/52 129/77/50 127/71/44
f 132/80/47 130/78/51 128/74/47
f 129/77/50 131/79/52 133/81/53
f 130/78/51 132/80/47 134/82/51
f 134/82/51 133/81/53 131/79/52
f 133/81/53 134/82/51 132/80/47
f 135/83/54 136/84/55 137/85/56
f 136/84/55 135/83/54 138/86/57
f 139/87/58 136/84/55 138/86/57
f 137/85/56 140/88/59 135/83/54
f 140/88/59 137/85/56 141/89/59
f 135/83/54 140/88/59 142/90/60
f 143/91/61 135/83/54 142/90/60
f 143/91/61 142/90/60 144/92/62
f 143/91/61 144/92/62 145/93/62
f 145/93/62 146/94/63 143/91/61
f 146/94/63 145/93/62 147/95/62
f 148/96/64 146/94/63 147/95/62
f 148/96/64 149/97/65 146/94/63
f 149/97/65 148/96/64 150/98/65
f 150/98/65 148/96/64 151/99/66
f 151/99/66 148/96/64 152/100/67
f 152/100/67 153/101/68 151/99/66
f 153/101/68 152/100/67 154/102/65
f 151/99/66 153/101/68 155/103/69
f 156/104/69 155/103/69 153/101/68
f 155/103/69 156/104/69 157/105/69
f 157/105/69 156/104/69 158/106/69
f 156/104/69 159/107/69 158/106/69
f 160/108/70 161/109/70 162/110/70
f 163/106/70 160/108/70 162/110/70
f 160/108/70 163/106/70 164/107/70
f 161/109/70 160/108/70 165/111/71
f 165/111/71 166/112/72 161/109/70
f 165/111/71 167/113/73 166/112/72
f 167/113/73 165/111/71 168/114/73
f 169/115/74 166/112/72 167/113/73
f 166/112/72 169/115/74 170/116/73
f 169/115/74 171/97/75 170/116/73
f 171/97/75 169/115/74 172/94/76
f 172/94/76 169/115/74 173/117/77
f 174/118/77 172/94/76 173/117/77
f 172/94/76 174/118/77 175/91/78
f 175/91/78 174/118/77 176/119/77
f 175/91/78 176/119/77 177/120/79
f 177/120/79 178/83/80 175/91/78
f 179/121/81 178/83/80 177/120/79
f 178/83/80 179/121/81 180/122/80
f 180/122/80 179/121/81 181/123/81
f 180/122/80 182/124/82 178/83/80
f 178/83/80 182/124/82 183/86/83
f 182/124/82 184/87/84 183/86/83
f 185/125/85 186/104/85 187/101/86
f 187/101/86 188/126/87 185/125/85
f 188/126/87 187/101/86 189/127/88
f 190/102/88 189/127/88 187/101/86
f 191/128/89 188/126/87 189/127/88
f 188/126/87 191/128/89 192/129/90
f 192/129/90 191/128/89 193/130/91
f 194/131/92 192/129/90 193/130/91
f 192/129/90 194/131/92 195/132/93
f 196/133/94 195/132/93 194/131/92
f 195/132/93 196/133/94 197/134/95
f 196/133/94 198/135/96 197/134/95
f 198/135/96 199/136/97 197/134/95
f 199/136/97 198/135/96 200/137/98
f 199/136/97 200/137/98 201/84/99
f 201/84/99 202/138/100 199/136/97
f 202/138/100 201/84/99 203/139/101
f 200/137/98 204/85/102 201/84/99
f 204/85/102 200/137/98 205/140/103
f 205/140/103 206/89/104 204/85/102
f 207/141/105 208/111/106 209/108/105
f 208/111/106 207/141/105 210/142/107
f 208/111/106 210/142/107 211/143/108
f 208/111/106 211/143/108 212/114/108
f 211/143/108 210/142/107 213/144/109
f 210/142/107 214/145/110 213/144/109
f 213/144/109 214/145/110 215/146/111
f 215/146/111 214/145/110 216/147/112
f 214/145/110 217/148/113 216/147/112
f 216/147/112 217/148/113 218/149/114
f 219/150/115 218/149/114 217/148/113
f 218/149/114 219/150/115 220/151/116
f 220/151/116 219/150/115 221/152/117
f 222/153/118 220/151/116 221/152/117
f 222/153/118 221/152/117 223/124/119
f 224/154/120 223/124/119 221/152/117
f 223/124/119 224/154/120 225/155/121
f 223/124/119 226/122/122 222/153/118
f 227/156/123 222/153/118 226/122/122
f 228/123/124 227/156/123 226/122/122
f 230/157/125 231/158/126 229/159/127
f 231/158/126 230/157/125 232/160/128
f 231/158/126 232/160/128 233/161/129
f 235/162/130 234/163/26 236/164/131
f 237/165/132 235/162/130 236/164/131
f 237/165/132 236/164/131 238/161/133
f 241/166/134 240/167/135 239/168/136
f 240/167/135 241/166/134 242/169/134
f 243/170/137 242/169/134 241/166/134
f 242/169/134 243/170/137 244/171/138
f 245/172/139 244/171/138 243/170/137
f 244/171/138 245/172/139 246/173/139
f 247/174/140 246/173/139 245/172/139
f 246/173/139 247/174/140 248/175/141
f 249/176/142 248/175/141 247/174/140
f 248/175/141 249/176/142 250/177/142
f 251/178/143 250/177/142 249/176/142
f 250/177/142 251/178/143 252/179/144
f 253/180/55 254/181/145 255/182/146
f 255/182/146 254/181/145 256/161/147
f 258/181/84 257/183/148 259/184/149
f 258/181/84 259/184/149 260/161/150
f 261/164/100 262/182/151 263/161/152
f 265/184/153 264/158/120 266/161/154
f 269/185/155 268/186/156 267/187/157
f 269/185/155 267/187/157 270/188/158
f 271/189/159 269/185/155 270/188/158
f 269/185/155 271/189/159 272/190/160
f 273/191/161 274/192/162 275/193/163
f 274/192/162 276/194/164 275/193/163
f 273/191/161 275/193/163 277/195/161
f 274/192/162 278/196/165 276/194/164
f 279/197/166 273/191/161 277/195/161
f 278/196/165 280/198/167 276/194/164
f 279/197/166 277/195/161 281/199/168
f 282/200/169 280/198/167 278/196/165
f 283/201/170 279/197/166 281/199/168
f 283/201/170 281/199/168 284/202/171
f 285/203/172 283/201/170 284/202/171
f 285/203/172 284/202/171 286/204/173
f 287/205/174 288/206/174 289/207/175
f 290/208/176 289/207/175 288/206/174
f 287/205/174 291/209/127 288/206/174
f 292/210/177 289/207/175 290/208/176
f 291/209/127 287/205/174 293/211/178
f 289/207/175 292/210/177 294/212/179
f 292/210/177 295/213/180 294/212/179
f 295/213/180 292/210/177 296/214/181
f 296/214/181 297/215/182 295/213/180
f 297/215/182 296/214/181 298/216/182
f 300/217/183 301/218/184 299/219/185
f 302/220/186 301/218/184 300/217/183
f 302/220/186 303/221/184 301/218/184
f 303/221/184 302/220/186 305/222/187
f 305/222/187 307/223/188 303/221/184
f 308/224/189 306/225/144 304/226/190
f 307/223/188 305/222/187 309/227/191
f 306/225/144 308/224/189 310/228/192
f 309/227/191 311/229/193 307/223/188
f 311/229/193 309/227/191 313/230/193
f 313/230/193 314/231/194 311/229/193
f 314/231/194 313/230/193 312/232/195
f 315/233/196 316/234/197 317/235/198
f 316/234/197 315/233/196 318/236/199
f 321/237/157 320/238/200 319/239/201
f 320/238/200 321/237/157 322/240/202
f 325/241/203 323/242/204 324/243/205
f 323/242/204 325/241/203 326/244/203
f 325/241/203 327/245/206 326/244/203
f 327/245/206 325/241/203 328/246/207
f 329/108/208 330/104/208 331/107/208
f 332/247/209 333/248/209 334/249/209
f 335/250/209 332/247/209 334/249/209
f 332/247/209 335/250/209 336/251/209
f 336/251/209 337/252/209 332/247/209
f 334/249/209 338/253/209 339/254/209
f 334/249/209 333/248/209 338/253/209
f 338/253/209 333/248/209 340/255/209
f 340/255/209 333/248/209 341/256/209
f 333/248/209 342/257/210 341/256/209
f 333/248/209 332/247/209 343/258/210
f 332/247/209 344/259/209 343/258/210
f 333/248/209 343/258/210 345/260/209
f 345/260/209 346/261/209 333/248/209
f 347/262/208 348/263/208 349/264/208
f 349/264/208 348/263/208 350/265/208
f 351/266/208 348/263/208 347/262/208
f 347/262/208 352/267/208 351/266/208
f 353/268/31 355/269/211 354/270/32
f 356/271/212 355/269/211 353/268/31
f 356/271/212 357/272/185 355/269/211
f 358/273/213 357/272/185 356/271/212
f 360/274/214 359/275/215 361/276/195
f 361/276/195 359/275/215 362/277/194
f 365/278/216 363/279/196 364/280/198
f 363/279/196 365/278/216 366/281/217
f 367/282/201 366/281/217 365/278/216
f 366/281/217 367/282/201 368/283/200
f 369/284/218 370/285/36 371/286/219
f 372/287/219 371/286/219 370/285/36
f 372/287/219 373/288/220 371/286/219
f 374/289/221 373/288/220 372/287/219
f 378/290/222 375/291/206 376/292/207
f 375/291/206 378/290/222 380/293/222
f 381/294/223 377/295/224 379/296/225
f 380/293/222 378/290/222 382/297/226
f 377/295/224 381/294/223 383/298/45
f 382/297/226 378/290/222 384/299/49
usemtl Meshpart3Mtl.002
f 385/300/227 386/301/228 387/302/229
f 386/301/228 385/300/227 388/303/230
f 388/303/230 389/304/231 386/301/228
f 390/305/232 391/306/233 392/307/234
f 392/307/234 393/308/235 390/305/232
f 394/309/236 391/306/233 390/305/232
f 394/309/236 395/310/237 391/306/233
f 396/311/238 397/312/239 398/313/240
f 397/312/239 399/314/241 398/313/240
f 397/312/239 396/311/238 400/315/242
f 401/316/243 400/315/242 396/311/238
f 401/316/243 402/317/243 400/315/242
f 399/314/241 397/312/239 403/318/244
f 403/318/244 404/319/245 399/314/241
f 404/319/245 403/318/244 405/320/246
f 406/321/247 404/319/245 405/320/246
f 404/319/245 406/321/247 407/322/248
f 408/323/249 409/324/250 410/325/251
f 408/323/249 410/325/251 411/326/252
f 409/324/250 408/323/249 412/327/253
f 409/324/250 412/327/253 413/328/254
f 414/329/255 415/330/256 416/331/257
f 416/331/257 415/330/256 417/304/258
f 415/330/256 414/329/255 418/332/259
f 418/332/259 414/329/255 419/333/260
f 420/334/261 421/335/262 422/336/263
f 421/335/262 423/337/264 422/336/263
f 420/334/261 425/338/265 424/339/266
f 427/340/267 426/341/268 429/342/269
f 426/341/270 428/343/271 430/344/272
f 430/344/272 428/343/271 431/345/273
f 432/346/274 434/347/275 433/348/276
f 435/349/277 436/350/278 437/351/279
f 438/352/280 439/353/281 440/354/282
f 439/353/281 441/355/283 440/354/282
f 439/353/281 438/352/280 442/356/284
f 443/357/285 442/356/284 438/352/280
f 443/357/285 444/358/285 442/356/284
f 441/355/283 439/353/281 445/359/286
f 446/360/287 441/355/283 445/359/286
f 441/355/283 446/360/287 447/361/288
f 447/361/288 446/360/287 448/362/289
f 447/361/288 448/362/289 449/363/290
f 450/364/291 451/352/292 452/365/293
f 450/364/291 453/357/294 451/352/292
f 453/357/294 450/364/291 454/366/294
f 451/352/292 455/354/295 452/365/293
f 455/354/295 456/367/296 452/365/293
f 456/367/296 455/354/295 457/355/297
f 458/361/298 456/367/296 457/355/297
f 456/367/296 458/361/298 459/368/299
f 458/361/298 460/369/300 459/368/299
f 460/369/300 458/361/298 461/363/301
f 462/370/302 463/371/302 464/372/302
f 463/371/302 462/370/302 465/373/303
f 463/371/302 465/373/303 466/374/303
f 469/375/304 468/376/305 467/377/306
f 468/376/305 469/375/304 470/378/307
f 471/379/308 472/380/309 473/381/310
f 474/382/311 475/383/312 476/384/313
f 477/385/314 479/386/315 478/387/316
f 480/388/317 482/389/318 481/390/319
f 483/391/320 484/392/321 485/393/322
f 484/392/321 486/394/323 485/393/322
f 486/394/323 484/392/321 487/395/324
f 488/396/325 489/397/326 490/398/327
f 489/397/326 488/396/325 491/399/328
f 490/398/327 492/400/329 488/396/325
f 492/400/329 490/398/327 493/401/330
f 494/402/331 495/403/332 496/404/333
f 494/402/331 497/405/334 495/403/332
f 497/405/334 494/402/331 498/406/335
f 495/403/332 499/407/336 496/404/333
f 500/408/337 496/404/333 499/407/336
f 496/404/333 500/408/337 501/409/305
f 502/410/338 504/411/339 503/412/340
f 504/411/339 502/410/338 505/413/341
f 506/414/342 507/415/343 508/416/344
f 507/415/343 509/417/345 508/416/344
f 507/415/343 506/414/342 510/418/346
f 506/414/342 511/419/347 510/418/346
f 512/420/348 513/421/349 514/422/350
f 513/421/349 515/395/351 514/422/350
f 514/422/350 516/423/352 512/420/348
f 516/423/352 517/424/353 512/420/348
f 518/425/354 519/426/355 520/427/356
f 518/425/354 520/427/356 521/428/355
f 519/426/355 522/429/355 520/427/356
f 522/429/355 519/426/355 523/430/357
f 523/430/357 519/426/355 524/431/355
f 519/426/355 518/425/354 525/432/355
f 518/425/354 526/433/355 525/432/355
f 526/433/355 518/425/354 527/434/358
f 527/434/358 528/435/355 526/433/355
f 529/436/359 528/435/355 527/434/358
f 530/437/360 531/438/361 532/439/362
f 530/437/360 532/439/362 533/440/363
f 531/438/361 530/437/360 534/441/364
f 535/442/365 536/443/366 537/444/367
f 535/442/365 537/444/367 538/445/368
f 536/443/366 535/442/365 539/446/312
f 540/447/369 541/448/370 542/449/371
f 541/448/370 540/447/369 543/450/372
f 540/447/369 544/451/373 543/450/372
f 545/452/374 546/453/375 547/454/319
f 546/453/375 545/452/374 548/455/376
f 545/452/374 549/456/377 548/455/376
f 550/457/378 551/458/379 552/459/380
f 554/460/381 555/461/382 553/462/383
f 557/463/262 556/464/261 558/465/266
f 559/466/384 560/467/385 561/468/271
f 562/469/386 563/462/387 564/470/388
f 563/462/387 565/461/389 564/470/388
f 563/462/387 562/469/386 566/471/276
f 567/472/390 568/458/391 569/473/278
f 568/458/391 567/472/390 570/474/392
f 568/458/391 570/474/392 571/459/393
usemtl Meshpart4Mtl.002
f 572/475/394 573/476/395 574/477/396
f 575/478/397 573/476/395 572/475/394
f 574/477/396 576/479/398 577/480/399
f 576/479/398 574/477/396 573/476/395
f 576/479/398 573/476/395 578/481/400
f 578/481/400 573/476/395 579/482/401
f 573/476/395 580/483/402 579/482/401
f 573/476/395 581/484/403 580/483/402
f 573/476/395 575/478/397 581/484/403
f 581/484/403 575/478/397 582/485/397
f 583/486/404 584/487/405 585/488/406
f 584/487/405 583/486/404 586/489/407
f 587/490/408 585/488/406 588/491/409
f 585/488/406 587/490/408 583/486/404
f 589/492/410 590/493/411 586/489/407
f 586/489/407 591/494/412 589/492/410
f 586/489/407 583/486/404 591/494/412
f 591/494/412 583/486/404 592/495/413
f 583/486/404 593/496/414 592/495/413
f 583/486/404 587/490/408 594/497/415
f 594/497/415 593/496/414 583/486/404
f 594/497/415 587/490/408 595/498/416
f 594/497/415 595/498/416 596/499/417
f 596/499/417 597/500/418 594/497/415
f 593/496/414 594/497/415 598/501/419
f 599/502/420 594/497/415 597/500/418
f 598/501/419 594/497/415 599/502/420
f 600/503/421 598/501/419 599/502/420
f 598/501/419 600/503/421 601/504/421
f 602/505/77 603/506/422 604/507/423
f 603/506/422 602/505/77 605/508/77
f 605/508/77 602/505/77 606/509/77
f 604/507/423 603/506/422 607/510/424
f 607/510/424 608/511/425 604/507/423
f 609/512/426 604/507/423 608/511/425
f 602/505/77 604/507/423 610/513/427
f 604/507/423 609/512/426 611/514/428
f 610/513/427 604/507/423 612/515/429
f 604/507/423 611/514/428 612/515/429
f 613/516/430 610/513/427 612/515/429
f 612/515/429 614/517/431 613/516/430
f 611/514/428 615/518/432 612/515/429
f 615/518/432 611/514/428 616/519/433
f 617/520/434 612/515/429 615/518/432
f 618/521/435 612/515/429 617/520/434
f 618/521/435 614/517/431 612/515/429
f 614/517/431 618/521/435 619/522/436
f 618/521/435 620/523/437 619/522/436
